<svg fill="none" height="587" viewBox="0 0 390 587" width="390" xmlns="http://www.w3.org/2000/svg" xmlns:xlink="http://www.w3.org/1999/xlink"><radialGradient id="a" cx="0" cy="0" gradientTransform="matrix(218.48851744 -601.87372443 631.8299854 229.36305604 123.648 390.177)" gradientUnits="userSpaceOnUse" r="1"><stop offset=".411458" stop-color="#4cbbad" stop-opacity=".56"/><stop offset=".947158" stop-color="#eff3c6" stop-opacity=".65"/></radialGradient><clipPath id="b"><path d="m0 0h390v587h-390z"/></clipPath><clipPath id="c"><path d="m0 0h259.486v147.66h-259.486z" transform="matrix(.70710678 .70710678 -.70710678 .70710678 27.4111 371)"/></clipPath><g clip-path="url(#b)"><path d="m0 0h390v587h-390z" fill="url(#a)"/><g stroke="#fff"><path d="m55.9007 54.3846c-1.3642 1.3641-3.5244 1.3806-4.8253.0797s-1.2844-3.4611.0798-4.8252c1.3641-1.3642 3.5243-1.3807 4.8252-.0798s1.2844 3.4611-.0797 4.8253z"/><path d="m54.2395 45.2079c-.4467.4468-1.1407.4422-1.5503.0326s-.4142-1.1036.0326-1.5503c.4467-.4468 1.1407-.4422 1.5503-.0326s.4142 1.1036-.0326 1.5503z"/><path d="m47.9153 46.9154c-.4468.4467-1.1407.4421-1.5503.0325s-.4142-1.1035.0325-1.5503c.4468-.4468 1.1408-.4421 1.5504-.0325.4095.4095.4142 1.1035-.0326 1.5503z"/><path d="m60.3013 46.9154c-.4468.4467-1.1407.4421-1.5503.0325s-.4142-1.1035.0325-1.5503c.4468-.4468 1.1408-.4421 1.5503-.0325.4096.4095.4143 1.1035-.0325 1.5503z"/><path d="m33.5411 30.4694 11.1068 7.1006c1.4705.9401 3.4273.1222 3.7915-1.5847l2.7092-12.6958c.3336-1.5635 2.5555-1.5899 2.9261-.0347l3.0988 13.0034c.396 1.6618 2.305 2.4457 3.7546 1.5419l11.17-6.9647c1.3486-.8408 2.9073.7179 2.0665 2.0665l-6.9647 11.17c-.9038 1.4496-.1199 3.3586 1.5419 3.7546l13.0034 3.0988c1.5552.3706 1.5288 2.5925-.0347 2.9261l-12.6959 2.7092c-1.7068.3642-2.5247 2.321-1.5846 3.7915l7.1006 11.1068c.8661 1.3546-.7171 2.9378-2.0717 2.0717l-11.1068-7.1006c-1.4705-.9401-3.4273-.1222-3.7915 1.5846l-2.7092 12.6959c-.3336 1.5635-2.5555 1.5899-2.9261.0347l-3.0988-13.0034c-.396-1.6618-2.305-2.4457-3.7546-1.5419l-11.17 6.9647c-1.3486.8408-2.9073-.7179-2.0665-2.0665l6.9647-11.17c.9038-1.4496.1199-3.3586-1.5419-3.7546l-13.0034-3.0988c-1.5552-.3706-1.5288-2.5925.0347-2.9261l12.6959-2.7092c1.7068-.3642 2.5247-2.321 1.5846-3.7915l-7.1006-11.1068c-.8661-1.3546.7171-2.9378 2.0717-2.0717z"/><g clip-path="url(#c)" stroke-opacity=".6"><path d="m281.262 945.878c105.35-186.638-13.986-307.351-111.227-335.149-97.2417-27.798-9.665-104.618-49.609-146.689-39.9449-42.07-145.4905-16.523-145.4905-16.523"/><path d="m250.857 964.97c105.35-186.638-13.986-307.351-111.228-335.149-97.2413-27.798-9.664-104.619-49.6089-146.689-39.9445-42.07-145.4902-16.523-145.4902-16.523"/><path d="m214.087 989.011c105.35-186.637-13.986-307.351-111.227-335.148-97.24178-27.798-9.6649-104.619-49.6094-146.689-39.9445-42.071-145.4902-16.523-145.4902-16.523"/></g><path d="m323.861 563.815c-2.315 2.316-5.996 2.354-8.221.129-2.224-2.225-2.186-5.905.129-8.221 2.315-2.315 5.996-2.353 8.221-.128s2.186 5.905-.129 8.22z"/><path d="m328.613 527.613c-3.488 3.489-9.909 3.618-17.695.679-7.739-2.922-16.626-8.811-24.805-16.991-8.18-8.179-14.069-17.066-16.99-24.804-2.939-7.786-2.81-14.207.678-17.696 3.489-3.488 9.91-3.617 17.696-.678 7.738 2.921 16.625 8.81 24.805 16.99 8.179 8.179 14.068 17.066 16.99 24.805 2.939 7.786 2.81 14.206-.679 17.695z"/><path d="m396.272 551.362c-6.404 6.404-13.679 10.69-20.244 12.46-6.58 1.774-12.339.999-15.873-2.534-3.533-3.534-4.308-9.293-2.534-15.873 1.77-6.565 6.056-13.84 12.46-20.244s13.679-10.69 20.244-12.46c6.58-1.773 12.339-.999 15.872 2.535 3.534 3.533 4.308 9.292 2.535 15.872-1.77 6.565-6.056 13.84-12.46 20.244z"/></g></g></svg>