<svg fill="none" height="48" viewBox="0 0 48 48" width="48" xmlns="http://www.w3.org/2000/svg" xmlns:xlink="http://www.w3.org/1999/xlink"><linearGradient id="a" gradientUnits="userSpaceOnUse" x1="24" x2="24" y1="0" y2="48"><stop offset="0" stop-color="#8ccac2"/><stop offset="1" stop-color="#cbe1cb"/></linearGradient><clipPath id="b"><path d="m0 0h48v48h-48z"/></clipPath><g clip-path="url(#b)"><circle cx="24" cy="24" fill="url(#a)" r="24"/><g stroke="#fff"><circle cx="24.5" cy="23.5" r="16"/><path d="m20.5 26c0 1.3057-.3186 2.4635-.8074 3.2783-.4949.8247-1.1088 1.2217-1.6926 1.2217s-1.1977-.397-1.6926-1.2217c-.4888-.8148-.8074-1.9726-.8074-3.2783s.3186-2.4635.8074-3.2783c.4949-.8247 1.1088-1.2217 1.6926-1.2217s1.1977.397 1.6926 1.2217c.4888.8148.8074 1.9726.8074 3.2783z"/><path d="m33.5 26c0 1.3057-.3186 2.4635-.8074 3.2783-.4949.8247-1.1088 1.2217-1.6926 1.2217s-1.1977-.397-1.6926-1.2217c-.4888-.8148-.8074-1.9726-.8074-3.2783s.3186-2.4635.8074-3.2783c.4949-.8247 1.1088-1.2217 1.6926-1.2217s1.1977.397 1.6926 1.2217c.4888.8148.8074 1.9726.8074 3.2783z"/><path d="m16 24 4 4"/><path d="m29 24 4 4"/><path d="m34 31h2.3839"/><path d="m12.6161 31h2.1517"/><path d="m35 15-6 2"/><path d="m34.7954 17.9095-5.3892-3.6774"/><path d="m35.6192 15.7583-3.6192-1.7902"/><path d="m30.5 33.5c-2.1667 1.8333-7.6 4.4-12 0"/></g></g></svg>