<svg width="48" height="48" viewBox="0 0 48 48" fill="none" xmlns="http://www.w3.org/2000/svg">
<g clip-path="url(#clip0_1_589)">
<circle cx="24" cy="24" r="24" fill="url(#paint0_linear_1_589)"/>
<path d="M9.15771 19.1992V25.5405C9.15771 26.298 9.10482 26.863 8.99902 27.2354C8.89323 27.6585 8.71338 28.0161 8.45947 28.3081C7.96436 28.8879 7.30843 29.1777 6.4917 29.1777C5.87386 29.1777 5.29622 29.0169 4.75879 28.6953L5.48242 27.4321C5.84212 27.6733 6.17855 27.7939 6.4917 27.7939C6.9318 27.7939 7.23649 27.6268 7.40576 27.2925C7.5835 26.9582 7.67236 26.3742 7.67236 25.5405V19.1992H9.15771ZM12.9854 19.1992V27.6099H15.8672V29H11.5063V19.1992H12.9854ZM18.4253 22.8174V29H16.9971V22.8174H18.4253ZM16.7812 20.2466C16.7812 19.9969 16.8722 19.7811 17.0542 19.5991C17.2362 19.4172 17.4541 19.3262 17.708 19.3262C17.9661 19.3262 18.1862 19.4172 18.3682 19.5991C18.5501 19.7769 18.6411 19.9948 18.6411 20.2529C18.6411 20.5111 18.5501 20.7311 18.3682 20.9131C18.1904 21.0951 17.9725 21.186 17.7144 21.186C17.4562 21.186 17.2362 21.0951 17.0542 20.9131C16.8722 20.7311 16.7812 20.509 16.7812 20.2466ZM24.792 22.8174H26.2266V29H24.792V28.3525C24.2038 28.9027 23.5711 29.1777 22.894 29.1777C22.0392 29.1777 21.3325 28.8688 20.7739 28.251C20.2196 27.6204 19.9424 26.8333 19.9424 25.8896C19.9424 24.9629 20.2196 24.1906 20.7739 23.5728C21.3283 22.9549 22.0223 22.646 22.856 22.646C23.5754 22.646 24.2207 22.9422 24.792 23.5347V22.8174ZM21.4023 25.8896C21.4023 26.4821 21.561 26.9645 21.8784 27.3369C22.2043 27.7135 22.6147 27.9019 23.1099 27.9019C23.6388 27.9019 24.0662 27.7199 24.3921 27.356C24.7179 26.9793 24.8809 26.5011 24.8809 25.9214C24.8809 25.3416 24.7179 24.8634 24.3921 24.4868C24.0662 24.1187 23.6431 23.9346 23.1226 23.9346C22.6317 23.9346 22.2212 24.1208 21.8911 24.4932C21.5653 24.8698 21.4023 25.3353 21.4023 25.8896ZM28.0293 22.8174H29.4639V23.3887C29.9632 22.8936 30.526 22.646 31.1523 22.646C31.8717 22.646 32.4325 22.8724 32.8345 23.3252C33.1815 23.7103 33.355 24.3387 33.355 25.2104V29H31.9204V25.5469C31.9204 24.9375 31.8358 24.5164 31.6665 24.2837C31.5015 24.0467 31.201 23.9282 30.7651 23.9282C30.2912 23.9282 29.9548 24.0848 29.7559 24.3979C29.5612 24.7069 29.4639 25.2464 29.4639 26.0166V29H28.0293V22.8174ZM41.1436 28.854C41.1436 29.146 41.133 29.402 41.1118 29.6221C41.0949 29.8464 41.0695 30.0431 41.0356 30.2124C40.9341 30.6779 40.7352 31.0778 40.439 31.4121C39.8804 32.0553 39.1123 32.377 38.1348 32.377C37.3096 32.377 36.6304 32.1548 36.0972 31.7104C35.547 31.2534 35.2297 30.6208 35.145 29.8125H36.5796C36.6346 30.1172 36.7256 30.3521 36.8525 30.5171C37.1488 30.9022 37.5804 31.0947 38.1475 31.0947C39.1927 31.0947 39.7153 30.4536 39.7153 29.1714V28.3081C39.1483 28.8879 38.4945 29.1777 37.7539 29.1777C36.9118 29.1777 36.222 28.873 35.6846 28.2637C35.1429 27.6458 34.8721 26.8735 34.8721 25.9468C34.8721 25.0454 35.1239 24.2795 35.6274 23.6489C36.1691 22.9803 36.8843 22.646 37.7729 22.646C38.5516 22.646 39.1991 22.9359 39.7153 23.5156V22.8174H41.1436V28.854ZM39.7725 25.9214C39.7725 25.3205 39.6117 24.8402 39.29 24.4805C38.9642 24.1123 38.5474 23.9282 38.0396 23.9282C37.4979 23.9282 37.0705 24.1292 36.7573 24.5312C36.4738 24.891 36.332 25.3564 36.332 25.9277C36.332 26.4906 36.4738 26.9518 36.7573 27.3115C37.0662 27.7051 37.4937 27.9019 38.0396 27.9019C38.5854 27.9019 39.0171 27.703 39.3345 27.3052C39.6265 26.9455 39.7725 26.4842 39.7725 25.9214Z" fill="#172235"/>
</g>
<defs>
<linearGradient id="paint0_linear_1_589" x1="24" y1="0" x2="24" y2="48" gradientUnits="userSpaceOnUse">
<stop stop-color="#8CCAC2"/>
<stop offset="1" stop-color="#CBE1CB"/>
</linearGradient>
<clipPath id="clip0_1_589">
<rect width="48" height="48" fill="white"/>
</clipPath>
</defs>
</svg>
