<svg fill="none" height="48" viewBox="0 0 48 48" width="48" xmlns="http://www.w3.org/2000/svg"><g fill="#161614"><path d="m23.9092 1.09082c-12.9018 0-23.36379 10.50258-23.36379 23.45858 0 10.3648 6.69444 19.158 15.97769 22.2599 1.1676.2171 1.5964-.5089 1.5964-1.1285 0-.5593-.0218-2.4074-.0317-4.3676-6.5001 1.4191-7.8716-2.7678-7.8716-2.7678-1.06279-2.7115-2.59411-3.4323-2.59411-3.4323-2.11971-1.4561.15978-1.4263.15978-1.4263 2.34623.1656 3.58163 2.4176 3.58163 2.4176 2.0837 3.5863 5.4656 2.5494 6.7988 1.9502.2097-1.5164.8153-2.5511 1.4834-3.1369-5.1894-.5934-10.64474-2.6048-10.64474-11.5934 0-2.5611.91271-4.6539 2.40734-6.2966-.2426-.591-1.0422-2.9769.2263-6.2081 0 0 1.962-.6305 6.4268 2.4046 1.8635-.5199 3.8623-.7804 5.8478-.7893 1.9856.0089 3.9859.2694 5.8531.7893 4.4594-3.0351 6.4186-2.4046 6.4186-2.4046 1.2717 3.2312.4717 5.6171.2291 6.2081 1.4979 1.6427 2.4044 3.7354 2.4044 6.2966 0 9.0099-5.4656 10.994-10.6681 11.5746.8379.728 1.5846 2.1557 1.5846 4.3442 0 3.1387-.0271 5.665-.0271 6.4377 0 .6242.4205 1.3557 1.605 1.1254 9.2781-3.1054 15.9641-11.8955 15.9641-22.2568 0-12.956-10.4605-23.45858-23.3637-23.45858z"/><path d="m8.95404 35.0085c-.0525.122-.23962.1587-.40968.075-.17344-.0802-.27094-.2467-.21469-.3693.05156-.1257.23869-.1607.41175-.0763.17381.08.27281.2481.21262.3706zm1.17596 1.0786c-.114.1087-.33689.0582-.4882-.1135-.15638-.1714-.18563-.4003-.06994-.5108.11756-.1085.33375-.0578.49054.1137.1563.1733.1867.401.0675.5108zm.8069 1.3801c-.1467.1046-.3863.0065-.5342-.2121-.1465-.2183-.1465-.4805.0032-.5855.1485-.1051.3843-.0106.5343.2062.1463.2223.1463.4844-.0035.5916zm1.3642 1.5984c-.131.1484-.4101.1087-.6144-.0941-.2089-.1981-.2672-.4793-.1358-.6279.1326-.1488.4133-.107.6191.094.2076.1978.271.4811.1313.628zm1.7633.5397c-.0576.1923-.3265.2798-.5972.1981-.2704-.0842-.4474-.3097-.3928-.5042.0562-.1937.3262-.2849.599-.1974.27.0839.4474.3076.3912.5035zm2.007.2287c.0067.2028-.223.3709-.5072.3745-.286.0064-.5171-.1576-.5201-.3569 0-.2047.2244-.3712.5101-.3761.2843-.0057.5172.1571.5172.3585zm1.9713-.0776c.0342.1977-.1635.4009-.4456.4548-.2775.0521-.5344-.0699-.5699-.266-.0345-.2027.1669-.4057.4439-.4583.2827-.0505.5356.0684.5716.2695z"/></g></svg>