<svg fill="none" height="694" viewBox="0 0 1385 694" width="1385" xmlns="http://www.w3.org/2000/svg"><path d="m0 0h1385v694h-1385z" fill="#fff"/><path d="m1026.05 651h-3.77v-11.636h3.88c1.14 0 2.12.233 2.94.698.82.463 1.45 1.127 1.88 1.995.44.863.66 1.899.66 3.108 0 1.212-.22 2.254-.66 3.125s-1.08 1.541-1.91 2.011c-.84.466-1.84.699-3.02.699zm-2.02-1.534h1.92c.89 0 1.62-.167 2.21-.5.59-.337 1.03-.824 1.32-1.46.29-.64.43-1.421.43-2.341 0-.913-.14-1.688-.43-2.324s-.72-1.119-1.29-1.449-1.28-.494-2.13-.494h-2.03zm12.2 1.727c-.55 0-1.05-.102-1.5-.307-.45-.208-.8-.509-1.06-.903s-.39-.877-.39-1.449c0-.492.09-.898.28-1.216s.45-.57.77-.756c.32-.185.68-.325 1.08-.42s.8-.167 1.22-.216c.52-.06.94-.11 1.27-.148.32-.041.56-.108.71-.198.15-.091.22-.239.22-.444v-.039c0-.497-.14-.881-.42-1.154s-.69-.409-1.24-.409c-.57 0-1.02.127-1.35.381-.33.25-.55.528-.68.835l-1.59-.364c.19-.53.46-.958.83-1.284.36-.329.79-.568 1.26-.716.48-.151.98-.227 1.51-.227.35 0 .72.042 1.11.125.39.08.76.227 1.1.443s.63.525.85.926c.22.398.33.915.33 1.552v5.795h-1.66v-1.193h-.07c-.11.22-.28.435-.5.648-.22.212-.5.388-.84.528-.35.14-.76.21-1.24.21zm.37-1.363c.47 0 .87-.093 1.2-.279.34-.185.6-.428.77-.727.18-.303.27-.627.27-.972v-1.125c-.06.061-.18.118-.36.171-.17.049-.36.093-.58.13-.22.034-.43.067-.64.097-.21.027-.39.049-.53.068-.33.042-.63.112-.9.21-.27.099-.48.241-.65.427-.16.181-.24.424-.24.727 0 .42.16.738.47.954.31.212.71.319 1.19.319zm10.27-7.557v1.363h-4.76v-1.363zm-3.49-2.091h1.7v8.256c0 .329.05.577.15.744.1.163.23.274.38.335.16.057.33.085.52.085.13 0 .25-.009.36-.028.1-.019.18-.034.23-.046l.31 1.404c-.1.038-.24.076-.42.113-.18.042-.41.065-.68.069-.45.007-.86-.072-1.25-.239s-.7-.424-.94-.773c-.24-.348-.36-.786-.36-1.312zm7.91 11.011c-.55 0-1.05-.102-1.5-.307-.45-.208-.8-.509-1.06-.903s-.39-.877-.39-1.449c0-.492.1-.898.29-1.216s.44-.57.76-.756c.33-.185.69-.325 1.08-.42.4-.095.81-.167 1.22-.216.52-.06.95-.11 1.27-.148.33-.041.56-.108.71-.198.15-.091.22-.239.22-.444v-.039c0-.497-.14-.881-.42-1.154-.27-.273-.69-.409-1.24-.409-.57 0-1.02.127-1.35.381-.32.25-.55.528-.67.835l-1.6-.364c.19-.53.47-.958.83-1.284.37-.329.79-.568 1.27-.716.47-.151.98-.227 1.5-.227.35 0 .72.042 1.11.125.39.08.76.227 1.1.443.35.216.63.525.85.926.22.398.33.915.33 1.552v5.795h-1.66v-1.193h-.07c-.11.22-.27.435-.49.648-.22.212-.51.388-.85.528s-.76.21-1.24.21zm.37-1.363c.47 0 .87-.093 1.21-.279.33-.185.59-.428.76-.727.18-.303.27-.627.27-.972v-1.125c-.06.061-.18.118-.35.171-.17.049-.37.093-.59.13-.22.034-.43.067-.64.097-.21.027-.38.049-.52.068-.33.042-.63.112-.91.21-.27.099-.48.241-.64.427-.16.181-.24.424-.24.727 0 .42.15.738.46.954.31.212.71.319 1.19.319zm14.59-7.557v1.363h-4.93v-1.363zm-3.58 8.727v-9.739c0-.545.12-.998.36-1.358.24-.363.55-.634.95-.812.39-.182.82-.273 1.28-.273.34 0 .63.029.87.085.25.053.43.103.54.148l-.39 1.375c-.08-.023-.18-.049-.31-.079-.12-.035-.28-.052-.45-.052-.42 0-.71.103-.89.307-.17.205-.26.5-.26.887v9.511zm5.33 0v-8.727h1.64v1.386h.09c.16-.47.44-.839.85-1.108.4-.273.86-.409 1.37-.409.11 0 .23.004.38.011.14.008.26.017.34.029v1.625c-.07-.019-.19-.04-.36-.063-.18-.026-.35-.039-.52-.039-.41 0-.76.085-1.08.255-.31.167-.56.4-.74.699-.18.296-.27.633-.27 1.011v5.33zm9.51.176c-.82 0-1.54-.187-2.15-.562s-1.08-.9-1.42-1.574c-.33-.674-.5-1.462-.5-2.364 0-.905.17-1.697.5-2.375.34-.678.81-1.204 1.42-1.579s1.33-.563 2.15-.563c.81 0 1.53.188 2.14.563s1.08.901 1.42 1.579.5 1.47.5 2.375c0 .902-.16 1.69-.5 2.364s-.81 1.199-1.42 1.574-1.33.562-2.14.562zm0-1.426c.53 0 .97-.14 1.32-.42.35-.281.61-.654.77-1.12.17-.466.26-.979.26-1.54 0-.556-.09-1.068-.26-1.534-.16-.469-.42-.846-.77-1.13s-.79-.426-1.32-.426-.98.142-1.33.426-.61.661-.78 1.13c-.16.466-.25.978-.25 1.534 0 .561.09 1.074.25 1.54.17.466.43.839.78 1.12.35.28.8.42 1.33.42zm5.96 1.25v-8.727h1.63v1.42h.11c.18-.481.48-.856.89-1.125.41-.273.91-.409 1.48-.409.59 0 1.08.136 1.47.409.4.273.69.648.88 1.125h.09c.21-.466.54-.837 1-1.113.45-.281.99-.421 1.62-.421.79 0 1.44.248 1.94.744.5.497.75 1.245.75 2.245v5.852h-1.7v-5.693c0-.591-.16-1.019-.48-1.284s-.7-.398-1.15-.398c-.55 0-.98.17-1.29.511-.31.337-.46.771-.46 1.302v5.562h-1.69v-5.801c0-.474-.15-.854-.45-1.142-.29-.288-.68-.432-1.15-.432-.32 0-.62.085-.89.256-.27.166-.49.399-.66.699-.16.299-.24.645-.24 1.039v5.381zm26.39-7.96c-.11-.345-.26-.654-.45-.926-.18-.277-.4-.512-.65-.705-.25-.197-.54-.347-.87-.449-.32-.102-.68-.153-1.06-.153-.66 0-1.25.168-1.77.505-.53.338-.95.832-1.25 1.483-.31.648-.46 1.442-.46 2.381 0 .943.15 1.741.46 2.392.31.652.73 1.146 1.26 1.483.54.337 1.14.506 1.83.506.63 0 1.18-.129 1.65-.387.47-.257.84-.621 1.1-1.09.26-.474.39-1.031.39-1.671l.45.085h-3.33v-1.449h4.58v1.324c0 .978-.21 1.826-.63 2.546-.41.716-.98 1.269-1.71 1.659s-1.56.585-2.5.585c-1.06 0-1.98-.242-2.78-.727-.79-.485-1.41-1.173-1.85-2.063-.44-.894-.66-1.954-.66-3.181 0-.929.13-1.762.38-2.5.26-.739.62-1.366 1.09-1.881.47-.519 1.02-.915 1.65-1.188.64-.276 1.33-.414 2.09-.414.63 0 1.21.092 1.75.278.55.186 1.03.449 1.46.79s.78.746 1.06 1.216c.28.466.47.983.57 1.551zm4.73 7.96h-1.86l4.18-11.636h2.03l4.19 11.636h-1.86l-3.29-9.523h-.1zm.31-4.557h6.05v1.477h-6.05zm11.98 2.966-.08.619c-.06.455-.16.928-.29 1.421-.13.496-.27.956-.42 1.381-.14.424-.25.761-.34 1.011h-1.21c.05-.235.12-.553.21-.955.08-.397.17-.842.25-1.335.09-.492.15-.994.19-1.506l.06-.636zm8.34 1.591-2.57-8.727h1.76l1.71 6.409h.08l1.72-6.409h1.76l1.7 6.38h.09l1.69-6.38h1.76l-2.56 8.727h-1.74l-1.77-6.301h-.13l-1.77 6.301zm11.31 0v-8.727h1.7v8.727zm.86-10.074c-.29 0-.55-.098-.76-.295-.21-.201-.31-.44-.31-.716 0-.281.1-.519.31-.716.21-.201.47-.301.76-.301.3 0 .55.1.76.301.21.197.31.435.31.716 0 .276-.1.515-.31.716-.21.197-.46.295-.76.295zm7.2 1.347v1.363h-4.77v-1.363zm-3.49-2.091h1.7v8.256c0 .329.05.577.15.744.1.163.22.274.38.335.16.057.33.085.52.085.13 0 .25-.009.35-.028.11-.019.19-.034.24-.046l.31 1.404c-.1.038-.24.076-.42.113-.18.042-.41.065-.68.069-.45.007-.87-.072-1.25-.239-.39-.167-.7-.424-.94-.773-.24-.348-.36-.786-.36-1.312zm7.26 5.636v5.182h-1.7v-11.636h1.67v4.329h.11c.21-.47.52-.843.94-1.119.42-.277.97-.415 1.65-.415.6 0 1.12.123 1.57.369.45.247.79.614 1.04 1.103.25.485.38 1.091.38 1.818v5.551h-1.7v-5.347c0-.64-.17-1.136-.5-1.488-.33-.356-.79-.534-1.37-.534-.4 0-.76.085-1.08.255-.32.171-.56.421-.75.75-.17.326-.26.72-.26 1.182zm16.55-6.454v11.636h-1.76v-9.875h-.07l-2.78 1.818v-1.682l2.9-1.897zm6.99 11.795c-.71 0-1.35-.136-1.92-.409-.57-.277-1.02-.655-1.36-1.136-.33-.481-.51-1.031-.53-1.648h1.7c.04.5.26.911.66 1.233.41.322.89.483 1.45.483.44 0 .84-.102 1.19-.307.34-.208.62-.494.81-.858.2-.364.3-.778.3-1.244 0-.474-.1-.896-.3-1.267-.21-.372-.49-.663-.85-.875-.35-.212-.76-.32-1.23-.324-.35 0-.7.06-1.06.182-.35.121-.64.28-.86.477l-1.61-.239.65-5.863h6.4v1.505h-4.94l-.37 3.256h.07c.23-.22.53-.403.91-.551.37-.148.78-.222 1.21-.222.71 0 1.34.169 1.89.506.56.337 1 .797 1.32 1.381.32.579.48 1.246.47 2 .01.753-.16 1.426-.51 2.017-.34.591-.81 1.056-1.42 1.397-.6.338-1.29.506-2.07.506zm6.08-.159v-1.273l3.94-4.079c.42-.443.76-.832 1.04-1.165.27-.337.48-.657.62-.96.13-.303.2-.625.2-.966 0-.387-.09-.72-.27-1-.18-.284-.43-.502-.75-.654-.31-.155-.67-.233-1.06-.233-.42 0-.78.086-1.09.256-.31.171-.55.411-.72.722-.16.31-.25.674-.25 1.091h-1.67c0-.709.16-1.328.49-1.858.32-.531.77-.942 1.34-1.233.57-.296 1.21-.443 1.93-.443.74 0 1.38.145 1.94.437.56.288.99.682 1.31 1.182.31.496.47 1.057.47 1.682 0 .432-.08.854-.24 1.267s-.44.873-.84 1.38c-.4.504-.95 1.116-1.66 1.836l-2.31 2.42v.085h5.24v1.506zm13.87.159c-.52-.007-1.03-.102-1.53-.284s-.95-.485-1.36-.909-.74-.994-.99-1.71c-.24-.716-.36-1.61-.36-2.682 0-1.015.1-1.917.3-2.705.21-.788.5-1.452.88-1.994.38-.545.85-.96 1.39-1.244s1.15-.426 1.82-.426c.69 0 1.31.136 1.85.409.54.272.97.649 1.3 1.13.34.481.56 1.029.65 1.642h-1.74c-.11-.484-.35-.88-.69-1.187-.35-.307-.81-.46-1.37-.46-.85 0-1.52.371-1.99 1.113-.48.743-.72 1.775-.72 3.097h.09c.2-.33.44-.61.74-.841.29-.235.62-.415.98-.54.37-.129.76-.193 1.16-.193.68 0 1.29.165 1.83.494.55.326.99.777 1.31 1.353.33.575.49 1.234.49 1.977 0 .742-.17 1.415-.5 2.017-.34.602-.81 1.079-1.41 1.432-.61.348-1.32.519-2.13.511zm0-1.477c.44 0 .84-.11 1.2-.33.35-.219.63-.515.83-.886.21-.371.31-.786.31-1.244 0-.447-.1-.855-.3-1.222s-.47-.659-.82-.875-.74-.324-1.18-.324c-.34 0-.65.065-.94.193-.28.129-.53.307-.75.534-.22.228-.39.489-.51.784-.12.292-.18.601-.18.927 0 .435.1.839.3 1.21s.48.67.83.898c.36.223.76.335 1.21.335zm10.37 4.591v-12h1.66v1.415h.14c.1-.182.24-.393.43-.631.18-.239.44-.447.77-.625.33-.182.77-.273 1.31-.273.7 0 1.33.178 1.88.534.56.356.99.869 1.3 1.54.32.67.48 1.477.48 2.42 0 .944-.16 1.752-.47 2.427-.31.67-.75 1.187-1.3 1.551-.54.36-1.17.539-1.88.539-.53 0-.96-.089-1.3-.267-.33-.178-.59-.386-.78-.625-.19-.238-.34-.45-.44-.636h-.1v4.631zm1.66-7.637c0 .614.09 1.152.27 1.614s.44.824.77 1.085c.34.258.75.387 1.24.387.51 0 .94-.135 1.28-.404.34-.273.59-.642.77-1.108s.27-.99.27-1.574c0-.575-.09-1.092-.27-1.551-.17-.458-.42-.82-.77-1.085-.34-.265-.77-.398-1.28-.398-.49 0-.91.127-1.25.381-.33.254-.59.608-.76 1.062-.18.455-.27.985-.27 1.591zm11.98 4.54c-.86 0-1.6-.184-2.23-.551-.61-.371-1.09-.892-1.43-1.563-.33-.674-.5-1.464-.5-2.369 0-.894.17-1.682.5-2.363.34-.682.81-1.214 1.41-1.597.61-.383 1.32-.574 2.13-.574.49 0 .97.082 1.43.244.46.163.88.419 1.24.767.37.349.66.802.87 1.358.21.553.32 1.226.32 2.017v.603h-6.94v-1.273h5.28c0-.447-.09-.843-.28-1.187-.18-.349-.43-.624-.76-.824-.33-.201-.71-.302-1.15-.302-.48 0-.9.118-1.25.353-.35.231-.63.534-.82.909-.19.371-.28.774-.28 1.21v.994c0 .584.1 1.08.3 1.489.21.409.5.722.87.938.37.212.81.318 1.3.318.33 0 .62-.046.88-.137.27-.094.5-.234.69-.42s.34-.415.44-.688l1.61.29c-.13.474-.36.888-.69 1.244-.33.353-.74.627-1.24.824-.5.194-1.07.29-1.7.29zm9.3 0c-.82 0-1.53-.187-2.14-.562s-1.08-.9-1.42-1.574-.51-1.462-.51-2.364c0-.905.17-1.697.51-2.375s.81-1.204 1.42-1.579 1.32-.563 2.14-.563 1.53.188 2.14.563 1.09.901 1.42 1.579c.34.678.51 1.47.51 2.375 0 .902-.17 1.69-.51 2.364-.33.674-.81 1.199-1.42 1.574s-1.32.562-2.14.562zm.01-1.426c.53 0 .97-.14 1.32-.42.34-.281.6-.654.77-1.12s.25-.979.25-1.54c0-.556-.08-1.068-.25-1.534-.17-.469-.43-.846-.77-1.13-.35-.284-.79-.426-1.32-.426-.54 0-.98.142-1.33.426s-.61.661-.78 1.13c-.17.466-.25.978-.25 1.534 0 .561.08 1.074.25 1.54s.43.839.78 1.12c.35.28.79.42 1.33.42zm5.96 4.523v-12h1.66v1.415h.14c.1-.182.24-.393.42-.631.19-.239.45-.447.78-.625.33-.182.76-.273 1.3-.273.71 0 1.34.178 1.89.534s.99.869 1.3 1.54c.32.67.48 1.477.48 2.42 0 .944-.16 1.752-.47 2.427-.32.67-.75 1.187-1.3 1.551-.55.36-1.18.539-1.88.539-.53 0-.96-.089-1.3-.267-.33-.178-.6-.386-.78-.625-.19-.238-.34-.45-.44-.636h-.1v4.631zm1.66-7.637c0 .614.09 1.152.27 1.614s.43.824.77 1.085c.34.258.75.387 1.24.387.51 0 .93-.135 1.27-.404.34-.273.6-.642.78-1.108.17-.466.26-.99.26-1.574 0-.575-.09-1.092-.26-1.551-.17-.458-.43-.82-.77-1.085s-.77-.398-1.28-.398c-.49 0-.91.127-1.25.381s-.59.608-.77 1.062c-.17.455-.26.985-.26 1.591zm9.91-7.272v11.636h-1.7v-11.636zm6.05 11.812c-.86 0-1.6-.184-2.22-.551-.62-.371-1.1-.892-1.44-1.563-.33-.674-.5-1.464-.5-2.369 0-.894.17-1.682.5-2.363.34-.682.81-1.214 1.41-1.597.61-.383 1.32-.574 2.13-.574.49 0 .97.082 1.43.244.46.163.88.419 1.24.767.37.349.66.802.87 1.358.22.553.32 1.226.32 2.017v.603h-6.94v-1.273h5.28c0-.447-.09-.843-.28-1.187-.18-.349-.43-.624-.76-.824-.33-.201-.71-.302-1.15-.302-.48 0-.89.118-1.25.353-.35.231-.63.534-.82.909-.19.371-.28.774-.28 1.21v.994c0 .584.1 1.08.3 1.489.21.409.5.722.87.938.37.212.81.318 1.3.318.33 0 .62-.046.88-.137.27-.094.5-.234.69-.42.2-.186.34-.415.45-.688l1.6.29c-.13.474-.36.888-.69 1.244-.33.353-.74.627-1.24.824-.5.194-1.07.29-1.7.29zm10.36-5.994c0-1.424.18-2.735.56-3.932.37-1.197.92-2.301 1.64-3.312h1.56c-.28.374-.55.835-.79 1.38-.24.546-.45 1.144-.63 1.796-.19.647-.33 1.32-.43 2.017-.1.693-.15 1.377-.15 2.051 0 .901.09 1.814.26 2.738.18.925.42 1.783.73 2.574.3.792.64 1.438 1.01 1.938h-1.56c-.72-1.012-1.27-2.116-1.64-3.313-.38-1.197-.56-2.509-.56-3.937zm9.37 5.977c-.72 0-1.36-.136-1.92-.409-.57-.277-1.02-.655-1.36-1.136-.33-.481-.51-1.031-.54-1.648h1.71c.04.5.26.911.66 1.233s.89.483 1.45.483c.44 0 .84-.102 1.18-.307.35-.208.62-.494.82-.858s.3-.778.3-1.244c0-.474-.1-.896-.3-1.267-.21-.372-.49-.663-.85-.875s-.77-.32-1.23-.324c-.35 0-.7.06-1.06.182-.36.121-.64.28-.86.477l-1.61-.239.65-5.863h6.4v1.505h-4.94l-.37 3.256h.07c.23-.22.53-.403.9-.551.38-.148.79-.222 1.22-.222.71 0 1.34.169 1.89.506.56.337 1 .797 1.31 1.381.33.579.49 1.246.48 2 .01.753-.17 1.426-.51 2.017s-.81 1.056-1.42 1.397c-.6.338-1.29.506-2.07.506zm10.53-12.341-3.75 13.932h-1.52l3.75-13.932zm5.84.546v11.636h-1.76v-9.875h-.07l-2.79 1.818v-1.682l2.91-1.897zm7.56 0v11.636h-1.76v-9.875h-.07l-2.78 1.818v-1.682l2.9-1.897zm8.31 5.079v1.477h-5.16v-1.477zm6.08 6.716c-.71 0-1.35-.136-1.92-.409-.56-.277-1.01-.655-1.35-1.136s-.52-1.031-.54-1.648h1.71c.04.5.26.911.66 1.233s.88.483 1.44.483c.45 0 .85-.102 1.19-.307.35-.208.62-.494.82-.858s.3-.778.3-1.244c0-.474-.1-.896-.31-1.267-.2-.372-.48-.663-.84-.875s-.77-.32-1.23-.324c-.35 0-.71.06-1.06.182-.36.121-.65.28-.87.477l-1.6-.239.65-5.863h6.4v1.505h-4.94l-.37 3.256h.07c.23-.22.53-.403.9-.551.38-.148.79-.222 1.22-.222.71 0 1.34.169 1.89.506.56.337.99.797 1.31 1.381.32.579.48 1.246.48 2 0 .753-.17 1.426-.51 2.017s-.82 1.056-1.42 1.397c-.6.338-1.3.506-2.08.506zm10.54-12.341-3.75 13.932h-1.52l3.75-13.932zm5.83.546v11.636h-1.76v-9.875h-.06l-2.79 1.818v-1.682l2.9-1.897zm7.08 11.795c-.81 0-1.53-.14-2.15-.42-.63-.281-1.11-.667-1.47-1.159-.35-.493-.52-1.053-.52-1.682 0-.493.1-.945.3-1.358.21-.417.49-.763.85-1.04.36-.28.75-.458 1.19-.534v-.068c-.58-.14-1.04-.451-1.39-.932s-.52-1.034-.52-1.659c0-.595.16-1.125.48-1.591.32-.47.76-.839 1.32-1.108s1.2-.403 1.91-.403 1.35.136 1.9.409c.56.269 1 .638 1.33 1.108.32.465.48.994.48 1.585 0 .625-.18 1.178-.53 1.659s-.81.792-1.37.932v.068c.43.076.82.254 1.17.534.35.277.63.623.84 1.04.21.413.32.865.33 1.358-.01.629-.19 1.189-.54 1.682-.35.492-.84.878-1.46 1.159-.62.28-1.34.42-2.15.42zm0-1.437c.49 0 .9-.08 1.25-.239.36-.163.63-.388.82-.676.2-.292.29-.633.3-1.023-.01-.405-.11-.763-.32-1.074-.2-.31-.48-.555-.84-.733-.35-.178-.75-.267-1.21-.267-.45 0-.86.089-1.22.267-.35.178-.63.423-.84.733-.2.311-.3.669-.3 1.074 0 .39.09.731.28 1.023.19.288.47.513.82.676.36.159.78.239 1.26.239zm0-5.415c.39 0 .73-.078 1.03-.233s.54-.371.71-.648c.17-.276.26-.6.26-.971 0-.364-.09-.682-.26-.955-.16-.273-.4-.483-.7-.631-.3-.151-.64-.227-1.04-.227s-.75.076-1.05.227c-.3.148-.53.358-.7.631s-.25.591-.25.955c0 .371.08.695.25.971.17.277.41.493.71.648s.65.233 1.04.233zm9.47.875c0 1.428-.19 2.74-.56 3.937-.38 1.197-.92 2.301-1.64 3.313h-1.56c.28-.375.54-.835.78-1.381.25-.545.46-1.142.64-1.79.18-.651.32-1.325.43-2.022.1-.697.15-1.383.15-2.057 0-.898-.09-1.809-.27-2.733-.17-.924-.42-1.782-.72-2.574s-.64-1.437-1.01-1.937h1.56c.72 1.011 1.26 2.115 1.64 3.312.37 1.197.56 2.508.56 3.932z" fill="#454545"/><path d="m164.201 503.455v14.545h-2.195v-14.545zm5.149 8.068v6.477h-2.124v-10.909h2.039v1.775h.135c.251-.577.644-1.041 1.179-1.392.539-.35 1.219-.525 2.038-.525.743 0 1.394.156 1.953.469.559.307.992.767 1.3 1.377.308.611.461 1.366.461 2.266v6.939h-2.123v-6.683c0-.791-.206-1.409-.618-1.854-.412-.45-.978-.675-1.697-.675-.493 0-.931.107-1.314.32-.379.213-.68.526-.902.937-.218.408-.327.9-.327 1.478zm14.922-4.432v1.704h-5.959v-1.704zm-4.361-2.614h2.124v10.32c0 .412.061.722.184.93.123.204.282.344.476.419.199.071.414.107.646.107.171 0 .32-.012.448-.036.128-.023.227-.042.298-.056l.384 1.754c-.123.047-.299.094-.526.142-.227.052-.511.08-.852.085-.559.01-1.08-.09-1.563-.298-.483-.209-.873-.531-1.172-.966-.298-.436-.447-.983-.447-1.641zm11.294 13.743c-1.074 0-2-.229-2.777-.689-.771-.464-1.368-1.115-1.789-1.953-.417-.843-.625-1.83-.625-2.962 0-1.117.208-2.102.625-2.954.421-.852 1.008-1.518 1.761-1.996.758-.478 1.643-.717 2.656-.717.616 0 1.212.102 1.79.305.578.204 1.096.523 1.555.959.46.436.822 1.001 1.087 1.698.265.691.398 1.531.398 2.521v.753h-8.672v-1.591h6.591c0-.559-.114-1.054-.341-1.485-.227-.435-.547-.779-.959-1.029-.407-.251-.885-.377-1.435-.377-.596 0-1.117.147-1.562.44-.44.289-.781.668-1.023 1.137-.236.464-.355.968-.355 1.513v1.243c0 .729.128 1.349.384 1.86.26.512.622.902 1.086 1.172.464.265 1.006.398 1.627.398.402 0 .769-.057 1.101-.171.331-.118.617-.293.859-.525.241-.232.426-.519.554-.859l2.01.362c-.161.592-.45 1.11-.867 1.555-.412.44-.93.784-1.555 1.03-.62.241-1.328.362-2.124.362zm7.037-.22v-10.909h2.053v1.733h.113c.199-.587.549-1.049 1.051-1.385.507-.341 1.08-.511 1.719-.511.133 0 .289.004.469.014.184.009.329.021.433.035v2.032c-.085-.024-.237-.05-.454-.079-.218-.033-.436-.049-.654-.049-.502 0-.949.106-1.342.319-.388.209-.696.5-.924.874-.227.369-.34.791-.34 1.264v6.662zm11.987.22c-1.075 0-2.001-.229-2.777-.689-.772-.464-1.368-1.115-1.79-1.953-.417-.843-.625-1.83-.625-2.962 0-1.117.208-2.102.625-2.954.422-.852 1.009-1.518 1.761-1.996.758-.478 1.643-.717 2.657-.717.615 0 1.212.102 1.789.305.578.204 1.097.523 1.556.959s.821 1.001 1.087 1.698c.265.691.397 1.531.397 2.521v.753h-8.672v-1.591h6.591c0-.559-.113-1.054-.341-1.485-.227-.435-.546-.779-.958-1.029-.408-.251-.886-.377-1.435-.377-.597 0-1.117.147-1.563.44-.44.289-.781.668-1.022 1.137-.237.464-.355.968-.355 1.513v1.243c0 .729.127 1.349.383 1.86.261.512.623.902 1.087 1.172.464.265 1.006.398 1.626.398.403 0 .77-.057 1.101-.171.331-.118.618-.293.859-.525.242-.232.427-.519.554-.859l2.01.362c-.161.592-.449 1.11-.866 1.555-.412.44-.931.784-1.556 1.03-.62.241-1.328.362-2.123.362zm15.211-8.466-1.925.341c-.08-.246-.208-.48-.383-.703-.171-.222-.403-.405-.696-.547-.294-.142-.661-.213-1.101-.213-.601 0-1.103.135-1.506.405-.402.265-.603.608-.603 1.03 0 .364.135.658.405.88.269.223.705.405 1.306.547l1.733.398c1.004.232 1.752.59 2.245 1.072.492.483.738 1.111.738 1.883 0 .653-.189 1.235-.568 1.747-.374.506-.897.904-1.57 1.193-.667.289-1.441.433-2.322.433-1.222 0-2.218-.26-2.99-.781-.772-.526-1.245-1.271-1.421-2.237l2.053-.313c.128.535.391.94.788 1.215.398.27.917.405 1.556.405.696 0 1.252-.145 1.669-.434.417-.293.625-.651.625-1.072 0-.341-.128-.628-.384-.86-.251-.232-.637-.407-1.157-.525l-1.847-.405c-1.018-.232-1.771-.601-2.258-1.108-.483-.507-.725-1.148-.725-1.925 0-.644.18-1.207.54-1.69s.857-.859 1.491-1.129c.635-.275 1.362-.412 2.181-.412 1.179 0 2.107.256 2.784.767.677.507 1.124 1.186 1.342 2.038zm7.64-2.663v1.704h-5.958v-1.704zm-4.36-2.614h2.123v10.32c0 .412.062.722.185.93.123.204.282.344.476.419.199.071.414.107.646.107.17 0 .32-.012.447-.036.128-.023.228-.042.299-.056l.383 1.754c-.123.047-.298.094-.525.142-.228.052-.512.08-.853.085-.558.01-1.079-.09-1.562-.298-.483-.209-.874-.531-1.172-.966-.298-.436-.447-.983-.447-1.641zm11.294 13.743c-1.075 0-2-.229-2.777-.689-.772-.464-1.368-1.115-1.79-1.953-.416-.843-.625-1.83-.625-2.962 0-1.117.209-2.102.625-2.954.422-.852 1.009-1.518 1.762-1.996.757-.478 1.643-.717 2.656-.717.615 0 1.212.102 1.79.305.577.204 1.096.523 1.555.959s.822 1.001 1.087 1.698c.265.691.397 1.531.397 2.521v.753h-8.671v-1.591h6.59c0-.559-.113-1.054-.34-1.485-.228-.435-.547-.779-.959-1.029-.407-.251-.886-.377-1.435-.377-.597 0-1.117.147-1.562.44-.441.289-.782.668-1.023 1.137-.237.464-.355.968-.355 1.513v1.243c0 .729.128 1.349.383 1.86.261.512.623.902 1.087 1.172.464.265 1.006.398 1.626.398.403 0 .77-.057 1.101-.171.332-.118.618-.293.86-.525.241-.232.426-.519.554-.859l2.009.362c-.161.592-.449 1.11-.866 1.555-.412.44-.93.784-1.555 1.03-.621.241-1.329.362-2.124.362zm11.12-.007c-.88 0-1.666-.225-2.358-.675-.686-.454-1.226-1.101-1.619-1.939-.388-.842-.582-1.853-.582-3.032s.196-2.188.589-3.026c.398-.838.942-1.479 1.634-1.925.691-.445 1.475-.667 2.351-.667.677 0 1.221.113 1.633.341.417.222.739.483.966.781.232.298.412.561.54.788h.128v-5.404h2.123v14.545h-2.074v-1.697h-.177c-.128.232-.313.497-.554.795-.237.298-.564.559-.98.781-.417.223-.957.334-1.62.334zm.469-1.811c.611 0 1.127-.161 1.548-.483.427-.327.749-.779.966-1.357.223-.577.334-1.25.334-2.017 0-.757-.109-1.42-.327-1.988-.217-.568-.537-1.011-.958-1.328-.422-.318-.943-.476-1.563-.476-.639 0-1.172.166-1.598.497s-.748.784-.966 1.357c-.213.572-.319 1.219-.319 1.938 0 .73.109 1.385.326 1.968.218.582.54 1.044.966 1.385.431.336.961.504 1.591.504zm13.26 1.598v-10.909h2.124v10.909zm1.073-12.592c-.37 0-.687-.123-.952-.37-.261-.251-.391-.549-.391-.895 0-.35.13-.648.391-.894.265-.251.582-.377.952-.377.369 0 .684.126.944.377.265.246.398.544.398.894 0 .346-.133.644-.398.895-.26.247-.575.37-.944.37zm6.031 6.115v6.477h-2.123v-10.909h2.038v1.775h.135c.251-.577.644-1.041 1.179-1.392.54-.35 1.219-.525 2.038-.525.744 0 1.395.156 1.953.469.559.307.992.767 1.3 1.377.308.611.462 1.366.462 2.266v6.939h-2.124v-6.683c0-.791-.206-1.409-.618-1.854-.412-.45-.978-.675-1.697-.675-.493 0-.931.107-1.314.32-.379.213-.68.526-.902.937-.218.408-.327.9-.327 1.478zm19.718 6.697c-1.023 0-1.915-.234-2.678-.703-.762-.469-1.354-1.124-1.775-1.967-.422-.843-.632-1.828-.632-2.955 0-1.131.21-2.121.632-2.969.421-.847 1.013-1.505 1.775-1.974.763-.469 1.655-.703 2.678-.703s1.915.234 2.677.703c.763.469 1.355 1.127 1.776 1.974.421.848.632 1.838.632 2.969 0 1.127-.211 2.112-.632 2.955s-1.013 1.498-1.776 1.967c-.762.469-1.654.703-2.677.703zm.007-1.782c.663 0 1.212-.176 1.648-.526.435-.35.757-.817.966-1.399.213-.583.319-1.224.319-1.925 0-.696-.106-1.335-.319-1.918-.209-.587-.531-1.058-.966-1.413-.436-.355-.985-.533-1.648-.533-.668 0-1.222.178-1.662.533-.436.355-.76.826-.973 1.413-.208.583-.313 1.222-.313 1.918 0 .701.105 1.342.313 1.925.213.582.537 1.049.973 1.399.44.35.994.526 1.662.526zm14.359-2.962v-6.385h2.131v10.909h-2.088v-1.889h-.114c-.251.582-.653 1.068-1.207 1.456-.55.383-1.234.575-2.053.575-.701 0-1.321-.154-1.861-.462-.535-.312-.956-.774-1.264-1.385-.303-.61-.455-1.366-.455-2.265v-6.939h2.124v6.683c0 .744.206 1.335.618 1.776.412.44.947.66 1.605.66.398 0 .793-.099 1.186-.298.398-.199.727-.5.987-.902.265-.403.396-.914.391-1.534zm4.984 4.524v-10.909h2.053v1.733h.113c.199-.587.549-1.049 1.051-1.385.507-.341 1.08-.511 1.719-.511.133 0 .289.004.469.014.184.009.329.021.433.035v2.032c-.085-.024-.237-.05-.454-.079-.218-.033-.436-.049-.654-.049-.502 0-.949.106-1.342.319-.388.209-.696.5-.924.874-.227.369-.34.791-.34 1.264v6.662zm15.334 0-3.21-10.909h2.194l2.138 8.011h.106l2.145-8.011h2.195l2.131 7.976h.106l2.124-7.976h2.194l-3.203 10.909h-2.166l-2.216-7.876h-.163l-2.216 7.876zm18.508.22c-1.075 0-2-.229-2.777-.689-.771-.464-1.368-1.115-1.789-1.953-.417-.843-.625-1.83-.625-2.962 0-1.117.208-2.102.625-2.954.421-.852 1.008-1.518 1.761-1.996.757-.478 1.643-.717 2.656-.717.616 0 1.212.102 1.79.305.578.204 1.096.523 1.555.959.46.436.822 1.001 1.087 1.698.265.691.398 1.531.398 2.521v.753h-8.672v-1.591h6.591c0-.559-.114-1.054-.341-1.485-.227-.435-.547-.779-.959-1.029-.407-.251-.885-.377-1.435-.377-.596 0-1.117.147-1.562.44-.44.289-.781.668-1.023 1.137-.237.464-.355.968-.355 1.513v1.243c0 .729.128 1.349.384 1.86.26.512.622.902 1.086 1.172.464.265 1.006.398 1.627.398.402 0 .769-.057 1.1-.171.332-.118.618-.293.86-.525.241-.232.426-.519.554-.859l2.01.362c-.161.592-.45 1.11-.867 1.555-.412.44-.93.784-1.555 1.03-.62.241-1.328.362-2.124.362zm7.207-.22v-14.545h2.124v5.404h.128c.123-.227.3-.49.532-.788s.554-.559.966-.781c.412-.228.957-.341 1.634-.341.881 0 1.667.222 2.358.667.691.446 1.233 1.087 1.626 1.925.398.838.597 1.847.597 3.026s-.197 2.19-.59 3.032c-.393.838-.932 1.485-1.619 1.939-.687.45-1.47.675-2.351.675-.663 0-1.205-.111-1.626-.334-.417-.222-.744-.483-.98-.781-.237-.298-.419-.563-.547-.795h-.178v1.697zm2.081-5.455c0 .767.112 1.44.334 2.017.223.578.545 1.03.966 1.357.421.322.938.483 1.548.483.635 0 1.165-.168 1.591-.504.426-.341.748-.803.966-1.385.223-.583.334-1.238.334-1.968 0-.719-.109-1.366-.327-1.938-.213-.573-.535-1.026-.966-1.357-.426-.331-.958-.497-1.598-.497-.615 0-1.136.158-1.562.476-.422.317-.741.76-.959 1.328s-.327 1.231-.327 1.988zm18.443-2.791-1.925.341c-.08-.246-.208-.48-.383-.703-.171-.222-.403-.405-.696-.547-.294-.142-.661-.213-1.101-.213-.601 0-1.103.135-1.506.405-.402.265-.603.608-.603 1.03 0 .364.135.658.404.88.27.223.706.405 1.307.547l1.733.398c1.004.232 1.752.59 2.245 1.072.492.483.738 1.111.738 1.883 0 .653-.189 1.235-.568 1.747-.374.506-.897.904-1.57 1.193-.667.289-1.441.433-2.322.433-1.222 0-2.218-.26-2.99-.781-.772-.526-1.245-1.271-1.421-2.237l2.053-.313c.128.535.391.94.788 1.215.398.27.917.405 1.556.405.696 0 1.252-.145 1.669-.434.416-.293.625-.651.625-1.072 0-.341-.128-.628-.384-.86-.251-.232-.637-.407-1.157-.525l-1.847-.405c-1.018-.232-1.771-.601-2.259-1.108-.482-.507-.724-1.148-.724-1.925 0-.644.18-1.207.54-1.69s.857-.859 1.491-1.129c.635-.275 1.362-.412 2.181-.412 1.179 0 2.107.256 2.784.767.677.507 1.124 1.186 1.342 2.038zm2.548 8.246v-10.909h2.124v10.909zm1.073-12.592c-.37 0-.687-.123-.952-.37-.261-.251-.391-.549-.391-.895 0-.35.13-.648.391-.894.265-.251.582-.377.952-.377.369 0 .684.126.944.377.265.246.398.544.398.894 0 .346-.133.644-.398.895-.26.247-.575.37-.944.37zm9 1.683v1.704h-5.959v-1.704zm-4.361-2.614h2.124v10.32c0 .412.061.722.184.93.123.204.282.344.476.419.199.071.414.107.646.107.171 0 .32-.012.448-.036.128-.023.227-.042.298-.056l.384 1.754c-.123.047-.299.094-.526.142-.227.052-.511.08-.852.085-.559.01-1.08-.09-1.563-.298-.483-.209-.873-.531-1.171-.966-.299-.436-.448-.983-.448-1.641zm11.294 13.743c-1.074 0-2-.229-2.777-.689-.771-.464-1.368-1.115-1.789-1.953-.417-.843-.625-1.83-.625-2.962 0-1.117.208-2.102.625-2.954.421-.852 1.008-1.518 1.761-1.996.758-.478 1.643-.717 2.656-.717.616 0 1.212.102 1.79.305.578.204 1.096.523 1.555.959.46.436.822 1.001 1.087 1.698.265.691.398 1.531.398 2.521v.753h-8.672v-1.591h6.591c0-.559-.114-1.054-.341-1.485-.227-.435-.547-.779-.959-1.029-.407-.251-.885-.377-1.434-.377-.597 0-1.118.147-1.563.44-.44.289-.781.668-1.023 1.137-.236.464-.355.968-.355 1.513v1.243c0 .729.128 1.349.384 1.86.26.512.622.902 1.086 1.172.464.265 1.007.398 1.627.398.402 0 .769-.057 1.101-.171.331-.118.618-.293.859-.525s.426-.519.554-.859l2.01.362c-.161.592-.45 1.11-.867 1.555-.411.44-.93.784-1.555 1.03-.62.241-1.328.362-2.124.362zm9.8-2.209-.107.775c-.071.568-.191 1.16-.362 1.775-.166.62-.338 1.196-.518 1.726-.176.53-.32.952-.434 1.264h-1.505c.061-.293.146-.691.255-1.193.109-.497.216-1.054.32-1.669.104-.616.182-1.243.234-1.882l.071-.796zm-215.135 26.23c-.691 0-1.316-.127-1.875-.383-.559-.26-1.002-.637-1.328-1.129-.322-.493-.483-1.096-.483-1.811 0-.616.118-1.123.355-1.52.237-.398.556-.713.959-.945.402-.232.852-.407 1.349-.525.497-.119 1.004-.209 1.52-.27.653-.076 1.184-.138 1.591-.185.407-.052.703-.135.888-.249.184-.113.277-.298.277-.554v-.049c0-.621-.175-1.101-.526-1.442-.345-.341-.862-.511-1.548-.511-.715 0-1.279.158-1.69.475-.408.313-.689.661-.846 1.045l-1.995-.455c.236-.663.582-1.198 1.037-1.605.459-.412.987-.71 1.583-.895.597-.189 1.224-.284 1.882-.284.436 0 .898.052 1.385.156.493.1.952.284 1.378.554.431.27.784.656 1.058 1.158.275.497.412 1.143.412 1.939v7.244h-2.073v-1.491h-.086c-.137.274-.343.544-.618.809-.274.265-.627.486-1.058.661s-.947.262-1.548.262zm.462-1.704c.587 0 1.089-.116 1.505-.348.422-.232.741-.535.959-.909.223-.379.334-.784.334-1.215v-1.406c-.076.076-.223.147-.441.213-.213.062-.456.116-.731.164-.275.042-.542.082-.803.12-.26.033-.478.062-.653.085-.412.053-.788.14-1.129.263-.336.123-.606.301-.81.533-.199.227-.298.53-.298.909 0 .526.194.923.582 1.193.388.265.883.398 1.485.398zm9.873-5.014v6.477h-2.123v-10.909h2.038v1.775h.135c.251-.577.644-1.041 1.179-1.392.54-.35 1.219-.525 2.039-.525.743 0 1.394.156 1.953.469.558.307.992.767 1.299 1.377.308.611.462 1.366.462 2.266v6.939h-2.124v-6.683c0-.791-.206-1.409-.617-1.854-.412-.45-.978-.675-1.698-.675-.492 0-.93.107-1.314.32-.379.213-.679.526-.902.937-.218.408-.327.9-.327 1.478zm13.914 6.69c-.881 0-1.667-.225-2.358-.675-.687-.454-1.226-1.101-1.619-1.939-.389-.842-.583-1.853-.583-3.032s.197-2.188.59-3.026c.397-.838.942-1.479 1.633-1.925.691-.445 1.475-.667 2.351-.667.677 0 1.222.113 1.634.341.416.222.738.483.965.781.232.298.412.561.54.788h.128v-5.404h2.124v14.545h-2.074v-1.697h-.178c-.128.232-.312.497-.554.795-.236.298-.563.559-.98.781-.417.223-.956.334-1.619.334zm.469-1.811c.61 0 1.126-.161 1.548-.483.426-.327.748-.779.966-1.357.222-.577.334-1.25.334-2.017 0-.757-.109-1.42-.327-1.988s-.538-1.011-.959-1.328c-.421-.318-.942-.476-1.562-.476-.64 0-1.172.166-1.598.497-.427.331-.749.784-.966 1.357-.213.572-.32 1.219-.32 1.938 0 .73.109 1.385.327 1.968.218.582.54 1.044.966 1.385.431.336.961.504 1.591.504zm18.451-9.311v1.704h-6.165v-1.704zm-4.474 10.909v-12.173c0-.682.149-1.248.447-1.698.299-.454.694-.793 1.186-1.015.493-.228 1.028-.341 1.605-.341.427 0 .791.035 1.094.106.303.067.528.128.675.185l-.497 1.719c-.1-.029-.227-.062-.384-.1-.156-.042-.345-.064-.568-.064-.516 0-.885.128-1.108.384-.218.256-.327.625-.327 1.108v11.889zm6.665 0v-10.909h2.124v10.909zm1.073-12.592c-.37 0-.687-.123-.952-.37-.26-.251-.391-.549-.391-.895 0-.35.131-.648.391-.894.265-.251.582-.377.952-.377.369 0 .684.126.944.377.266.246.398.544.398.894 0 .346-.132.644-.398.895-.26.247-.575.37-.944.37zm6.031 6.115v6.477h-2.123v-10.909h2.038v1.775h.135c.251-.577.644-1.041 1.179-1.392.54-.35 1.219-.525 2.038-.525.744 0 1.395.156 1.954.469.558.307.991.767 1.299 1.377.308.611.462 1.366.462 2.266v6.939h-2.124v-6.683c0-.791-.206-1.409-.618-1.854-.412-.45-.977-.675-1.697-.675-.492 0-.93.107-1.314.32-.379.213-.679.526-.902.937-.218.408-.327.9-.327 1.478zm9.83 6.477v-10.909h2.123v10.909zm1.072-12.592c-.369 0-.686-.123-.951-.37-.261-.251-.391-.549-.391-.895 0-.35.13-.648.391-.894.265-.251.582-.377.951-.377.37 0 .685.126.945.377.265.246.398.544.398.894 0 .346-.133.644-.398.895-.26.247-.575.37-.945.37zm12.083 4.346-1.925.341c-.08-.246-.208-.48-.383-.703-.171-.222-.403-.405-.696-.547-.294-.142-.661-.213-1.101-.213-.601 0-1.103.135-1.506.405-.402.265-.603.608-.603 1.03 0 .364.135.658.404.88.27.223.706.405 1.307.547l1.733.398c1.004.232 1.752.59 2.245 1.072.492.483.738 1.111.738 1.883 0 .653-.189 1.235-.568 1.747-.374.506-.897.904-1.57 1.193-.667.289-1.441.433-2.322.433-1.222 0-2.218-.26-2.99-.781-.772-.526-1.245-1.271-1.421-2.237l2.053-.313c.128.535.391.94.788 1.215.398.27.917.405 1.556.405.696 0 1.252-.145 1.669-.434.416-.293.625-.651.625-1.072 0-.341-.128-.628-.384-.86-.251-.232-.637-.407-1.157-.525l-1.847-.405c-1.018-.232-1.771-.601-2.259-1.108-.482-.507-.724-1.148-.724-1.925 0-.644.18-1.207.54-1.69s.857-.859 1.491-1.129c.635-.275 1.362-.412 2.181-.412 1.179 0 2.107.256 2.784.767.677.507 1.124 1.186 1.342 2.038zm4.672 1.769v6.477h-2.124v-14.545h2.095v5.411h.135c.256-.587.646-1.053 1.172-1.399.526-.345 1.212-.518 2.06-.518.748 0 1.401.154 1.96.462.563.307.999.767 1.307 1.377.312.606.468 1.364.468 2.273v6.939h-2.123v-6.683c0-.8-.206-1.421-.618-1.861-.412-.445-.985-.668-1.719-.668-.502 0-.951.107-1.349.32-.393.213-.703.526-.931.937-.222.408-.333.9-.333 1.478zm20.293-4.432v1.704h-5.959v-1.704zm-4.361-2.614h2.123v10.32c0 .412.062.722.185.93.123.204.282.344.476.419.199.071.414.107.646.107.171 0 .32-.012.448-.036.127-.023.227-.042.298-.056l.383 1.754c-.123.047-.298.094-.525.142-.227.052-.511.08-.852.085-.559.01-1.08-.09-1.563-.298-.483-.209-.873-.531-1.172-.966-.298-.436-.447-.983-.447-1.641zm9.068 7.046v6.477h-2.124v-14.545h2.095v5.411h.135c.256-.587.646-1.053 1.172-1.399.526-.345 1.212-.518 2.06-.518.748 0 1.401.154 1.96.462.563.307.999.767 1.307 1.377.312.606.468 1.364.468 2.273v6.939h-2.123v-6.683c0-.8-.206-1.421-.618-1.861-.412-.445-.985-.668-1.719-.668-.502 0-.951.107-1.349.32-.393.213-.703.526-.931.937-.222.408-.333.9-.333 1.478zm14.609 6.697c-1.075 0-2-.229-2.777-.689-.772-.464-1.368-1.115-1.79-1.953-.416-.843-.625-1.83-.625-2.962 0-1.117.209-2.102.625-2.954.422-.852 1.009-1.518 1.762-1.996.757-.478 1.643-.717 2.656-.717.615 0 1.212.102 1.79.305.577.204 1.096.523 1.555.959s.822 1.001 1.087 1.698c.265.691.397 1.531.397 2.521v.753h-8.671v-1.591h6.59c0-.559-.113-1.054-.34-1.485-.228-.435-.547-.779-.959-1.029-.407-.251-.886-.377-1.435-.377-.597 0-1.117.147-1.562.44-.441.289-.782.668-1.023 1.137-.237.464-.355.968-.355 1.513v1.243c0 .729.128 1.349.383 1.86.261.512.623.902 1.087 1.172.464.265 1.006.398 1.626.398.403 0 .77-.057 1.101-.171.332-.118.618-.293.86-.525.241-.232.426-.519.554-.859l2.009.362c-.161.592-.449 1.11-.866 1.555-.412.44-.93.784-1.555 1.03-.621.241-1.329.362-2.124.362zm20.504-8.466-1.924.341c-.081-.246-.209-.48-.384-.703-.17-.222-.402-.405-.696-.547s-.661-.213-1.101-.213c-.601 0-1.103.135-1.506.405-.402.265-.603.608-.603 1.03 0 .364.135.658.405.88.269.223.705.405 1.306.547l1.733.398c1.004.232 1.752.59 2.245 1.072.492.483.738 1.111.738 1.883 0 .653-.189 1.235-.568 1.747-.374.506-.897.904-1.569 1.193-.668.289-1.442.433-2.323.433-1.221 0-2.218-.26-2.99-.781-.772-.526-1.245-1.271-1.42-2.237l2.052-.313c.128.535.391.94.788 1.215.398.27.917.405 1.556.405.696 0 1.252-.145 1.669-.434.417-.293.625-.651.625-1.072 0-.341-.128-.628-.384-.86-.251-.232-.636-.407-1.157-.525l-1.847-.405c-1.018-.232-1.771-.601-2.258-1.108-.483-.507-.725-1.148-.725-1.925 0-.644.18-1.207.54-1.69s.857-.859 1.491-1.129c.635-.275 1.362-.412 2.181-.412 1.179 0 2.107.256 2.784.767.677.507 1.124 1.186 1.342 2.038zm9.459 3.722v-6.385h2.13v10.909h-2.088v-1.889h-.113c-.251.582-.654 1.068-1.208 1.456-.549.383-1.233.575-2.052.575-.701 0-1.321-.154-1.861-.462-.535-.312-.956-.774-1.264-1.385-.303-.61-.455-1.366-.455-2.265v-6.939h2.124v6.683c0 .744.206 1.335.618 1.776.412.44.947.66 1.605.66.398 0 .793-.099 1.186-.298.398-.199.727-.5.987-.902.265-.403.395-.914.391-1.534zm4.984 4.524v-10.909h2.052v1.733h.114c.199-.587.549-1.049 1.051-1.385.507-.341 1.08-.511 1.719-.511.132 0 .289.004.469.014.184.009.329.021.433.035v2.032c-.085-.024-.237-.05-.455-.079-.218-.033-.435-.049-.653-.049-.502 0-.949.106-1.342.319-.389.209-.697.5-.924.874-.227.369-.341.791-.341 1.264v6.662zm17.34-10.909-3.956 10.909h-2.273l-3.963-10.909h2.28l2.763 8.395h.113l2.756-8.395zm6.326 11.129c-1.075 0-2-.229-2.777-.689-.771-.464-1.368-1.115-1.789-1.953-.417-.843-.625-1.83-.625-2.962 0-1.117.208-2.102.625-2.954.421-.852 1.008-1.518 1.761-1.996.757-.478 1.643-.717 2.656-.717.616 0 1.212.102 1.79.305.578.204 1.096.523 1.555.959.46.436.822 1.001 1.087 1.698.265.691.398 1.531.398 2.521v.753h-8.672v-1.591h6.591c0-.559-.114-1.054-.341-1.485-.227-.435-.547-.779-.959-1.029-.407-.251-.885-.377-1.435-.377-.596 0-1.117.147-1.562.44-.441.289-.781.668-1.023 1.137-.237.464-.355.968-.355 1.513v1.243c0 .729.128 1.349.384 1.86.26.512.622.902 1.086 1.172.464.265 1.006.398 1.627.398.402 0 .769-.057 1.1-.171.332-.118.618-.293.86-.525.241-.232.426-.519.554-.859l2.01.362c-.161.592-.45 1.11-.867 1.555-.412.44-.93.784-1.555 1.03-.62.241-1.328.362-2.124.362zm8.067 3.871c-.318 0-.606-.026-.867-.078-.26-.048-.454-.1-.582-.156l.511-1.741c.388.105.734.15 1.037.135.303-.014.571-.127.803-.34.236-.214.445-.562.625-1.045l.262-.724-3.991-11.051h2.273l2.762 8.466h.114l2.763-8.466h2.28l-4.496 12.365c-.208.568-.473 1.049-.795 1.442-.322.397-.706.696-1.151.895-.445.198-.961.298-1.548.298zm10.701-3.956c-.388 0-.722-.137-1.001-.412-.28-.279-.419-.616-.419-1.009 0-.388.139-.719.419-.994.279-.279.613-.419 1.001-.419s.722.14 1.001.419c.28.275.419.606.419.994 0 .261-.066.5-.198.718-.128.213-.299.383-.512.511s-.45.192-.71.192z" fill="#000"/><path d="m211.099 402.455v46.545h-8.431v-38.341h-.273l-10.886 6.955v-7.728l11.568-7.431zm28 47.181c-3.03 0-5.742-.568-8.136-1.704-2.394-1.152-4.295-2.727-5.704-4.727-1.394-2-2.137-4.288-2.228-6.864h8.182c.152 1.909.977 3.47 2.477 4.682 1.5 1.197 3.303 1.795 5.409 1.795 1.652 0 3.122-.379 4.41-1.136 1.287-.758 2.303-1.811 3.045-3.159.742-1.349 1.106-2.887 1.091-4.614.015-1.757-.356-3.318-1.114-4.682-.757-1.363-1.795-2.432-3.113-3.204-1.319-.788-2.834-1.182-4.546-1.182-1.394-.015-2.765.242-4.113.773-1.349.53-2.417 1.227-3.205 2.091l-7.614-1.25 2.432-24h27v7.045h-20.023l-1.34 12.341h.272c.864-1.015 2.084-1.856 3.659-2.523 1.576-.682 3.303-1.023 5.182-1.023 2.818 0 5.333.667 7.546 2 2.212 1.319 3.954 3.137 5.227 5.455s1.909 4.97 1.909 7.955c0 3.075-.712 5.818-2.136 8.227-1.409 2.394-3.372 4.28-5.887 5.659-2.5 1.364-5.394 2.045-8.682 2.045zm41.023 0c-3.273 0-6.182-.56-8.727-1.681-2.53-1.122-4.53-2.682-6-4.682s-2.25-4.311-2.341-6.932h8.545c.076 1.257.493 2.356 1.25 3.295.758.925 1.766 1.644 3.023 2.159 1.258.516 2.667.773 4.227.773 1.667 0 3.144-.288 4.432-.863 1.288-.591 2.296-1.41 3.023-2.455s1.083-2.25 1.068-3.614c.015-1.409-.348-2.651-1.091-3.727-.742-1.076-1.818-1.917-3.227-2.523-1.394-.606-3.076-.909-5.045-.909h-4.114v-6.5h4.114c1.621 0 3.037-.28 4.25-.841 1.227-.56 2.189-1.348 2.886-2.363.697-1.031 1.038-2.22 1.023-3.568.015-1.319-.281-2.463-.887-3.432-.591-.985-1.432-1.75-2.522-2.296-1.076-.545-2.341-.818-3.796-.818-1.424 0-2.742.258-3.954.773-1.213.515-2.19 1.25-2.932 2.204-.743.94-1.137 2.061-1.182 3.364h-8.114c.061-2.606.811-4.894 2.25-6.864 1.455-1.984 3.394-3.53 5.818-4.636 2.425-1.121 5.144-1.682 8.16-1.682 3.106 0 5.803.584 8.09 1.75 2.303 1.152 4.084 2.705 5.341 4.659 1.258 1.955 1.887 4.114 1.887 6.478.015 2.621-.758 4.818-2.318 6.59-1.546 1.773-3.576 2.932-6.091 3.478v.363c3.272.455 5.78 1.667 7.522 3.637 1.758 1.954 2.629 4.386 2.614 7.295 0 2.606-.742 4.94-2.227 7-1.47 2.046-3.5 3.652-6.091 4.818-2.576 1.167-5.531 1.75-8.864 1.75z" fill="#4977ea"/><path d="m314.83 453.091v-15h2.074v1.768h.177c.123-.227.301-.49.533-.788s.554-.559.966-.781c.412-.228.956-.341 1.633-.341.881 0 1.667.222 2.358.667.692.446 1.234 1.087 1.627 1.925.398.838.596 1.847.596 3.026s-.196 2.19-.589 3.032c-.393.838-.933 1.485-1.619 1.939-.687.45-1.471.675-2.351.675-.663 0-1.205-.111-1.627-.334-.416-.222-.743-.483-.98-.781s-.419-.563-.547-.795h-.128v5.788zm2.081-9.546c0 .767.111 1.44.334 2.017.222.578.544 1.03.966 1.357.421.322.937.483 1.548.483.634 0 1.165-.168 1.591-.504.426-.341.748-.803.966-1.385.222-.583.334-1.238.334-1.968 0-.719-.109-1.366-.327-1.938-.213-.573-.535-1.026-.966-1.357-.426-.331-.959-.497-1.598-.497-.616 0-1.136.158-1.563.476-.421.317-.741.76-.958 1.328-.218.568-.327 1.231-.327 1.988zm14.964 5.675c-1.074 0-2-.229-2.777-.689-.771-.464-1.368-1.115-1.789-1.953-.417-.843-.625-1.83-.625-2.962 0-1.117.208-2.102.625-2.954.421-.852 1.008-1.518 1.761-1.996.758-.478 1.643-.717 2.656-.717.616 0 1.212.102 1.79.305.578.204 1.096.523 1.555.959.46.436.822 1.001 1.087 1.698.265.691.398 1.531.398 2.521v.753h-8.672v-1.591h6.591c0-.559-.114-1.054-.341-1.485-.227-.435-.547-.779-.959-1.029-.407-.251-.885-.377-1.435-.377-.596 0-1.117.147-1.562.44-.44.289-.781.668-1.023 1.137-.237.464-.355.968-.355 1.513v1.243c0 .729.128 1.349.384 1.86.26.512.622.902 1.086 1.172.464.265 1.006.398 1.627.398.402 0 .769-.057 1.101-.171.331-.118.617-.293.859-.525.241-.232.426-.519.554-.859l2.01.362c-.161.592-.45 1.11-.867 1.555-.412.44-.93.784-1.555 1.03-.62.241-1.328.362-2.124.362zm11.632 0c-1.023 0-1.915-.234-2.677-.703-.763-.469-1.355-1.124-1.776-1.967s-.632-1.828-.632-2.955c0-1.131.211-2.121.632-2.969.421-.847 1.013-1.505 1.776-1.974.762-.469 1.654-.703 2.677-.703s1.915.234 2.678.703c.762.469 1.354 1.127 1.775 1.974.422.848.632 1.838.632 2.969 0 1.127-.21 2.112-.632 2.955-.421.843-1.013 1.498-1.775 1.967-.763.469-1.655.703-2.678.703zm.007-1.782c.663 0 1.212-.176 1.648-.526s.758-.817.966-1.399c.213-.583.319-1.224.319-1.925 0-.696-.106-1.335-.319-1.918-.208-.587-.53-1.058-.966-1.413s-.985-.533-1.648-.533c-.667 0-1.221.178-1.662.533-.435.355-.76.826-.973 1.413-.208.583-.312 1.222-.312 1.918 0 .701.104 1.342.312 1.925.213.582.538 1.049.973 1.399.441.35.995.526 1.662.526zm7.449 5.653v-15h2.074v1.768h.177c.123-.227.301-.49.533-.788s.554-.559.966-.781c.412-.228.956-.341 1.633-.341.881 0 1.667.222 2.358.667.691.446 1.234 1.087 1.627 1.925.397.838.596 1.847.596 3.026s-.196 2.19-.589 3.032c-.393.838-.933 1.485-1.62 1.939-.686.45-1.47.675-2.35.675-.663 0-1.205-.111-1.627-.334-.417-.222-.743-.483-.98-.781s-.419-.563-.547-.795h-.128v5.788zm2.081-9.546c0 .767.111 1.44.333 2.017.223.578.545 1.03.966 1.357.422.322.938.483 1.549.483.634 0 1.164-.168 1.591-.504.426-.341.748-.803.966-1.385.222-.583.333-1.238.333-1.968 0-.719-.109-1.366-.326-1.938-.213-.573-.535-1.026-.966-1.357-.426-.331-.959-.497-1.598-.497-.616 0-1.137.158-1.563.476-.421.317-.741.76-.959 1.328-.217.568-.326 1.231-.326 1.988zm12.386-9.09v14.545h-2.124v-14.545zm7.559 14.765c-1.075 0-2.001-.229-2.777-.689-.772-.464-1.369-1.115-1.79-1.953-.417-.843-.625-1.83-.625-2.962 0-1.117.208-2.102.625-2.954.421-.852 1.008-1.518 1.761-1.996.758-.478 1.643-.717 2.656-.717.616 0 1.213.102 1.79.305.578.204 1.096.523 1.556.959.459.436.821 1.001 1.086 1.698.265.691.398 1.531.398 2.521v.753h-8.672v-1.591h6.591c0-.559-.114-1.054-.341-1.485-.227-.435-.547-.779-.959-1.029-.407-.251-.885-.377-1.434-.377-.597 0-1.118.147-1.563.44-.44.289-.781.668-1.023 1.137-.236.464-.355.968-.355 1.513v1.243c0 .729.128 1.349.384 1.86.26.512.623.902 1.087 1.172.464.265 1.006.398 1.626.398.402 0 .769-.057 1.101-.171.331-.118.618-.293.859-.525.242-.232.426-.519.554-.859l2.01.362c-.161.592-.45 1.11-.866 1.555-.412.44-.931.784-1.556 1.03-.62.241-1.328.362-2.123.362z" fill="#000"/><path d="m626.318 402.455v46.545h-8.432v-38.341h-.272l-10.887 6.955v-7.728l11.568-7.431zm30.75 0v46.545h-8.432v-38.341h-.272l-10.887 6.955v-7.728l11.568-7.431zm36.705 37.818v-2.455c0-1.803.379-3.462 1.136-4.977.773-1.515 1.894-2.735 3.364-3.659 1.469-.924 3.25-1.387 5.341-1.387 2.151 0 3.954.463 5.409 1.387 1.454.909 2.553 2.121 3.295 3.636.758 1.515 1.137 3.182 1.137 5v2.455c0 1.803-.379 3.462-1.137 4.977-.757 1.515-1.871 2.735-3.341 3.659-1.454.924-3.242 1.386-5.363 1.386-2.122 0-3.917-.462-5.387-1.386-1.469-.924-2.583-2.144-3.341-3.659-.742-1.515-1.113-3.174-1.113-4.977zm5.932-2.455v2.455c0 1.197.287 2.295.863 3.295s1.591 1.5 3.046 1.5c1.469 0 2.477-.492 3.022-1.477.561-1 .841-2.106.841-3.318v-2.455c0-1.212-.265-2.318-.795-3.318-.53-1.015-1.553-1.523-3.068-1.523-1.425 0-2.432.508-3.023 1.523-.591 1-.886 2.106-.886 3.318zm-29.591-24.182v-2.454c0-1.818.386-3.485 1.159-5 .772-1.515 1.894-2.727 3.363-3.637 1.47-.924 3.25-1.386 5.341-1.386 2.137 0 3.932.462 5.387 1.386 1.469.91 2.575 2.122 3.318 3.637.742 1.515 1.113 3.182 1.113 5v2.454c0 1.819-.378 3.485-1.136 5-.742 1.5-1.848 2.705-3.318 3.614s-3.258 1.364-5.364 1.364c-2.136 0-3.939-.455-5.409-1.364-1.454-.909-2.56-2.121-3.318-3.636-.758-1.516-1.136-3.175-1.136-4.978zm5.977-2.454v2.454c0 1.212.28 2.319.841 3.319.576.984 1.591 1.477 3.045 1.477 1.455 0 2.455-.493 3-1.477.561-1 .841-2.107.841-3.319v-2.454c0-1.212-.265-2.318-.795-3.318-.531-1.016-1.546-1.523-3.046-1.523-1.439 0-2.447.507-3.022 1.523-.576 1.015-.864 2.121-.864 3.318zm-3.386 37.818 32-46.545h5.681l-32 46.545z" fill="#4977ea"/><path d="m745.461 444.476v-6.385h2.131v10.909h-2.088v-1.889h-.114c-.251.582-.653 1.068-1.207 1.456-.55.383-1.234.575-2.053.575-.701 0-1.321-.154-1.861-.462-.535-.312-.956-.774-1.264-1.385-.303-.61-.454-1.366-.454-2.265v-6.939h2.123v6.683c0 .744.206 1.335.618 1.776.412.44.947.66 1.605.66.398 0 .793-.099 1.186-.298.398-.199.727-.5.987-.902.266-.403.396-.914.391-1.534zm13.159-3.722-1.925.341c-.08-.246-.208-.48-.383-.703-.171-.222-.403-.405-.696-.547-.294-.142-.661-.213-1.101-.213-.602 0-1.103.135-1.506.405-.402.265-.604.608-.604 1.03 0 .364.135.658.405.88.27.223.706.405 1.307.547l1.733.398c1.004.232 1.752.59 2.244 1.072.493.483.739 1.111.739 1.883 0 .653-.189 1.235-.568 1.747-.374.506-.898.904-1.57 1.193-.667.289-1.442.433-2.322.433-1.222 0-2.219-.26-2.99-.781-.772-.526-1.246-1.271-1.421-2.237l2.053-.313c.128.535.39.94.788 1.215.398.27.916.405 1.555.405.697 0 1.253-.145 1.67-.434.416-.293.625-.651.625-1.072 0-.341-.128-.628-.384-.86-.251-.232-.637-.407-1.158-.525l-1.846-.405c-1.018-.232-1.771-.601-2.259-1.108-.483-.507-.724-1.148-.724-1.925 0-.644.18-1.207.54-1.69.359-.483.857-.859 1.491-1.129.635-.275 1.361-.412 2.18-.412 1.179 0 2.107.256 2.785.767.677.507 1.124 1.186 1.342 2.038zm7.249 8.466c-1.074 0-2-.229-2.776-.689-.772-.464-1.369-1.115-1.79-1.953-.417-.843-.625-1.83-.625-2.962 0-1.117.208-2.102.625-2.954.421-.852 1.008-1.518 1.761-1.996.758-.478 1.643-.717 2.656-.717.616 0 1.212.102 1.79.305.578.204 1.096.523 1.556.959.459.436.821 1.001 1.086 1.698.265.691.398 1.531.398 2.521v.753h-8.672v-1.591h6.591c0-.559-.114-1.054-.341-1.485-.227-.435-.547-.779-.959-1.029-.407-.251-.885-.377-1.434-.377-.597 0-1.118.147-1.563.44-.44.289-.781.668-1.023 1.137-.236.464-.355.968-.355 1.513v1.243c0 .729.128 1.349.384 1.86.26.512.622.902 1.086 1.172.464.265 1.007.398 1.627.398.402 0 .769-.057 1.101-.171.331-.118.618-.293.859-.525.242-.232.426-.519.554-.859l2.01.362c-.161.592-.45 1.11-.867 1.555-.411.44-.93.784-1.555 1.03-.62.241-1.328.362-2.124.362zm7.037-.22v-10.909h2.053v1.733h.113c.199-.587.55-1.049 1.051-1.385.507-.341 1.08-.511 1.719-.511.133 0 .289.004.469.014.185.009.329.021.433.035v2.032c-.085-.024-.237-.05-.454-.079-.218-.033-.436-.049-.654-.049-.502 0-.949.106-1.342.319-.388.209-.696.5-.923.874-.228.369-.341.791-.341 1.264v6.662zm15.851-8.246-1.925.341c-.081-.246-.208-.48-.384-.703-.17-.222-.402-.405-.696-.547-.293-.142-.66-.213-1.101-.213-.601 0-1.103.135-1.505.405-.403.265-.604.608-.604 1.03 0 .364.135.658.405.88.27.223.705.405 1.307.547l1.733.398c1.003.232 1.752.59 2.244 1.072.492.483.739 1.111.739 1.883 0 .653-.19 1.235-.569 1.747-.374.506-.897.904-1.569 1.193-.668.289-1.442.433-2.323.433-1.221 0-2.218-.26-2.99-.781-.771-.526-1.245-1.271-1.42-2.237l2.052-.313c.128.535.391.94.789 1.215.398.27.916.405 1.555.405.696 0 1.253-.145 1.669-.434.417-.293.625-.651.625-1.072 0-.341-.128-.628-.383-.86-.251-.232-.637-.407-1.158-.525l-1.847-.405c-1.018-.232-1.77-.601-2.258-1.108-.483-.507-.724-1.148-.724-1.925 0-.644.179-1.207.539-1.69s.857-.859 1.492-1.129c.634-.275 1.361-.412 2.18-.412 1.179 0 2.107.256 2.784.767.677.507 1.125 1.186 1.343 2.038z" fill="#000"/><path d="m636.598 518v-14.545h9.02v1.889h-6.825v4.432h6.179v1.882h-6.179v6.342zm11.412 0v-10.909h2.052v1.733h.114c.199-.587.549-1.049 1.051-1.385.507-.341 1.079-.511 1.719-.511.132 0 .288.004.468.014.185.009.329.021.434.035v2.032c-.086-.024-.237-.05-.455-.079-.218-.033-.435-.049-.653-.049-.502 0-.95.106-1.343.319-.388.209-.696.5-.923.874-.227.369-.341.791-.341 1.264v6.662zm11.88.22c-1.023 0-1.915-.234-2.678-.703-.762-.469-1.354-1.124-1.775-1.967-.422-.843-.632-1.828-.632-2.955 0-1.131.21-2.121.632-2.969.421-.847 1.013-1.505 1.775-1.974.763-.469 1.655-.703 2.678-.703s1.915.234 2.677.703c.763.469 1.355 1.127 1.776 1.974.421.848.632 1.838.632 2.969 0 1.127-.211 2.112-.632 2.955s-1.013 1.498-1.776 1.967c-.762.469-1.654.703-2.677.703zm.007-1.782c.663 0 1.212-.176 1.648-.526.435-.35.757-.817.966-1.399.213-.583.319-1.224.319-1.925 0-.696-.106-1.335-.319-1.918-.209-.587-.531-1.058-.966-1.413-.436-.355-.985-.533-1.648-.533-.668 0-1.222.178-1.662.533-.436.355-.76.826-.973 1.413-.208.583-.312 1.222-.312 1.918 0 .701.104 1.342.312 1.925.213.582.537 1.049.973 1.399.44.35.994.526 1.662.526zm7.449 1.562v-10.909h2.038v1.775h.135c.227-.601.599-1.07 1.115-1.406.516-.341 1.134-.511 1.854-.511.729 0 1.34.17 1.832.511.497.341.864.81 1.101 1.406h.113c.261-.582.675-1.046 1.243-1.392.569-.35 1.246-.525 2.032-.525.989 0 1.796.31 2.421.93.63.621.945 1.556.945 2.806v7.315h-2.124v-7.116c0-.739-.201-1.274-.603-1.606-.403-.331-.883-.497-1.442-.497-.691 0-1.229.213-1.612.639-.384.422-.575.964-.575 1.627v6.953h-2.117v-7.251c0-.592-.185-1.068-.554-1.428s-.85-.54-1.442-.54c-.402 0-.774.107-1.115.32-.336.208-.608.499-.816.873-.204.374-.306.808-.306 1.3v6.726zm26.143.241c-.691 0-1.316-.127-1.875-.383-.559-.26-1.001-.637-1.328-1.129-.322-.493-.483-1.096-.483-1.811 0-.616.118-1.123.355-1.52.237-.398.556-.713.959-.945.402-.232.852-.407 1.349-.525.497-.119 1.004-.209 1.52-.27.654-.076 1.184-.138 1.591-.185.407-.052.703-.135.888-.249.185-.113.277-.298.277-.554v-.049c0-.621-.175-1.101-.526-1.442-.345-.341-.861-.511-1.548-.511-.715 0-1.278.158-1.69.475-.408.313-.689.661-.846 1.045l-1.995-.455c.236-.663.582-1.198 1.037-1.605.459-.412.987-.71 1.583-.895.597-.189 1.224-.284 1.883-.284.435 0 .897.052 1.385.156.492.1.951.284 1.377.554.431.27.784.656 1.059 1.158.274.497.412 1.143.412 1.939v7.244h-2.074v-1.491h-.086c-.137.274-.343.544-.617.809-.275.265-.628.486-1.059.661s-.947.262-1.548.262zm.462-1.704c.587 0 1.089-.116 1.505-.348.422-.232.741-.535.959-.909.223-.379.334-.784.334-1.215v-1.406c-.076.076-.223.147-.44.213-.213.062-.457.116-.732.164-.275.042-.542.082-.802.12-.261.033-.479.062-.654.085-.412.053-.788.14-1.129.263-.336.123-.606.301-.81.533-.199.227-.298.53-.298.909 0 .526.194.923.582 1.193.389.265.883.398 1.485.398zm7.92 1.463v-14.545h2.124v5.404h.128c.123-.227.301-.49.533-.788s.554-.559.965-.781c.412-.228.957-.341 1.634-.341.881 0 1.667.222 2.358.667.691.446 1.233 1.087 1.626 1.925.398.838.597 1.847.597 3.026s-.197 2.19-.59 3.032c-.393.838-.932 1.485-1.619 1.939-.686.45-1.47.675-2.351.675-.663 0-1.205-.111-1.626-.334-.417-.222-.744-.483-.98-.781-.237-.298-.419-.563-.547-.795h-.178v1.697zm2.081-5.455c0 .767.112 1.44.334 2.017.223.578.545 1.03.966 1.357.422.322.938.483 1.548.483.635 0 1.165-.168 1.591-.504.426-.341.748-.803.966-1.385.223-.583.334-1.238.334-1.968 0-.719-.109-1.366-.327-1.938-.213-.573-.535-1.026-.966-1.357-.426-.331-.958-.497-1.598-.497-.615 0-1.136.158-1.562.476-.421.317-.741.76-.959 1.328s-.327 1.231-.327 1.988zm10.269 5.455v-10.909h2.052v1.733h.114c.199-.587.549-1.049 1.051-1.385.506-.341 1.079-.511 1.719-.511.132 0 .288.004.468.014.185.009.329.021.434.035v2.032c-.086-.024-.237-.05-.455-.079-.218-.033-.436-.049-.653-.049-.502 0-.95.106-1.343.319-.388.209-.696.5-.923.874-.227.369-.341.791-.341 1.264v6.662zm11.88.22c-1.023 0-1.915-.234-2.678-.703-.762-.469-1.354-1.124-1.775-1.967-.422-.843-.632-1.828-.632-2.955 0-1.131.21-2.121.632-2.969.421-.847 1.013-1.505 1.775-1.974.763-.469 1.655-.703 2.678-.703s1.915.234 2.677.703c.763.469 1.355 1.127 1.776 1.974.421.848.632 1.838.632 2.969 0 1.127-.211 2.112-.632 2.955s-1.013 1.498-1.776 1.967c-.762.469-1.654.703-2.677.703zm.007-1.782c.663 0 1.212-.176 1.648-.526.435-.35.757-.817.966-1.399.213-.583.319-1.224.319-1.925 0-.696-.106-1.335-.319-1.918-.209-.587-.531-1.058-.966-1.413-.436-.355-.985-.533-1.648-.533-.668 0-1.222.178-1.662.533-.436.355-.76.826-.973 1.413-.208.583-.312 1.222-.312 1.918 0 .701.104 1.342.312 1.925.213.582.537 1.049.973 1.399.44.35.994.526 1.662.526zm10.623 1.803c-.691 0-1.316-.127-1.875-.383-.559-.26-1.001-.637-1.328-1.129-.322-.493-.483-1.096-.483-1.811 0-.616.118-1.123.355-1.52.237-.398.557-.713.959-.945s.852-.407 1.349-.525c.498-.119 1.004-.209 1.52-.27.654-.076 1.184-.138 1.591-.185.407-.052.703-.135.888-.249.185-.113.277-.298.277-.554v-.049c0-.621-.175-1.101-.526-1.442-.345-.341-.861-.511-1.548-.511-.715 0-1.278.158-1.69.475-.407.313-.689.661-.845 1.045l-1.996-.455c.237-.663.582-1.198 1.037-1.605.459-.412.987-.71 1.584-.895.596-.189 1.224-.284 1.882-.284.435 0 .897.052 1.385.156.492.1.951.284 1.378.554.43.27.783.656 1.058 1.158.274.497.412 1.143.412 1.939v7.244h-2.074v-1.491h-.085c-.138.274-.344.544-.618.809-.275.265-.628.486-1.059.661-.43.175-.946.262-1.548.262zm.462-1.704c.587 0 1.089-.116 1.506-.348.421-.232.741-.535.958-.909.223-.379.334-.784.334-1.215v-1.406c-.076.076-.222.147-.44.213-.213.062-.457.116-.732.164-.274.042-.542.082-.802.12-.261.033-.479.062-.654.085-.412.053-.788.14-1.129.263-.336.123-.606.301-.81.533-.199.227-.298.53-.298.909 0 .526.194.923.582 1.193.389.265.884.398 1.485.398zm11.834 1.676c-.881 0-1.667-.225-2.358-.675-.687-.454-1.226-1.101-1.619-1.939-.389-.842-.583-1.853-.583-3.032s.197-2.188.59-3.026c.398-.838.942-1.479 1.633-1.925.692-.445 1.475-.667 2.351-.667.677 0 1.222.113 1.634.341.416.222.738.483.966.781.232.298.412.561.539.788h.128v-5.404h2.124v14.545h-2.074v-1.697h-.178c-.127.232-.312.497-.554.795-.236.298-.563.559-.98.781-.416.223-.956.334-1.619.334zm.469-1.811c.611 0 1.127-.161 1.548-.483.426-.327.748-.779.966-1.357.222-.577.334-1.25.334-2.017 0-.757-.109-1.42-.327-1.988s-.537-1.011-.959-1.328c-.421-.318-.942-.476-1.562-.476-.639 0-1.172.166-1.598.497s-.748.784-.966 1.357c-.213.572-.32 1.219-.32 1.938 0 .73.109 1.385.327 1.968.218.582.54 1.044.966 1.385.431.336.961.504 1.591.504z" fill="#000"/><path d="m1045.12 449 19.8-39.182v-.318h-22.98v-7.045h31.7v7.204l-19.77 39.341zm35.86 0v-6.091l16.16-15.841c1.54-1.56 2.83-2.947 3.86-4.159s1.81-2.386 2.32-3.523c.52-1.136.77-2.348.77-3.636 0-1.47-.33-2.727-1-3.773-.66-1.06-1.58-1.879-2.75-2.454-1.16-.576-2.49-.864-3.97-.864-1.53 0-2.87.318-4.03.955-1.15.621-2.04 1.507-2.68 2.659-.62 1.151-.93 2.522-.93 4.113h-8.02c0-2.954.67-5.522 2.02-7.704s3.2-3.871 5.57-5.068c2.38-1.197 5.1-1.796 8.18-1.796 3.12 0 5.86.584 8.23 1.75 2.36 1.167 4.19 2.765 5.5 4.796 1.32 2.03 1.97 4.348 1.97 6.954 0 1.743-.33 3.455-1 5.137-.66 1.681-1.84 3.545-3.52 5.59-1.66 2.046-4.01 4.523-7.02 7.432l-8.02 8.159v.319h20.27v7.045zm64.64-8.727v-2.455c0-1.803.38-3.462 1.13-4.977.78-1.515 1.9-2.735 3.37-3.659s3.25-1.387 5.34-1.387c2.15 0 3.95.463 5.41 1.387 1.45.909 2.55 2.121 3.29 3.636.76 1.515 1.14 3.182 1.14 5v2.455c0 1.803-.38 3.462-1.14 4.977s-1.87 2.735-3.34 3.659c-1.45.924-3.24 1.386-5.36 1.386s-3.92-.462-5.39-1.386-2.58-2.144-3.34-3.659c-.74-1.515-1.11-3.174-1.11-4.977zm5.93-2.455v2.455c0 1.197.29 2.295.86 3.295.58 1 1.59 1.5 3.05 1.5 1.47 0 2.47-.492 3.02-1.477.56-1 .84-2.106.84-3.318v-2.455c0-1.212-.26-2.318-.79-3.318-.53-1.015-1.56-1.523-3.07-1.523-1.43 0-2.43.508-3.03 1.523-.59 1-.88 2.106-.88 3.318zm-29.59-24.182v-2.454c0-1.818.38-3.485 1.16-5 .77-1.515 1.89-2.727 3.36-3.637 1.47-.924 3.25-1.386 5.34-1.386 2.14 0 3.93.462 5.39 1.386 1.47.91 2.57 2.122 3.32 3.637.74 1.515 1.11 3.182 1.11 5v2.454c0 1.819-.38 3.485-1.14 5-.74 1.5-1.85 2.705-3.32 3.614s-3.25 1.364-5.36 1.364c-2.14 0-3.94-.455-5.41-1.364-1.45-.909-2.56-2.121-3.32-3.636-.75-1.516-1.13-3.175-1.13-4.978zm5.97-2.454v2.454c0 1.212.28 2.319.85 3.319.57.984 1.59 1.477 3.04 1.477 1.46 0 2.46-.493 3-1.477.56-1 .84-2.107.84-3.319v-2.454c0-1.212-.26-2.318-.79-3.318-.53-1.016-1.55-1.523-3.05-1.523-1.44 0-2.45.507-3.02 1.523-.58 1.015-.87 2.121-.87 3.318zm-3.38 37.818 32-46.545h5.68l-32 46.545z" fill="#4977ea"/><g fill="#000"><path d="m1191.46 444.476v-6.385h2.13v10.909h-2.09v-1.889h-.11c-.25.582-.65 1.068-1.21 1.456-.55.383-1.23.575-2.05.575-.7 0-1.32-.154-1.86-.462-.54-.312-.96-.774-1.26-1.385-.31-.61-.46-1.366-.46-2.265v-6.939h2.12v6.683c0 .744.21 1.335.62 1.776.41.44.95.66 1.61.66.39 0 .79-.099 1.18-.298.4-.199.73-.5.99-.902.27-.403.4-.914.39-1.534zm13.16-3.722-1.92.341c-.09-.246-.21-.48-.39-.703-.17-.222-.4-.405-.69-.547-.3-.142-.66-.213-1.11-.213-.6 0-1.1.135-1.5.405-.4.265-.6.608-.6 1.03 0 .364.13.658.4.88.27.223.71.405 1.31.547l1.73.398c1 .232 1.75.59 2.24 1.072.5.483.74 1.111.74 1.883 0 .653-.19 1.235-.57 1.747-.37.506-.89.904-1.56 1.193s-1.45.433-2.33.433c-1.22 0-2.22-.26-2.99-.781-.77-.526-1.24-1.271-1.42-2.237l2.05-.313c.13.535.4.94.79 1.215.4.27.92.405 1.56.405.69 0 1.25-.145 1.67-.434.41-.293.62-.651.62-1.072 0-.341-.13-.628-.38-.86s-.64-.407-1.16-.525l-1.85-.405c-1.01-.232-1.77-.601-2.25-1.108-.49-.507-.73-1.148-.73-1.925 0-.644.18-1.207.54-1.69s.86-.859 1.49-1.129c.64-.275 1.36-.412 2.18-.412 1.18 0 2.11.256 2.79.767.67.507 1.12 1.186 1.34 2.038zm7.25 8.466c-1.08 0-2-.229-2.78-.689-.77-.464-1.37-1.115-1.79-1.953-.41-.843-.62-1.83-.62-2.962 0-1.117.21-2.102.62-2.954.42-.852 1.01-1.518 1.76-1.996.76-.478 1.65-.717 2.66-.717.62 0 1.21.102 1.79.305.58.204 1.1.523 1.56.959.45.436.82 1.001 1.08 1.698.27.691.4 1.531.4 2.521v.753h-8.67v-1.591h6.59c0-.559-.11-1.054-.34-1.485-.23-.435-.55-.779-.96-1.029-.41-.251-.89-.377-1.44-.377-.59 0-1.11.147-1.56.44-.44.289-.78.668-1.02 1.137-.24.464-.36.968-.36 1.513v1.243c0 .729.13 1.349.39 1.86.26.512.62.902 1.08 1.172.47.265 1.01.398 1.63.398.4 0 .77-.057 1.1-.171.33-.118.62-.293.86-.525s.43-.519.56-.859l2 .362c-.16.592-.44 1.11-.86 1.555-.41.44-.93.784-1.56 1.03-.62.241-1.33.362-2.12.362zm7.04-.22v-10.909h2.05v1.733h.11c.2-.587.55-1.049 1.05-1.385.51-.341 1.08-.511 1.72-.511.13 0 .29.004.47.014.19.009.33.021.43.035v2.032c-.08-.024-.23-.05-.45-.079-.22-.033-.44-.049-.65-.049-.51 0-.95.106-1.35.319-.38.209-.69.5-.92.874-.23.369-.34.791-.34 1.264v6.662zm15.85-8.246-1.93.341c-.08-.246-.21-.48-.38-.703-.17-.222-.4-.405-.7-.547-.29-.142-.66-.213-1.1-.213-.6 0-1.1.135-1.5.405-.41.265-.61.608-.61 1.03 0 .364.14.658.41.88.27.223.7.405 1.3.547l1.74.398c1 .232 1.75.59 2.24 1.072.49.483.74 1.111.74 1.883 0 .653-.19 1.235-.57 1.747-.37.506-.9.904-1.57 1.193s-1.44.433-2.32.433c-1.22 0-2.22-.26-2.99-.781-.77-.526-1.25-1.271-1.42-2.237l2.05-.313c.13.535.39.94.79 1.215.4.27.92.405 1.56.405.69 0 1.25-.145 1.66-.434.42-.293.63-.651.63-1.072 0-.341-.13-.628-.38-.86-.26-.232-.64-.407-1.16-.525l-1.85-.405c-1.02-.232-1.77-.601-2.26-1.108-.48-.507-.72-1.148-.72-1.925 0-.644.18-1.207.54-1.69s.86-.859 1.49-1.129c.63-.275 1.36-.412 2.18-.412 1.18 0 2.11.256 2.78.767.68.507 1.13 1.186 1.35 2.038z"/><path d="m1004.16 504.455 4.05 11.846h.16l4.05-11.846h2.37l-5.23 14.545h-2.54l-5.23-14.545zm12.56 14.545v-10.909h2.13v10.909zm1.08-12.592c-.37 0-.69-.123-.95-.37-.27-.251-.4-.549-.4-.895 0-.35.13-.648.4-.894.26-.251.58-.377.95-.377s.68.126.94.377c.27.246.4.544.4.894 0 .346-.13.644-.4.895-.26.247-.57.37-.94.37zm8.61 12.812c-1.08 0-2-.229-2.78-.689-.77-.464-1.37-1.115-1.79-1.953-.42-.843-.63-1.83-.63-2.962 0-1.117.21-2.102.63-2.954s1.01-1.518 1.76-1.996c.76-.478 1.64-.717 2.66-.717.61 0 1.21.102 1.79.305.57.204 1.09.523 1.55.959s.82 1.001 1.09 1.698c.26.691.4 1.531.4 2.521v.753h-8.67v-1.591h6.59c0-.559-.12-1.054-.34-1.485-.23-.435-.55-.779-.96-1.029-.41-.251-.89-.377-1.44-.377-.59 0-1.12.147-1.56.44-.44.289-.78.668-1.02 1.137-.24.464-.36.968-.36 1.513v1.243c0 .729.13 1.349.38 1.86.27.512.63.902 1.09 1.172.47.265 1.01.398 1.63.398.4 0 .77-.057 1.1-.171.33-.118.62-.293.86-.525s.42-.519.55-.859l2.01.362c-.16.592-.45 1.11-.86 1.555-.42.44-.93.784-1.56 1.03-.62.241-1.33.362-2.12.362zm9.38-.22-3.21-10.909h2.19l2.14 8.011h.11l2.14-8.011h2.2l2.13 7.976h.1l2.13-7.976h2.19l-3.2 10.909h-2.17l-2.21-7.876h-.17l-2.21 7.876zm24.03.22c-1.03 0-1.92-.234-2.68-.703s-1.36-1.124-1.78-1.967-.63-1.828-.63-2.955c0-1.131.21-2.121.63-2.969.42-.847 1.02-1.505 1.78-1.974s1.65-.703 2.68-.703c1.02 0 1.91.234 2.67.703.77.469 1.36 1.127 1.78 1.974.42.848.63 1.838.63 2.969 0 1.127-.21 2.112-.63 2.955s-1.01 1.498-1.78 1.967c-.76.469-1.65.703-2.67.703zm0-1.782c.67 0 1.21-.176 1.65-.526s.76-.817.97-1.399c.21-.583.32-1.224.32-1.925 0-.696-.11-1.335-.32-1.918-.21-.587-.53-1.058-.97-1.413s-.98-.533-1.65-.533c-.66 0-1.22.178-1.66.533-.43.355-.76.826-.97 1.413-.21.583-.31 1.222-.31 1.918 0 .701.1 1.342.31 1.925.21.582.54 1.049.97 1.399.44.35 1 .526 1.66.526zm14.36-2.962v-6.385h2.13v10.909h-2.09v-1.889h-.11c-.25.582-.65 1.068-1.21 1.456-.55.383-1.23.575-2.05.575-.7 0-1.32-.154-1.86-.462-.53-.312-.96-.774-1.26-1.385-.31-.61-.46-1.366-.46-2.265v-6.939h2.12v6.683c0 .744.21 1.335.62 1.776.41.44.95.66 1.61.66.4 0 .79-.099 1.18-.298.4-.199.73-.5.99-.902.27-.403.4-.914.39-1.534zm4.99 4.524v-10.909h2.05v1.733h.11c.2-.587.55-1.049 1.05-1.385.51-.341 1.08-.511 1.72-.511.13 0 .29.004.47.014.19.009.33.021.43.035v2.032c-.08-.024-.23-.05-.45-.079-.22-.033-.44-.049-.65-.049-.51 0-.95.106-1.35.319-.38.209-.69.5-.92.874-.23.369-.34.791-.34 1.264v6.662zm15.33 0-3.21-10.909h2.19l2.14 8.011h.11l2.14-8.011h2.2l2.13 7.976h.11l2.12-7.976h2.19l-3.2 10.909h-2.17l-2.21-7.876h-.17l-2.21 7.876zm18.51.22c-1.08 0-2-.229-2.78-.689-.77-.464-1.37-1.115-1.79-1.953-.42-.843-.62-1.83-.62-2.962 0-1.117.2-2.102.62-2.954s1.01-1.518 1.76-1.996c.76-.478 1.65-.717 2.66-.717.61 0 1.21.102 1.79.305.58.204 1.09.523 1.55.959s.83 1.001 1.09 1.698c.27.691.4 1.531.4 2.521v.753h-8.67v-1.591h6.59c0-.559-.12-1.054-.34-1.485-.23-.435-.55-.779-.96-1.029-.41-.251-.89-.377-1.44-.377-.59 0-1.11.147-1.56.44-.44.289-.78.668-1.02 1.137-.24.464-.36.968-.36 1.513v1.243c0 .729.13 1.349.39 1.86.26.512.62.902 1.08 1.172.47.265 1.01.398 1.63.398.4 0 .77-.057 1.1-.171.33-.118.62-.293.86-.525s.43-.519.55-.859l2.01.362c-.16.592-.45 1.11-.86 1.555-.41.44-.93.784-1.56 1.03-.62.241-1.33.362-2.12.362zm7.21-.22v-14.545h2.12v5.404h.13c.12-.227.3-.49.53-.788s.55-.559.97-.781c.41-.228.95-.341 1.63-.341.88 0 1.67.222 2.36.667.69.446 1.23 1.087 1.62 1.925.4.838.6 1.847.6 3.026s-.2 2.19-.59 3.032c-.39.838-.93 1.485-1.62 1.939-.69.45-1.47.675-2.35.675-.66 0-1.2-.111-1.63-.334-.41-.222-.74-.483-.98-.781-.23-.298-.42-.563-.54-.795h-.18v1.697zm2.08-5.455c0 .767.11 1.44.33 2.017.22.578.54 1.03.97 1.357.42.322.93.483 1.54.483.64 0 1.17-.168 1.6-.504.42-.341.74-.803.96-1.385.22-.583.33-1.238.33-1.968 0-.719-.1-1.366-.32-1.938-.21-.573-.54-1.026-.97-1.357-.42-.331-.96-.497-1.6-.497-.61 0-1.13.158-1.56.476-.42.317-.74.76-.96 1.328-.21.568-.32 1.231-.32 1.988zm18.44-2.791-1.93.341c-.08-.246-.2-.48-.38-.703-.17-.222-.4-.405-.7-.547-.29-.142-.66-.213-1.1-.213-.6 0-1.1.135-1.5.405-.4.265-.61.608-.61 1.03 0 .364.14.658.41.88.27.223.7.405 1.31.547l1.73.398c1 .232 1.75.59 2.24 1.072.5.483.74 1.111.74 1.883 0 .653-.19 1.235-.57 1.747-.37.506-.89.904-1.57 1.193-.66.289-1.44.433-2.32.433-1.22 0-2.22-.26-2.99-.781-.77-.526-1.24-1.271-1.42-2.237l2.05-.313c.13.535.39.94.79 1.215.4.27.92.405 1.56.405.69 0 1.25-.145 1.67-.434.41-.293.62-.651.62-1.072 0-.341-.13-.628-.38-.86s-.64-.407-1.16-.525l-1.85-.405c-1.01-.232-1.77-.601-2.25-1.108-.49-.507-.73-1.148-.73-1.925 0-.644.18-1.207.54-1.69s.86-.859 1.49-1.129c.64-.275 1.36-.412 2.18-.412 1.18 0 2.11.256 2.79.767.67.507 1.12 1.186 1.34 2.038zm2.55 8.246v-10.909h2.12v10.909zm1.07-12.592c-.37 0-.69-.123-.95-.37-.26-.251-.39-.549-.39-.895 0-.35.13-.648.39-.894.26-.251.58-.377.95-.377s.68.126.94.377c.27.246.4.544.4.894 0 .346-.13.644-.4.895-.26.247-.57.37-.94.37zm9 1.683v1.704h-5.96v-1.704zm-4.36-2.614h2.12v10.32c0 .412.06.722.19.93.12.204.28.344.47.419.2.071.42.107.65.107.17 0 .32-.012.45-.036.12-.023.22-.042.3-.056l.38 1.754c-.12.047-.3.094-.53.142-.22.052-.51.08-.85.085-.56.01-1.08-.09-1.56-.298-.48-.209-.88-.531-1.17-.966-.3-.436-.45-.983-.45-1.641zm11.29 13.743c-1.07 0-2-.229-2.77-.689-.78-.464-1.37-1.115-1.79-1.953-.42-.843-.63-1.83-.63-2.962 0-1.117.21-2.102.63-2.954s1.01-1.518 1.76-1.996c.76-.478 1.64-.717 2.65-.717.62 0 1.22.102 1.79.305.58.204 1.1.523 1.56.959s.82 1.001 1.09 1.698c.26.691.39 1.531.39 2.521v.753h-8.67v-1.591h6.59c0-.559-.11-1.054-.34-1.485-.23-.435-.55-.779-.96-1.029-.4-.251-.88-.377-1.43-.377-.6 0-1.12.147-1.56.44-.44.289-.79.668-1.03 1.137-.23.464-.35.968-.35 1.513v1.243c0 .729.13 1.349.38 1.86.26.512.62.902 1.09 1.172.46.265 1 .398 1.62.398.41 0 .77-.057 1.11-.171.33-.118.61-.293.85-.525.25-.232.43-.519.56-.859l2.01.362c-.16.592-.45 1.11-.87 1.555-.41.44-.93.784-1.55 1.03-.62.241-1.33.362-2.13.362zm16.93 0c-1.02 0-1.92-.234-2.68-.703s-1.35-1.124-1.78-1.967c-.42-.843-.63-1.828-.63-2.955 0-1.131.21-2.121.63-2.969.43-.847 1.02-1.505 1.78-1.974s1.66-.703 2.68-.703 1.91.234 2.68.703c.76.469 1.35 1.127 1.77 1.974.42.848.63 1.838.63 2.969 0 1.127-.21 2.112-.63 2.955s-1.01 1.498-1.77 1.967c-.77.469-1.66.703-2.68.703zm.01-1.782c.66 0 1.21-.176 1.64-.526.44-.35.76-.817.97-1.399.21-.583.32-1.224.32-1.925 0-.696-.11-1.335-.32-1.918-.21-.587-.53-1.058-.97-1.413-.43-.355-.98-.533-1.64-.533-.67 0-1.23.178-1.67.533-.43.355-.76.826-.97 1.413-.21.583-.31 1.222-.31 1.918 0 .701.1 1.342.31 1.925.21.582.54 1.049.97 1.399.44.35 1 .526 1.67.526zm9.57-4.915v6.477h-2.13v-10.909h2.04v1.775h.14c.25-.577.64-1.041 1.18-1.392.54-.35 1.22-.525 2.03-.525.75 0 1.4.156 1.96.469.56.307.99.767 1.3 1.377.3.611.46 1.366.46 2.266v6.939h-2.12v-6.683c0-.791-.21-1.409-.62-1.854-.41-.45-.98-.675-1.7-.675-.49 0-.93.107-1.31.32s-.68.526-.91.937c-.21.408-.32.9-.32 1.478zm15.12 6.477v-10.909h2.04v1.775h.13c.23-.601.6-1.07 1.12-1.406.51-.341 1.13-.511 1.85-.511.73 0 1.34.17 1.83.511.5.341.87.81 1.11 1.406h.11c.26-.582.67-1.046 1.24-1.392.57-.35 1.25-.525 2.03-.525.99 0 1.8.31 2.42.93.63.621.95 1.556.95 2.806v7.315h-2.12v-7.116c0-.739-.21-1.274-.61-1.606-.4-.331-.88-.497-1.44-.497-.69 0-1.23.213-1.61.639-.39.422-.58.964-.58 1.627v6.953h-2.11v-7.251c0-.592-.19-1.068-.56-1.428s-.85-.54-1.44-.54c-.4 0-.77.107-1.11.32-.34.208-.61.499-.82.873-.2.374-.31.808-.31 1.3v6.726zm22.27.22c-1.02 0-1.91-.234-2.68-.703-.76-.469-1.35-1.124-1.77-1.967s-.63-1.828-.63-2.955c0-1.131.21-2.121.63-2.969.42-.847 1.01-1.505 1.77-1.974.77-.469 1.66-.703 2.68-.703s1.92.234 2.68.703 1.35 1.127 1.77 1.974c.43.848.64 1.838.64 2.969 0 1.127-.21 2.112-.64 2.955-.42.843-1.01 1.498-1.77 1.967s-1.66.703-2.68.703zm.01-1.782c.66 0 1.21-.176 1.65-.526.43-.35.75-.817.96-1.399.21-.583.32-1.224.32-1.925 0-.696-.11-1.335-.32-1.918-.21-.587-.53-1.058-.96-1.413-.44-.355-.99-.533-1.65-.533-.67 0-1.22.178-1.66.533s-.76.826-.98 1.413c-.21.583-.31 1.222-.31 1.918 0 .701.1 1.342.31 1.925.22.582.54 1.049.98 1.399s.99.526 1.66.526zm7.62 1.562v-14.545h2.12v5.404h.13c.12-.227.3-.49.53-.788s.55-.559.97-.781c.41-.228.95-.341 1.63-.341.88 0 1.67.222 2.36.667.69.446 1.23 1.087 1.62 1.925.4.838.6 1.847.6 3.026s-.2 2.19-.59 3.032c-.39.838-.93 1.485-1.62 1.939-.68.45-1.47.675-2.35.675-.66 0-1.2-.111-1.62-.334-.42-.222-.75-.483-.98-.781-.24-.298-.42-.563-.55-.795h-.18v1.697zm2.08-5.455c0 .767.11 1.44.33 2.017.22.578.55 1.03.97 1.357.42.322.93.483 1.55.483.63 0 1.16-.168 1.59-.504.42-.341.74-.803.96-1.385.23-.583.34-1.238.34-1.968 0-.719-.11-1.366-.33-1.938-.21-.573-.54-1.026-.97-1.357-.42-.331-.96-.497-1.59-.497-.62 0-1.14.158-1.57.476-.42.317-.74.76-.96 1.328-.21.568-.32 1.231-.32 1.988zm10.27 5.455v-10.909h2.12v10.909zm1.07-12.592c-.37 0-.69-.123-.95-.37-.26-.251-.39-.549-.39-.895 0-.35.13-.648.39-.894.26-.251.58-.377.95-.377s.68.126.94.377c.27.246.4.544.4.894 0 .346-.13.644-.4.895-.26.247-.57.37-.94.37zm6.03-1.953v14.545h-2.12v-14.545zm7.56 14.765c-1.08 0-2-.229-2.78-.689-.77-.464-1.37-1.115-1.79-1.953-.41-.843-.62-1.83-.62-2.962 0-1.117.21-2.102.62-2.954.42-.852 1.01-1.518 1.76-1.996.76-.478 1.65-.717 2.66-.717.61 0 1.21.102 1.79.305.58.204 1.1.523 1.55.959.46.436.83 1.001 1.09 1.698.27.691.4 1.531.4 2.521v.753h-8.67v-1.591h6.59c0-.559-.12-1.054-.34-1.485-.23-.435-.55-.779-.96-1.029-.41-.251-.89-.377-1.44-.377-.59 0-1.11.147-1.56.44-.44.289-.78.668-1.02 1.137-.24.464-.36.968-.36 1.513v1.243c0 .729.13 1.349.39 1.86.26.512.62.902 1.08 1.172.47.265 1.01.398 1.63.398.4 0 .77-.057 1.1-.171.33-.118.62-.293.86-.525s.43-.519.55-.859l2.01.362c-.16.592-.45 1.11-.86 1.555-.41.44-.93.784-1.56 1.03-.62.241-1.33.362-2.12.362z"/><path d="m221.354 153.818v26.182h-3.95v-26.182zm9.269 14.523v11.659h-3.823v-19.636h3.669v3.196h.243c.452-1.04 1.159-1.875 2.122-2.506.972-.631 2.195-.946 3.669-.946 1.338 0 2.51.281 3.516.844 1.006.554 1.785 1.38 2.339 2.48.554 1.099.831 2.459.831 4.078v12.49h-3.822v-12.03c0-1.423-.371-2.535-1.112-3.336-.742-.81-1.76-1.215-3.056-1.215-.886 0-1.674.192-2.365.575-.682.384-1.223.946-1.623 1.688-.392.733-.588 1.619-.588 2.659zm37.102-14.523v26.182h-3.963v-22.219h-.153l-6.265 4.091v-3.784l6.533-4.27zm24.012 26.566c-1.585 0-3-.405-4.244-1.215-1.236-.818-2.208-1.982-2.915-3.49-.699-1.517-1.049-3.337-1.049-5.459s.354-3.937 1.062-5.446c.715-1.508 1.696-2.663 2.94-3.464s2.655-1.202 4.231-1.202c1.219 0 2.199.204 2.941.614.75.4 1.329.869 1.738 1.406.418.537.742 1.01.972 1.419h.23v-9.729h3.823v26.182h-3.733v-3.055h-.32c-.23.417-.563.894-.997 1.431-.426.537-1.014 1.006-1.764 1.407-.75.4-1.722.601-2.915.601zm.844-3.26c1.099 0 2.028-.29 2.787-.87.767-.588 1.346-1.402 1.738-2.442.401-1.039.601-2.25.601-3.63 0-1.364-.196-2.557-.588-3.58-.392-1.022-.967-1.819-1.726-2.39-.758-.571-1.696-.857-2.812-.857-1.151 0-2.11.298-2.877.895s-1.346 1.411-1.738 2.442c-.384 1.031-.576 2.194-.576 3.49 0 1.312.196 2.493.588 3.541s.972 1.879 1.739 2.493c.776.605 1.73.908 2.864.908zm20.055 3.311c-1.245 0-2.37-.23-3.375-.691-1.006-.468-1.803-1.146-2.391-2.032-.58-.887-.869-1.973-.869-3.26 0-1.108.213-2.02.639-2.736s1.001-1.283 1.726-1.7c.724-.418 1.534-.733 2.429-.946s1.807-.375 2.736-.486c1.176-.137 2.13-.247 2.863-.333.733-.093 1.266-.242 1.598-.447.333-.205.499-.537.499-.997v-.09c0-1.116-.316-1.981-.946-2.595-.622-.613-1.551-.92-2.787-.92-1.287 0-2.301.285-3.043.856-.733.563-1.24 1.189-1.521 1.88l-3.592-.819c.426-1.193 1.048-2.156 1.866-2.889.827-.741 1.777-1.278 2.851-1.611 1.074-.341 2.203-.511 3.388-.511.784 0 1.615.094 2.493.281.886.179 1.713.512 2.48.997.775.486 1.41 1.181 1.905 2.084.494.895.741 2.058.741 3.49v13.04h-3.733v-2.685h-.153c-.248.495-.618.98-1.113 1.458-.494.477-1.129.873-1.904 1.189-.776.315-1.705.473-2.787.473zm.831-3.069c1.056 0 1.96-.208 2.71-.626.758-.418 1.334-.963 1.726-1.636.4-.682.601-1.411.601-2.186v-2.532c-.137.137-.401.265-.793.384-.384.111-.823.209-1.317.294-.494.077-.976.149-1.444.217-.469.06-.861.111-1.177.154-.741.093-1.419.251-2.032.473-.605.221-1.091.541-1.458.958-.358.41-.537.955-.537 1.637 0 .946.35 1.662 1.049 2.148.699.477 1.589.715 2.672.715zm15.663 9.998c-.571 0-1.091-.047-1.559-.141-.469-.085-.819-.179-1.049-.281l.921-3.132c.699.187 1.321.268 1.866.243.546-.026 1.027-.231 1.445-.614.426-.384.801-1.01 1.125-1.879l.473-1.304-7.185-19.892h4.091l4.973 15.238h.205l4.973-15.238h4.103l-8.092 22.257c-.375 1.022-.852 1.888-1.432 2.595-.579.716-1.27 1.253-2.071 1.611s-1.73.537-2.787.537zm21.717-10.944-.191 1.394c-.128 1.023-.346 2.088-.652 3.196-.299 1.116-.61 2.152-.934 3.106-.315.955-.575 1.714-.78 2.276h-2.71c.111-.528.264-1.244.46-2.148.197-.895.388-1.896.576-3.004.187-1.108.328-2.237.422-3.388l.127-1.432z"/></g><path d="m393.068 133.455v46.545h-8.432v-38.341h-.272l-10.887 6.955v-7.728l11.568-7.431zm29.023 47.431c-3.743 0-6.955-.947-9.636-2.841-2.667-1.909-4.72-4.659-6.16-8.25-1.424-3.606-2.136-7.947-2.136-13.022.015-5.076.735-9.394 2.159-12.955 1.44-3.576 3.493-6.303 6.159-8.182 2.682-1.878 5.887-2.818 9.614-2.818s6.932.94 9.614 2.818c2.681 1.879 4.734 4.606 6.159 8.182 1.439 3.576 2.159 7.894 2.159 12.955 0 5.091-.72 9.439-2.159 13.045-1.425 3.591-3.478 6.334-6.159 8.227-2.667 1.894-5.872 2.841-9.614 2.841zm0-7.113c2.909 0 5.204-1.432 6.886-4.296 1.697-2.879 2.546-7.113 2.546-12.704 0-3.697-.387-6.803-1.159-9.318-.773-2.516-1.864-4.41-3.273-5.682-1.409-1.288-3.076-1.932-5-1.932-2.894 0-5.182 1.439-6.864 4.318-1.682 2.864-2.53 7.068-2.545 12.614-.015 3.712.356 6.833 1.113 9.363.773 2.531 1.864 4.44 3.273 5.728 1.409 1.272 3.084 1.909 5.023 1.909zm41.642-40.955c2.227.015 4.394.409 6.5 1.182 2.121.758 4.03 2 5.727 3.727 1.697 1.712 3.046 4.008 4.046 6.887 1 2.878 1.5 6.439 1.5 10.681.015 4-.409 7.576-1.273 10.728-.849 3.136-2.068 5.788-3.659 7.954-1.591 2.167-3.508 3.818-5.75 4.955-2.243 1.136-4.765 1.704-7.568 1.704-2.94 0-5.546-.575-7.818-1.727-2.258-1.151-4.084-2.727-5.478-4.727s-2.25-4.288-2.568-6.864h8.296c.424 1.849 1.287 3.318 2.59 4.409 1.319 1.076 2.978 1.614 4.978 1.614 3.227 0 5.712-1.402 7.454-4.205 1.743-2.803 2.614-6.697 2.614-11.681h-.318c-.743 1.333-1.705 2.484-2.887 3.454-1.181.955-2.522 1.689-4.022 2.205-1.485.515-3.061.772-4.728.772-2.727 0-5.181-.651-7.363-1.954-2.167-1.303-3.887-3.091-5.159-5.364-1.258-2.273-1.894-4.871-1.909-7.795 0-3.031.696-5.75 2.09-8.159 1.41-2.425 3.372-4.334 5.887-5.728 2.515-1.409 5.454-2.098 8.818-2.068zm.023 6.818c-1.637 0-3.114.402-4.432 1.205-1.303.788-2.333 1.864-3.091 3.227-.742 1.349-1.114 2.856-1.114 4.523.015 1.651.387 3.151 1.114 4.5.742 1.348 1.75 2.417 3.023 3.204 1.288.788 2.757 1.182 4.409 1.182 1.227 0 2.371-.235 3.432-.704 1.06-.47 1.984-1.121 2.772-1.955.803-.848 1.425-1.81 1.864-2.886.455-1.076.674-2.212.659-3.409 0-1.591-.379-3.061-1.136-4.409-.743-1.349-1.765-2.432-3.068-3.25-1.288-.819-2.766-1.228-4.432-1.228zm42.363 41c-2.227-.015-4.401-.401-6.522-1.159-2.122-.772-4.031-2.022-5.728-3.75-1.697-1.742-3.045-4.053-4.045-6.932-1-2.893-1.493-6.477-1.477-10.75 0-3.984.424-7.537 1.272-10.659.849-3.121 2.069-5.757 3.659-7.909 1.591-2.166 3.508-3.818 5.75-4.954 2.258-1.137 4.781-1.705 7.569-1.705 2.924 0 5.515.576 7.772 1.727 2.273 1.152 4.106 2.728 5.5 4.728 1.394 1.985 2.258 4.227 2.591 6.727h-8.295c-.424-1.788-1.296-3.212-2.614-4.273-1.303-1.075-2.954-1.613-4.954-1.613-3.228 0-5.713 1.401-7.455 4.204-1.727 2.803-2.598 6.652-2.614 11.546h.319c.742-1.334 1.704-2.478 2.886-3.432 1.182-.955 2.515-1.69 4-2.205 1.5-.53 3.083-.795 4.75-.795 2.727 0 5.174.651 7.341 1.954 2.182 1.303 3.909 3.099 5.182 5.387 1.272 2.272 1.901 4.879 1.886 7.818.015 3.061-.682 5.811-2.091 8.25-1.409 2.424-3.371 4.333-5.886 5.727s-5.447 2.084-8.796 2.068zm-.045-6.818c1.651 0 3.129-.401 4.432-1.204s2.333-1.887 3.091-3.25c.757-1.364 1.128-2.894 1.113-4.591.015-1.667-.348-3.175-1.091-4.523-.727-1.348-1.735-2.417-3.022-3.205-1.288-.787-2.758-1.181-4.409-1.181-1.228 0-2.372.234-3.432.704-1.061.47-1.985 1.121-2.773 1.955-.788.818-1.409 1.772-1.864 2.863-.439 1.076-.666 2.228-.681 3.455.015 1.621.393 3.114 1.136 4.477.742 1.364 1.765 2.455 3.068 3.273s2.78 1.227 4.432 1.227z" fill="#ff5c2c"/><path d="m545.57 187.364v-27h3.733v3.183h.319c.222-.409.541-.882.959-1.419s.997-1.006 1.739-1.406c.741-.41 1.721-.614 2.94-.614 1.585 0 3 .401 4.244 1.202 1.245.801 2.22 1.956 2.928 3.464.716 1.509 1.074 3.324 1.074 5.446s-.354 3.942-1.061 5.459c-.708 1.508-1.679 2.672-2.915 3.49-1.236.81-2.646 1.215-4.232 1.215-1.193 0-2.169-.201-2.927-.601-.75-.401-1.338-.87-1.764-1.407-.427-.537-.755-1.014-.985-1.431h-.23v10.419zm3.745-17.182c0 1.38.201 2.591.601 3.63.401 1.04.98 1.854 1.739 2.442.758.58 1.687.87 2.787.87 1.142 0 2.096-.303 2.863-.908.767-.614 1.347-1.445 1.739-2.493.401-1.048.601-2.229.601-3.541 0-1.296-.196-2.459-.588-3.49-.384-1.031-.963-1.845-1.739-2.442-.767-.597-1.726-.895-2.876-.895-1.108 0-2.046.286-2.813.857-.758.571-1.334 1.368-1.726 2.39-.392 1.023-.588 2.216-.588 3.58zm26.936 10.214c-1.934 0-3.6-.413-4.998-1.24-1.389-.835-2.463-2.007-3.222-3.515-.75-1.517-1.125-3.294-1.125-5.331 0-2.012.375-3.784 1.125-5.319.759-1.534 1.816-2.731 3.171-3.592 1.363-.861 2.957-1.291 4.781-1.291 1.108 0 2.182.183 3.222.55 1.039.366 1.973.941 2.799 1.726.827.784 1.479 1.802 1.956 3.055.478 1.244.716 2.757.716 4.538v1.355h-15.609v-2.863h11.863c0-1.006-.204-1.897-.613-2.672-.409-.784-.985-1.402-1.726-1.854-.733-.452-1.594-.677-2.582-.677-1.074 0-2.012.264-2.813.792-.793.52-1.406 1.202-1.841 2.046-.426.835-.639 1.743-.639 2.723v2.237c0 1.312.23 2.429.69 3.349.469.921 1.121 1.624 1.956 2.11.835.477 1.811.716 2.928.716.724 0 1.385-.103 1.981-.307.597-.213 1.113-.529 1.547-.946.435-.418.767-.933.997-1.547l3.618.652c-.29 1.065-.809 1.998-1.559 2.8-.742.792-1.675 1.41-2.8 1.853-1.117.435-2.391.652-3.823.652zm20.938 0c-1.841 0-3.448-.422-4.82-1.265-1.372-.844-2.438-2.024-3.196-3.542-.759-1.517-1.138-3.289-1.138-5.318 0-2.037.379-3.818 1.138-5.343.758-1.526 1.824-2.711 3.196-3.554 1.372-.844 2.979-1.266 4.82-1.266 1.84 0 3.447.422 4.819 1.266 1.372.843 2.438 2.028 3.196 3.554.759 1.525 1.138 3.306 1.138 5.343 0 2.029-.379 3.801-1.138 5.318-.758 1.518-1.824 2.698-3.196 3.542-1.372.843-2.979 1.265-4.819 1.265zm.012-3.208c1.194 0 2.182-.316 2.966-.947.784-.63 1.364-1.47 1.739-2.518.383-1.048.575-2.203.575-3.464 0-1.253-.192-2.404-.575-3.452-.375-1.057-.955-1.905-1.739-2.544s-1.772-.959-2.966-.959c-1.201 0-2.199.32-2.991.959-.784.639-1.368 1.487-1.752 2.544-.375 1.048-.562 2.199-.562 3.452 0 1.261.187 2.416.562 3.464.384 1.048.968 1.888 1.752 2.518.792.631 1.79.947 2.991.947zm13.408 10.176v-27h3.733v3.183h.319c.222-.409.541-.882.959-1.419s.997-1.006 1.739-1.406c.741-.41 1.721-.614 2.94-.614 1.585 0 3 .401 4.244 1.202 1.245.801 2.22 1.956 2.928 3.464.716 1.509 1.074 3.324 1.074 5.446s-.354 3.942-1.061 5.459c-.708 1.508-1.679 2.672-2.915 3.49-1.236.81-2.646 1.215-4.232 1.215-1.193 0-2.169-.201-2.927-.601-.75-.401-1.338-.87-1.764-1.407-.427-.537-.755-1.014-.985-1.431h-.23v10.419zm3.745-17.182c0 1.38.201 2.591.601 3.63.401 1.04.98 1.854 1.739 2.442.758.58 1.687.87 2.787.87 1.142 0 2.096-.303 2.863-.908.768-.614 1.347-1.445 1.739-2.493.401-1.048.601-2.229.601-3.541 0-1.296-.196-2.459-.588-3.49-.384-1.031-.963-1.845-1.739-2.442-.767-.597-1.726-.895-2.876-.895-1.108 0-2.046.286-2.813.857-.758.571-1.333 1.368-1.726 2.39-.392 1.023-.588 2.216-.588 3.58zm22.296-16.364v26.182h-3.823v-26.182zm13.605 26.578c-1.934 0-3.601-.413-4.998-1.24-1.389-.835-2.463-2.007-3.222-3.515-.75-1.517-1.125-3.294-1.125-5.331 0-2.012.375-3.784 1.125-5.319.759-1.534 1.815-2.731 3.171-3.592 1.363-.861 2.957-1.291 4.781-1.291 1.108 0 2.182.183 3.221.55 1.04.366 1.973.941 2.8 1.726.827.784 1.479 1.802 1.956 3.055.477 1.244.716 2.757.716 4.538v1.355h-15.609v-2.863h11.863c0-1.006-.204-1.897-.613-2.672-.409-.784-.985-1.402-1.726-1.854-.733-.452-1.594-.677-2.583-.677-1.073 0-2.011.264-2.812.792-.793.52-1.406 1.202-1.841 2.046-.426.835-.639 1.743-.639 2.723v2.237c0 1.312.23 2.429.69 3.349.469.921 1.121 1.624 1.956 2.11.835.477 1.811.716 2.928.716.724 0 1.385-.103 1.981-.307.597-.213 1.112-.529 1.547-.946.435-.418.767-.933.997-1.547l3.618.652c-.29 1.065-.81 1.998-1.56 2.8-.741.792-1.674 1.41-2.799 1.853-1.117.435-2.391.652-3.823.652zm27.908.039c-1.244 0-2.369-.23-3.375-.691-1.006-.468-1.803-1.146-2.391-2.032-.579-.887-.869-1.973-.869-3.26 0-1.108.213-2.02.639-2.736s1.002-1.283 1.726-1.7c.725-.418 1.534-.733 2.429-.946s1.807-.375 2.736-.486c1.176-.137 2.131-.247 2.864-.333.732-.093 1.265-.242 1.598-.447.332-.205.498-.537.498-.997v-.09c0-1.116-.315-1.981-.946-2.595-.622-.613-1.551-.92-2.787-.92-1.287 0-2.301.285-3.042.856-.733.563-1.241 1.189-1.522 1.88l-3.592-.819c.426-1.193 1.048-2.156 1.866-2.889.827-.741 1.777-1.278 2.851-1.611 1.074-.341 2.203-.511 3.388-.511.784 0 1.615.094 2.493.281.886.179 1.713.512 2.48.997.776.486 1.411 1.181 1.905 2.084.494.895.741 2.058.741 3.49v13.04h-3.733v-2.685h-.153c-.247.495-.618.98-1.112 1.458-.495.477-1.13.873-1.905 1.189-.776.315-1.705.473-2.787.473zm.831-3.069c1.057 0 1.96-.208 2.71-.626.759-.418 1.334-.963 1.726-1.636.401-.682.601-1.411.601-2.186v-2.532c-.136.137-.401.265-.793.384-.383.111-.822.209-1.316.294-.495.077-.976.149-1.445.217-.469.06-.861.111-1.176.154-.742.093-1.419.251-2.033.473-.605.221-1.091.541-1.457.958-.358.41-.537.955-.537 1.637 0 .946.349 1.662 1.048 2.148.699.477 1.59.715 2.672.715zm13.951 2.634v-19.636h3.694v3.119h.205c.358-1.057.988-1.888 1.892-2.493.912-.614 1.943-.92 3.094-.92.238 0 .519.008.843.025.333.017.593.039.78.064v3.656c-.153-.042-.426-.089-.818-.14-.392-.06-.784-.09-1.176-.09-.904 0-1.709.192-2.416.576-.699.375-1.253.899-1.662 1.572-.409.665-.614 1.423-.614 2.276v11.991zm21.576.396c-1.935 0-3.601-.413-4.999-1.24-1.389-.835-2.463-2.007-3.221-3.515-.75-1.517-1.125-3.294-1.125-5.331 0-2.012.375-3.784 1.125-5.319.758-1.534 1.815-2.731 3.17-3.592 1.364-.861 2.958-1.291 4.781-1.291 1.108 0 2.182.183 3.222.55 1.04.366 1.973.941 2.8 1.726.826.784 1.478 1.802 1.956 3.055.477 1.244.716 2.757.716 4.538v1.355h-15.61v-2.863h11.864c0-1.006-.205-1.897-.614-2.672-.409-.784-.984-1.402-1.726-1.854-.733-.452-1.593-.677-2.582-.677-1.074 0-2.011.264-2.812.792-.793.52-1.407 1.202-1.841 2.046-.426.835-.64 1.743-.64 2.723v2.237c0 1.312.231 2.429.691 3.349.469.921 1.121 1.624 1.956 2.11.835.477 1.811.716 2.927.716.725 0 1.385-.103 1.982-.307.596-.213 1.112-.529 1.547-.946.434-.418.767-.933.997-1.547l3.618.652c-.29 1.065-.81 1.998-1.56 2.8-.741.792-1.675 1.41-2.8 1.853-1.116.435-2.39.652-3.822.652zm38.991-20.032-7.12 19.636h-4.091l-7.134-19.636h4.104l4.973 15.11h.205l4.96-15.11zm3.593 19.636v-19.636h3.822v19.636zm1.93-22.666c-.665 0-1.236-.222-1.713-.665-.469-.452-.703-.989-.703-1.611 0-.63.234-1.167.703-1.611.477-.451 1.048-.677 1.713-.677s1.232.226 1.7.677c.478.444.716.981.716 1.611 0 .622-.238 1.159-.716 1.611-.468.443-1.035.665-1.7.665zm15.498 23.062c-1.935 0-3.601-.413-4.999-1.24-1.389-.835-2.463-2.007-3.222-3.515-.75-1.517-1.124-3.294-1.124-5.331 0-2.012.374-3.784 1.124-5.319.759-1.534 1.816-2.731 3.171-3.592 1.364-.861 2.957-1.291 4.781-1.291 1.108 0 2.182.183 3.222.55 1.04.366 1.973.941 2.8 1.726.826.784 1.478 1.802 1.955 3.055.478 1.244.716 2.757.716 4.538v1.355h-15.609v-2.863h11.864c0-1.006-.205-1.897-.614-2.672-.409-.784-.984-1.402-1.726-1.854-.733-.452-1.594-.677-2.582-.677-1.074 0-2.012.264-2.813.792-.792.52-1.406 1.202-1.841 2.046-.426.835-.639 1.743-.639 2.723v2.237c0 1.312.23 2.429.691 3.349.468.921 1.12 1.624 1.955 2.11.836.477 1.812.716 2.928.716.724 0 1.385-.103 1.982-.307.596-.213 1.112-.529 1.546-.946.435-.418.767-.933.998-1.547l3.617.652c-.289 1.065-.809 1.998-1.559 2.8-.742.792-1.675 1.41-2.8 1.853-1.116.435-2.391.652-3.822.652zm16.887-.396-5.778-19.636h3.95l3.848 14.42h.192l3.861-14.42h3.95l3.835 14.356h.192l3.823-14.356h3.95l-5.766 19.636h-3.899l-3.989-14.178h-.294l-3.988 14.178zm25.45 0v-19.636h3.823v19.636zm1.931-22.666c-.665 0-1.236-.222-1.713-.665-.469-.452-.703-.989-.703-1.611 0-.63.234-1.167.703-1.611.477-.451 1.048-.677 1.713-.677s1.231.226 1.7.677c.477.444.716.981.716 1.611 0 .622-.239 1.159-.716 1.611-.469.443-1.035.665-1.7.665zm10.857 11.007v11.659h-3.823v-19.636h3.669v3.196h.243c.452-1.04 1.159-1.875 2.122-2.506.972-.631 2.195-.946 3.669-.946 1.338 0 2.51.281 3.516.844 1.006.554 1.785 1.38 2.339 2.48.554 1.099.831 2.459.831 4.078v12.49h-3.822v-12.03c0-1.423-.371-2.535-1.112-3.336-.742-.81-1.76-1.215-3.056-1.215-.886 0-1.674.192-2.365.575-.681.384-1.223.946-1.623 1.688-.392.733-.588 1.619-.588 2.659zm25.926 19.432c-1.56 0-2.902-.205-4.027-.614-1.117-.409-2.029-.95-2.736-1.623-.707-.674-1.236-1.411-1.585-2.212l3.285-1.355c.23.375.537.771.921 1.189.392.426.92.788 1.585 1.086.673.299 1.538.448 2.595.448 1.449 0 2.646-.354 3.592-1.061.947-.699 1.42-1.816 1.42-3.35v-3.861h-.243c-.23.418-.563.883-.998 1.394-.426.511-1.014.954-1.764 1.329s-1.726.563-2.927.563c-1.551 0-2.949-.362-4.193-1.087-1.236-.733-2.216-1.811-2.941-3.234-.716-1.432-1.074-3.192-1.074-5.28s.354-3.878 1.061-5.369c.716-1.492 1.696-2.634 2.941-3.426 1.244-.801 2.655-1.202 4.231-1.202 1.219 0 2.203.204 2.953.614.75.4 1.334.869 1.752 1.406.426.537.754 1.01.984 1.419h.281v-3.183h3.746v20.071c0 1.687-.392 3.072-1.176 4.154-.784 1.083-1.845 1.884-3.183 2.404-1.33.52-2.83.78-4.5.78zm-.039-11.237c1.1 0 2.029-.256 2.787-.768.767-.519 1.347-1.261 1.739-2.224.401-.972.601-2.135.601-3.49 0-1.321-.196-2.484-.588-3.49s-.968-1.79-1.726-2.352c-.759-.571-1.696-.857-2.813-.857-1.15 0-2.109.298-2.876.895-.767.588-1.347 1.389-1.739 2.403-.383 1.015-.575 2.148-.575 3.401 0 1.287.196 2.416.588 3.388.392.971.972 1.73 1.739 2.275.775.546 1.73.819 2.863.819zm31.823 3.86c-1.841 0-3.447-.422-4.819-1.265-1.373-.844-2.438-2.024-3.196-3.542-.759-1.517-1.138-3.289-1.138-5.318 0-2.037.379-3.818 1.138-5.343.758-1.526 1.823-2.711 3.196-3.554 1.372-.844 2.978-1.266 4.819-1.266s3.448.422 4.82 1.266c1.372.843 2.437 2.028 3.196 3.554.758 1.525 1.138 3.306 1.138 5.343 0 2.029-.38 3.801-1.138 5.318-.759 1.518-1.824 2.698-3.196 3.542-1.372.843-2.979 1.265-4.82 1.265zm.013-3.208c1.193 0 2.182-.316 2.966-.947.784-.63 1.364-1.47 1.739-2.518.383-1.048.575-2.203.575-3.464 0-1.253-.192-2.404-.575-3.452-.375-1.057-.955-1.905-1.739-2.544s-1.773-.959-2.966-.959c-1.202 0-2.199.32-2.991.959-.785.639-1.368 1.487-1.752 2.544-.375 1.048-.562 2.199-.562 3.452 0 1.261.187 2.416.562 3.464.384 1.048.967 1.888 1.752 2.518.792.631 1.789.947 2.991.947zm25.846-5.331v-11.493h3.835v19.636h-3.758v-3.401h-.205c-.451 1.049-1.176 1.922-2.173 2.621-.988.691-2.22 1.036-3.694 1.036-1.262 0-2.378-.277-3.35-.831-.963-.563-1.721-1.394-2.275-2.493-.546-1.1-.819-2.459-.819-4.078v-12.49h3.823v12.029c0 1.339.371 2.404 1.112 3.196.741.793 1.705 1.189 2.889 1.189.716 0 1.428-.179 2.135-.537.716-.357 1.308-.899 1.777-1.623.477-.725.712-1.645.703-2.761zm8.972 8.143v-19.636h3.694v3.119h.205c.358-1.057.988-1.888 1.892-2.493.912-.614 1.943-.92 3.093-.92.239 0 .52.008.844.025.333.017.593.039.78.064v3.656c-.153-.042-.426-.089-.818-.14-.392-.06-.784-.09-1.176-.09-.904 0-1.709.192-2.416.576-.699.375-1.253.899-1.662 1.572-.41.665-.614 1.423-.614 2.276v11.991zm23.65-26.182h4.794l8.335 20.352h.307l8.335-20.352h4.794v26.182h-3.758v-18.946h-.243l-7.722 18.908h-3.119l-7.722-18.921h-.242v18.959h-3.759zm34.597 0 7.287 21.324h.294l7.287-21.324h4.27l-9.422 26.182h-4.564l-9.422-26.182zm22.914 26.182v-26.182h9.34c2.03 0 3.72.371 5.06 1.112 1.34.742 2.34 1.756 3 3.043.67 1.278 1 2.719 1 4.321 0 1.611-.34 3.06-1.01 4.347-.66 1.278-1.67 2.292-3.02 3.042-1.33.742-3.02 1.112-5.05 1.112h-6.41v-3.349h6.06c1.28 0 2.33-.222 3.13-.665.8-.451 1.39-1.065 1.76-1.841.38-.775.57-1.657.57-2.646s-.19-1.866-.57-2.633c-.37-.768-.96-1.368-1.77-1.803s-1.86-.652-3.17-.652h-4.97v22.794zm36.51 0-5.78-19.636h3.95l3.85 14.42h.19l3.86-14.42h3.95l3.84 14.356h.19l3.82-14.356h3.95l-5.76 19.636h-3.9l-3.99-14.178h-.3l-3.98 14.178zm33.32.396c-1.94 0-3.61-.413-5-1.24-1.39-.835-2.47-2.007-3.23-3.515-.75-1.517-1.12-3.294-1.12-5.331 0-2.012.37-3.784 1.12-5.319.76-1.534 1.82-2.731 3.18-3.592s2.95-1.291 4.78-1.291c1.1 0 2.18.183 3.22.55 1.04.366 1.97.941 2.8 1.726.82.784 1.48 1.802 1.95 3.055.48 1.244.72 2.757.72 4.538v1.355h-15.61v-2.863h11.86c0-1.006-.2-1.897-.61-2.672-.41-.784-.98-1.402-1.73-1.854-.73-.452-1.59-.677-2.58-.677-1.07 0-2.01.264-2.81.792-.79.52-1.41 1.202-1.84 2.046-.43.835-.64 1.743-.64 2.723v2.237c0 1.312.23 2.429.69 3.349.47.921 1.12 1.624 1.96 2.11.83.477 1.81.716 2.92.716.73 0 1.39-.103 1.98-.307.6-.213 1.12-.529 1.55-.946.44-.418.77-.933 1-1.547l3.62.652c-.29 1.065-.81 1.998-1.56 2.8-.74.792-1.68 1.41-2.8 1.853-1.12.435-2.39.652-3.82.652zm12.97-.396v-26.182h3.82v9.729h.23c.22-.409.54-.882.96-1.419s1-1.006 1.74-1.406c.74-.41 1.72-.614 2.94-.614 1.58 0 3 .401 4.24 1.202 1.25.801 2.22 1.956 2.93 3.464.72 1.509 1.07 3.324 1.07 5.446s-.35 3.942-1.06 5.459c-.7 1.508-1.68 2.672-2.91 3.49-1.24.81-2.65 1.215-4.23 1.215-1.2 0-2.17-.201-2.93-.601-.75-.401-1.34-.87-1.77-1.407-.42-.537-.75-1.014-.98-1.431h-.32v3.055zm3.74-9.818c0 1.38.2 2.591.6 3.63.4 1.04.98 1.854 1.74 2.442.76.58 1.69.87 2.79.87 1.14 0 2.1-.303 2.86-.908.77-.614 1.35-1.445 1.74-2.493.4-1.048.6-2.229.6-3.541 0-1.296-.19-2.459-.59-3.49-.38-1.031-.96-1.845-1.73-2.442s-1.73-.895-2.88-.895c-1.11 0-2.05.286-2.81.857s-1.34 1.368-1.73 2.39c-.39 1.023-.59 2.216-.59 3.58zm33.2-5.024-3.46.613c-.15-.443-.38-.865-.69-1.265-.31-.401-.73-.729-1.26-.985-.53-.255-1.19-.383-1.98-.383-1.08 0-1.98.243-2.71.728-.72.478-1.09 1.096-1.09 1.854 0 .656.25 1.185.73 1.585.49.401 1.27.729 2.36.985l3.11.716c1.81.417 3.16 1.061 4.04 1.93.89.869 1.33 1.999 1.33 3.388 0 1.176-.34 2.224-1.02 3.145-.67.912-1.61 1.628-2.82 2.147-1.21.52-2.6.78-4.18.78-2.2 0-4-.468-5.39-1.406-1.39-.946-2.24-2.288-2.55-4.027l3.69-.562c.23.963.7 1.691 1.42 2.186.72.485 1.65.728 2.8.728 1.25 0 2.25-.26 3-.779.75-.529 1.13-1.172 1.13-1.931 0-.614-.23-1.129-.69-1.547-.45-.417-1.15-.733-2.08-.946l-3.33-.728c-1.83-.418-3.19-1.083-4.06-1.995s-1.31-2.067-1.31-3.464c0-1.159.33-2.174.97-3.043.65-.869 1.55-1.547 2.69-2.033 1.14-.494 2.45-.741 3.92-.741 2.13 0 3.8.46 5.01 1.381 1.22.912 2.03 2.135 2.42 3.669zm4.59 14.842v-19.636h3.82v19.636zm1.93-22.666c-.67 0-1.24-.222-1.72-.665-.46-.452-.7-.989-.7-1.611 0-.63.24-1.167.7-1.611.48-.451 1.05-.677 1.72-.677.66 0 1.23.226 1.7.677.47.444.71.981.71 1.611 0 .622-.24 1.159-.71 1.611-.47.443-1.04.665-1.7.665zm16.2 3.03v3.068h-10.73v-3.068zm-7.85-4.705h3.82v18.575c0 .742.11 1.3.33 1.675.22.367.51.618.86.754.36.128.75.192 1.16.192.31 0 .58-.021.81-.064.23-.042.41-.077.54-.102l.69 3.158c-.23.085-.54.17-.95.255-.41.094-.92.145-1.53.154-1.01.017-1.95-.162-2.82-.537s-1.57-.955-2.11-1.739c-.53-.784-.8-1.768-.8-2.953zm20.33 24.737c-1.94 0-3.6-.413-5-1.24-1.39-.835-2.46-2.007-3.22-3.515-.75-1.517-1.13-3.294-1.13-5.331 0-2.012.38-3.784 1.13-5.319.76-1.534 1.81-2.731 3.17-3.592s2.96-1.291 4.78-1.291c1.11 0 2.18.183 3.22.55 1.04.366 1.97.941 2.8 1.726.83.784 1.48 1.802 1.96 3.055.47 1.244.71 2.757.71 4.538v1.355h-15.61v-2.863h11.87c0-1.006-.21-1.897-.62-2.672-.41-.784-.98-1.402-1.72-1.854s-1.6-.677-2.58-.677c-1.08 0-2.02.264-2.82.792-.79.52-1.4 1.202-1.84 2.046-.42.835-.64 1.743-.64 2.723v2.237c0 1.312.23 2.429.69 3.349.47.921 1.12 1.624 1.96 2.11.83.477 1.81.716 2.93.716.72 0 1.38-.103 1.98-.307.59-.213 1.11-.529 1.55-.946.43-.418.76-.933.99-1.547l3.62.652c-.29 1.065-.81 1.998-1.56 2.8-.74.792-1.67 1.41-2.8 1.853-1.12.435-2.39.652-3.82.652zm15.18-.153c-.7 0-1.3-.247-1.8-.742-.5-.502-.75-1.108-.75-1.815 0-.699.25-1.295.75-1.79.5-.503 1.1-.754 1.8-.754s1.3.251 1.81.754c.5.495.75 1.091.75 1.79 0 .469-.12.899-.36 1.291-.23.384-.54.691-.92.921s-.81.345-1.28.345z" fill="#000"/><path d="m75.5 302h1206" stroke="#828282" stroke-dasharray="10 10"/></svg>