<svg width="1385" height="694" viewBox="0 0 1385 694" fill="none" xmlns="http://www.w3.org/2000/svg">
<rect width="1385" height="694" fill="white"/>
<path d="M332.876 113V86.8182H349.112V90.2188H336.827V98.196H347.949V101.584H336.827V113H332.876ZM353.417 113V93.3636H357.112V96.483H357.316C357.674 95.4261 358.305 94.5952 359.208 93.9901C360.12 93.3764 361.152 93.0696 362.302 93.0696C362.541 93.0696 362.822 93.0781 363.146 93.0952C363.478 93.1122 363.738 93.1335 363.926 93.1591V96.8153C363.772 96.7727 363.5 96.7259 363.108 96.6747C362.716 96.6151 362.324 96.5852 361.931 96.5852C361.028 96.5852 360.223 96.777 359.515 97.1605C358.816 97.5355 358.262 98.0597 357.853 98.733C357.444 99.3977 357.24 100.156 357.24 101.009V113H353.417ZM374.802 113.396C372.961 113.396 371.354 112.974 369.982 112.131C368.61 111.287 367.545 110.107 366.786 108.589C366.028 107.072 365.648 105.3 365.648 103.271C365.648 101.234 366.028 99.4531 366.786 97.9276C367.545 96.402 368.61 95.2173 369.982 94.3736C371.354 93.5298 372.961 93.108 374.802 93.108C376.643 93.108 378.249 93.5298 379.621 94.3736C380.994 95.2173 382.059 96.402 382.817 97.9276C383.576 99.4531 383.955 101.234 383.955 103.271C383.955 105.3 383.576 107.072 382.817 108.589C382.059 110.107 380.994 111.287 379.621 112.131C378.249 112.974 376.643 113.396 374.802 113.396ZM374.815 110.188C376.008 110.188 376.996 109.872 377.781 109.241C378.565 108.611 379.144 107.771 379.519 106.723C379.903 105.675 380.094 104.52 380.094 103.259C380.094 102.006 379.903 100.855 379.519 99.8068C379.144 98.75 378.565 97.902 377.781 97.2628C376.996 96.6236 376.008 96.304 374.815 96.304C373.613 96.304 372.616 96.6236 371.823 97.2628C371.039 97.902 370.455 98.75 370.072 99.8068C369.697 100.855 369.509 102.006 369.509 103.259C369.509 104.52 369.697 105.675 370.072 106.723C370.455 107.771 371.039 108.611 371.823 109.241C372.616 109.872 373.613 110.188 374.815 110.188ZM388.222 113V93.3636H391.891V96.5597H392.134C392.543 95.4773 393.212 94.6335 394.141 94.0284C395.07 93.4148 396.182 93.108 397.478 93.108C398.79 93.108 399.89 93.4148 400.776 94.0284C401.671 94.642 402.331 95.4858 402.757 96.5597H402.962C403.431 95.5114 404.176 94.6761 405.199 94.054C406.222 93.4233 407.441 93.108 408.855 93.108C410.637 93.108 412.09 93.6662 413.215 94.7827C414.348 95.8991 414.915 97.5824 414.915 99.8324V113H411.093V100.19C411.093 98.8608 410.73 97.8977 410.006 97.3011C409.282 96.7045 408.417 96.4062 407.411 96.4062C406.167 96.4062 405.199 96.7898 404.509 97.5568C403.819 98.3153 403.473 99.2912 403.473 100.484V113H399.664V99.9474C399.664 98.8821 399.331 98.0256 398.667 97.3778C398.002 96.7301 397.137 96.4062 396.071 96.4062C395.347 96.4062 394.678 96.598 394.064 96.9815C393.459 97.3565 392.969 97.8807 392.594 98.554C392.228 99.2273 392.044 100.007 392.044 100.893V113H388.222ZM439.448 86.8182V113H435.485V90.7812H435.331L429.067 94.8722V91.0881L435.6 86.8182H439.448ZM455.172 113.358C453.57 113.358 452.13 113.051 450.851 112.438C449.581 111.815 448.567 110.963 447.809 109.881C447.05 108.798 446.645 107.562 446.594 106.173H450.429C450.523 107.298 451.022 108.223 451.925 108.947C452.828 109.672 453.911 110.034 455.172 110.034C456.178 110.034 457.069 109.804 457.844 109.344C458.628 108.875 459.242 108.232 459.685 107.413C460.137 106.595 460.363 105.662 460.363 104.614C460.363 103.548 460.132 102.598 459.672 101.763C459.212 100.928 458.577 100.271 457.767 99.794C456.966 99.3168 456.046 99.0739 455.006 99.0653C454.213 99.0653 453.417 99.2017 452.615 99.4744C451.814 99.7472 451.167 100.105 450.672 100.548L447.054 100.011L448.525 86.8182H462.919V90.206H451.81L450.979 97.5312H451.132C451.644 97.0369 452.321 96.6236 453.165 96.2912C454.017 95.9588 454.929 95.7926 455.901 95.7926C457.495 95.7926 458.914 96.1719 460.158 96.9304C461.411 97.6889 462.395 98.7244 463.111 100.037C463.836 101.341 464.194 102.841 464.185 104.537C464.194 106.233 463.81 107.746 463.034 109.075C462.267 110.405 461.202 111.453 459.838 112.22C458.483 112.979 456.928 113.358 455.172 113.358ZM477.969 113.358C476.214 113.358 474.646 113.055 473.265 112.45C471.893 111.845 470.806 111.006 470.005 109.932C469.212 108.849 468.786 107.597 468.727 106.173H472.741C472.792 106.949 473.052 107.622 473.521 108.193C473.998 108.756 474.62 109.19 475.387 109.497C476.154 109.804 477.006 109.957 477.944 109.957C478.975 109.957 479.887 109.778 480.68 109.42C481.481 109.062 482.107 108.564 482.559 107.925C483.011 107.277 483.237 106.531 483.237 105.688C483.237 104.81 483.011 104.038 482.559 103.374C482.116 102.7 481.464 102.172 480.603 101.788C479.751 101.405 478.719 101.213 477.509 101.213H475.298V97.9915H477.509C478.481 97.9915 479.333 97.8168 480.066 97.4673C480.808 97.1179 481.387 96.6321 481.805 96.0099C482.222 95.3793 482.431 94.642 482.431 93.7983C482.431 92.9886 482.248 92.2855 481.881 91.6889C481.523 91.0838 481.012 90.6108 480.347 90.2699C479.691 89.929 478.915 89.7585 478.021 89.7585C477.168 89.7585 476.371 89.9162 475.63 90.2315C474.897 90.5384 474.3 90.9815 473.84 91.5611C473.38 92.1321 473.133 92.8182 473.099 93.6193H469.276C469.319 92.2045 469.737 90.9602 470.529 89.8864C471.33 88.8125 472.387 87.973 473.7 87.3679C475.012 86.7628 476.469 86.4602 478.072 86.4602C479.751 86.4602 481.2 86.7884 482.418 87.4446C483.646 88.0923 484.592 88.9574 485.256 90.0398C485.93 91.1222 486.262 92.3068 486.254 93.5938C486.262 95.0597 485.853 96.304 485.026 97.3267C484.208 98.3494 483.117 99.0355 481.754 99.3849V99.5895C483.492 99.8537 484.839 100.544 485.793 101.661C486.756 102.777 487.234 104.162 487.225 105.815C487.234 107.256 486.833 108.547 486.023 109.689C485.222 110.831 484.127 111.73 482.738 112.386C481.349 113.034 479.759 113.358 477.969 113.358ZM501.636 113V93.3636H505.331V96.483H505.535C505.893 95.4261 506.524 94.5952 507.427 93.9901C508.339 93.3764 509.37 93.0696 510.521 93.0696C510.76 93.0696 511.041 93.0781 511.365 93.0952C511.697 93.1122 511.957 93.1335 512.145 93.1591V96.8153C511.991 96.7727 511.718 96.7259 511.326 96.6747C510.934 96.6151 510.542 96.5852 510.15 96.5852C509.247 96.5852 508.441 96.777 507.734 97.1605C507.035 97.5355 506.481 98.0597 506.072 98.733C505.663 99.3977 505.458 100.156 505.458 101.009V113H501.636ZM523.212 113.396C521.278 113.396 519.612 112.983 518.214 112.156C516.825 111.321 515.751 110.149 514.992 108.641C514.242 107.124 513.867 105.347 513.867 103.31C513.867 101.298 514.242 99.5256 514.992 97.9915C515.751 96.4574 516.808 95.2599 518.163 94.3991C519.526 93.5384 521.12 93.108 522.944 93.108C524.052 93.108 525.126 93.2912 526.165 93.6577C527.205 94.0241 528.138 94.5994 528.965 95.3835C529.792 96.1676 530.444 97.1861 530.921 98.4389C531.398 99.6832 531.637 101.196 531.637 102.977V104.332H516.028V101.469H527.891C527.891 100.463 527.687 99.5724 527.278 98.7969C526.869 98.0128 526.293 97.3949 525.552 96.9432C524.819 96.4915 523.958 96.2656 522.969 96.2656C521.896 96.2656 520.958 96.5298 520.157 97.0582C519.364 97.5781 518.751 98.2599 518.316 99.1037C517.89 99.9389 517.677 100.847 517.677 101.827V104.064C517.677 105.376 517.907 106.493 518.367 107.413C518.836 108.334 519.488 109.037 520.323 109.523C521.158 110 522.134 110.239 523.251 110.239C523.975 110.239 524.636 110.136 525.232 109.932C525.829 109.719 526.344 109.403 526.779 108.986C527.214 108.568 527.546 108.053 527.776 107.439L531.394 108.091C531.104 109.156 530.585 110.089 529.835 110.891C529.093 111.683 528.16 112.301 527.035 112.744C525.918 113.179 524.644 113.396 523.212 113.396ZM550.593 98.1577L547.128 98.7713C546.983 98.3281 546.753 97.9062 546.438 97.5057C546.131 97.1051 545.713 96.777 545.185 96.5213C544.657 96.2656 543.996 96.1378 543.203 96.1378C542.121 96.1378 541.218 96.3807 540.493 96.8665C539.769 97.3437 539.407 97.9616 539.407 98.7202C539.407 99.3764 539.65 99.9048 540.135 100.305C540.621 100.706 541.405 101.034 542.488 101.29L545.607 102.006C547.414 102.423 548.76 103.067 549.647 103.936C550.533 104.805 550.976 105.935 550.976 107.324C550.976 108.5 550.635 109.548 549.953 110.469C549.28 111.381 548.338 112.097 547.128 112.616C545.926 113.136 544.533 113.396 542.948 113.396C540.749 113.396 538.955 112.928 537.566 111.99C536.176 111.044 535.324 109.702 535.009 107.963L538.703 107.401C538.934 108.364 539.407 109.092 540.123 109.587C540.838 110.072 541.772 110.315 542.922 110.315C544.175 110.315 545.176 110.055 545.926 109.536C546.676 109.007 547.051 108.364 547.051 107.605C547.051 106.991 546.821 106.476 546.361 106.058C545.909 105.641 545.215 105.325 544.277 105.112L540.953 104.384C539.121 103.966 537.766 103.301 536.888 102.389C536.019 101.477 535.584 100.322 535.584 98.9247C535.584 97.7656 535.908 96.7514 536.556 95.8821C537.203 95.0128 538.098 94.3352 539.24 93.8494C540.382 93.3551 541.691 93.108 543.165 93.108C545.287 93.108 546.958 93.5682 548.176 94.4886C549.395 95.4006 550.201 96.6236 550.593 98.1577ZM555.179 120.364V93.3636H558.912V96.5469H559.232C559.453 96.1378 559.773 95.6648 560.19 95.1278C560.608 94.5909 561.188 94.1222 561.929 93.7216C562.67 93.3125 563.651 93.108 564.869 93.108C566.455 93.108 567.869 93.5085 569.114 94.3097C570.358 95.1108 571.334 96.2656 572.041 97.7741C572.757 99.2827 573.115 101.098 573.115 103.22C573.115 105.342 572.761 107.162 572.054 108.679C571.347 110.187 570.375 111.351 569.139 112.169C567.903 112.979 566.493 113.384 564.908 113.384C563.714 113.384 562.739 113.183 561.98 112.783C561.23 112.382 560.642 111.913 560.216 111.376C559.79 110.839 559.462 110.362 559.232 109.945H559.001V120.364H555.179ZM558.925 103.182C558.925 104.562 559.125 105.773 559.526 106.812C559.926 107.852 560.506 108.666 561.264 109.254C562.023 109.834 562.952 110.124 564.051 110.124C565.193 110.124 566.148 109.821 566.915 109.216C567.682 108.602 568.261 107.771 568.653 106.723C569.054 105.675 569.254 104.494 569.254 103.182C569.254 101.886 569.058 100.723 568.666 99.6918C568.283 98.6605 567.703 97.8466 566.928 97.25C566.161 96.6534 565.202 96.3551 564.051 96.3551C562.943 96.3551 562.006 96.6406 561.239 97.2116C560.48 97.7827 559.905 98.5795 559.513 99.6023C559.121 100.625 558.925 101.818 558.925 103.182ZM585.669 113.396C583.828 113.396 582.222 112.974 580.849 112.131C579.477 111.287 578.412 110.107 577.653 108.589C576.895 107.072 576.516 105.3 576.516 103.271C576.516 101.234 576.895 99.4531 577.653 97.9276C578.412 96.402 579.477 95.2173 580.849 94.3736C582.222 93.5298 583.828 93.108 585.669 93.108C587.51 93.108 589.116 93.5298 590.489 94.3736C591.861 95.2173 592.926 96.402 593.685 97.9276C594.443 99.4531 594.822 101.234 594.822 103.271C594.822 105.3 594.443 107.072 593.685 108.589C592.926 110.107 591.861 111.287 590.489 112.131C589.116 112.974 587.51 113.396 585.669 113.396ZM585.682 110.188C586.875 110.188 587.864 109.872 588.648 109.241C589.432 108.611 590.011 107.771 590.386 106.723C590.77 105.675 590.962 104.52 590.962 103.259C590.962 102.006 590.77 100.855 590.386 99.8068C590.011 98.75 589.432 97.902 588.648 97.2628C587.864 96.6236 586.875 96.304 585.682 96.304C584.48 96.304 583.483 96.6236 582.69 97.2628C581.906 97.902 581.322 98.75 580.939 99.8068C580.564 100.855 580.376 102.006 580.376 103.259C580.376 104.52 580.564 105.675 580.939 106.723C581.322 107.771 581.906 108.611 582.69 109.241C583.483 109.872 584.48 110.188 585.682 110.188ZM602.912 101.341V113H599.089V93.3636H602.758V96.5597H603.001C603.453 95.5199 604.16 94.6847 605.123 94.054C606.095 93.4233 607.318 93.108 608.792 93.108C610.13 93.108 611.302 93.3892 612.308 93.9517C613.314 94.5057 614.093 95.3324 614.647 96.4318C615.201 97.5312 615.478 98.8906 615.478 100.51V113H611.656V100.97C611.656 99.5469 611.285 98.4347 610.544 97.6335C609.802 96.8239 608.784 96.419 607.488 96.419C606.602 96.419 605.814 96.6108 605.123 96.9943C604.441 97.3778 603.9 97.9403 603.5 98.6818C603.108 99.4148 602.912 100.301 602.912 101.341ZM627.956 113.384C626.37 113.384 624.956 112.979 623.711 112.169C622.475 111.351 621.504 110.187 620.797 108.679C620.098 107.162 619.748 105.342 619.748 103.22C619.748 101.098 620.102 99.2827 620.809 97.7741C621.525 96.2656 622.505 95.1108 623.75 94.3097C624.994 93.5085 626.404 93.108 627.981 93.108C629.2 93.108 630.18 93.3125 630.922 93.7216C631.672 94.1222 632.251 94.5909 632.66 95.1278C633.078 95.6648 633.402 96.1378 633.632 96.5469H633.862V86.8182H637.684V113H633.951V109.945H633.632C633.402 110.362 633.069 110.839 632.635 111.376C632.208 111.913 631.62 112.382 630.87 112.783C630.12 113.183 629.149 113.384 627.956 113.384ZM628.799 110.124C629.899 110.124 630.828 109.834 631.586 109.254C632.353 108.666 632.933 107.852 633.325 106.812C633.725 105.773 633.926 104.562 633.926 103.182C633.926 101.818 633.73 100.625 633.338 99.6023C632.946 98.5795 632.37 97.7827 631.612 97.2116C630.853 96.6406 629.916 96.3551 628.799 96.3551C627.649 96.3551 626.69 96.6534 625.923 97.25C625.156 97.8466 624.576 98.6605 624.184 99.6918C623.801 100.723 623.609 101.886 623.609 103.182C623.609 104.494 623.805 105.675 624.197 106.723C624.589 107.771 625.169 108.602 625.936 109.216C626.711 109.821 627.666 110.124 628.799 110.124ZM651.603 113.396C649.668 113.396 648.002 112.983 646.604 112.156C645.215 111.321 644.141 110.149 643.383 108.641C642.633 107.124 642.258 105.347 642.258 103.31C642.258 101.298 642.633 99.5256 643.383 97.9915C644.141 96.4574 645.198 95.2599 646.553 94.3991C647.917 93.5384 649.511 93.108 651.335 93.108C652.442 93.108 653.516 93.2912 654.556 93.6577C655.596 94.0241 656.529 94.5994 657.356 95.3835C658.183 96.1676 658.835 97.1861 659.312 98.4389C659.789 99.6832 660.028 101.196 660.028 102.977V104.332H644.418V101.469H656.282C656.282 100.463 656.077 99.5724 655.668 98.7969C655.259 98.0128 654.684 97.3949 653.942 96.9432C653.21 96.4915 652.349 96.2656 651.36 96.2656C650.286 96.2656 649.349 96.5298 648.548 97.0582C647.755 97.5781 647.141 98.2599 646.707 99.1037C646.281 99.9389 646.067 100.847 646.067 101.827V104.064C646.067 105.376 646.298 106.493 646.758 107.413C647.227 108.334 647.879 109.037 648.714 109.523C649.549 110 650.525 110.239 651.641 110.239C652.366 110.239 653.026 110.136 653.623 109.932C654.219 109.719 654.735 109.403 655.17 108.986C655.604 108.568 655.937 108.053 656.167 107.439L659.785 108.091C659.495 109.156 658.975 110.089 658.225 110.891C657.484 111.683 656.55 112.301 655.425 112.744C654.309 113.179 653.035 113.396 651.603 113.396ZM668.091 101.341V113H664.269V93.3636H667.938V96.5597H668.181C668.632 95.5199 669.34 94.6847 670.303 94.054C671.275 93.4233 672.498 93.108 673.972 93.108C675.31 93.108 676.482 93.3892 677.488 93.9517C678.493 94.5057 679.273 95.3324 679.827 96.4318C680.381 97.5312 680.658 98.8906 680.658 100.51V113H676.836V100.97C676.836 99.5469 676.465 98.4347 675.723 97.6335C674.982 96.8239 673.963 96.419 672.668 96.419C671.782 96.419 670.993 96.6108 670.303 96.9943C669.621 97.3778 669.08 97.9403 668.679 98.6818C668.287 99.4148 668.091 100.301 668.091 101.341ZM694.951 93.3636V96.4318H684.225V93.3636H694.951ZM687.101 88.6591H690.924V107.234C690.924 107.976 691.034 108.534 691.256 108.909C691.478 109.276 691.763 109.527 692.113 109.663C692.471 109.791 692.858 109.855 693.276 109.855C693.583 109.855 693.851 109.834 694.081 109.791C694.311 109.749 694.49 109.714 694.618 109.689L695.309 112.847C695.087 112.932 694.772 113.017 694.363 113.102C693.953 113.196 693.442 113.247 692.828 113.256C691.823 113.273 690.885 113.094 690.016 112.719C689.147 112.344 688.444 111.764 687.907 110.98C687.37 110.196 687.101 109.212 687.101 108.027V88.6591ZM713.577 98.1577L710.113 98.7713C709.968 98.3281 709.738 97.9062 709.422 97.5057C709.115 97.1051 708.698 96.777 708.169 96.5213C707.641 96.2656 706.98 96.1378 706.188 96.1378C705.105 96.1378 704.202 96.3807 703.478 96.8665C702.753 97.3437 702.391 97.9616 702.391 98.7202C702.391 99.3764 702.634 99.9048 703.12 100.305C703.605 100.706 704.39 101.034 705.472 101.29L708.591 102.006C710.398 102.423 711.745 103.067 712.631 103.936C713.517 104.805 713.961 105.935 713.961 107.324C713.961 108.5 713.62 109.548 712.938 110.469C712.265 111.381 711.323 112.097 710.113 112.616C708.911 113.136 707.517 113.396 705.932 113.396C703.733 113.396 701.939 112.928 700.55 111.99C699.161 111.044 698.309 109.702 697.993 107.963L701.688 107.401C701.918 108.364 702.391 109.092 703.107 109.587C703.823 110.072 704.756 110.315 705.907 110.315C707.159 110.315 708.161 110.055 708.911 109.536C709.661 109.007 710.036 108.364 710.036 107.605C710.036 106.991 709.806 106.476 709.346 106.058C708.894 105.641 708.199 105.325 707.262 105.112L703.938 104.384C702.105 103.966 700.75 103.301 699.873 102.389C699.003 101.477 698.569 100.322 698.569 98.9247C698.569 97.7656 698.892 96.7514 699.54 95.8821C700.188 95.0128 701.083 94.3352 702.225 93.8494C703.367 93.3551 704.675 93.108 706.15 93.108C708.272 93.108 709.942 93.5682 711.161 94.4886C712.38 95.4006 713.185 96.6236 713.577 98.1577ZM727.691 113V93.3636H731.513V113H727.691ZM729.621 90.3338C728.956 90.3338 728.385 90.1122 727.908 89.669C727.439 89.2173 727.205 88.6804 727.205 88.0582C727.205 87.4276 727.439 86.8906 727.908 86.4474C728.385 85.9957 728.956 85.7699 729.621 85.7699C730.286 85.7699 730.853 85.9957 731.321 86.4474C731.799 86.8906 732.037 87.4276 732.037 88.0582C732.037 88.6804 731.799 89.2173 731.321 89.669C730.853 90.1122 730.286 90.3338 729.621 90.3338ZM740.478 101.341V113H736.656V93.3636H740.325V96.5597H740.567C741.019 95.5199 741.727 94.6847 742.69 94.054C743.661 93.4233 744.884 93.108 746.359 93.108C747.697 93.108 748.869 93.3892 749.874 93.9517C750.88 94.5057 751.66 95.3324 752.214 96.4318C752.768 97.5312 753.045 98.8906 753.045 100.51V113H749.222V100.97C749.222 99.5469 748.852 98.4347 748.11 97.6335C747.369 96.8239 746.35 96.419 745.055 96.419C744.168 96.419 743.38 96.6108 742.69 96.9943C742.008 97.3778 741.467 97.9403 741.066 98.6818C740.674 99.4148 740.478 100.301 740.478 101.341ZM776.865 93.3636V96.4318H766.139V93.3636H776.865ZM769.015 88.6591H772.838V107.234C772.838 107.976 772.949 108.534 773.17 108.909C773.392 109.276 773.677 109.527 774.027 109.663C774.385 109.791 774.772 109.855 775.19 109.855C775.497 109.855 775.765 109.834 775.995 109.791C776.225 109.749 776.404 109.714 776.532 109.689L777.223 112.847C777.001 112.932 776.686 113.017 776.277 113.102C775.868 113.196 775.356 113.247 774.743 113.256C773.737 113.273 772.799 113.094 771.93 112.719C771.061 112.344 770.358 111.764 769.821 110.98C769.284 110.196 769.015 109.212 769.015 108.027V88.6591ZM785.337 101.341V113H781.515V86.8182H785.286V96.5597H785.529C785.989 95.5028 786.692 94.6634 787.638 94.0412C788.585 93.419 789.82 93.108 791.346 93.108C792.692 93.108 793.869 93.3849 794.874 93.9389C795.888 94.4929 796.673 95.3196 797.227 96.419C797.789 97.5099 798.07 98.8736 798.07 100.51V113H794.248V100.97C794.248 99.5298 793.877 98.4134 793.136 97.6207C792.394 96.8196 791.363 96.419 790.042 96.419C789.138 96.419 788.329 96.6108 787.613 96.9943C786.906 97.3778 786.347 97.9403 785.938 98.6818C785.538 99.4148 785.337 100.301 785.337 101.341ZM811.634 113.396C809.7 113.396 808.033 112.983 806.636 112.156C805.246 111.321 804.173 110.149 803.414 108.641C802.664 107.124 802.289 105.347 802.289 103.31C802.289 101.298 802.664 99.5256 803.414 97.9915C804.173 96.4574 805.229 95.2599 806.585 94.3991C807.948 93.5384 809.542 93.108 811.366 93.108C812.474 93.108 813.548 93.2912 814.587 93.6577C815.627 94.0241 816.56 94.5994 817.387 95.3835C818.214 96.1676 818.866 97.1861 819.343 98.4389C819.82 99.6832 820.059 101.196 820.059 102.977V104.332H804.45V101.469H816.313C816.313 100.463 816.109 99.5724 815.7 98.7969C815.29 98.0128 814.715 97.3949 813.974 96.9432C813.241 96.4915 812.38 96.2656 811.391 96.2656C810.317 96.2656 809.38 96.5298 808.579 97.0582C807.786 97.5781 807.173 98.2599 806.738 99.1037C806.312 99.9389 806.099 100.847 806.099 101.827V104.064C806.099 105.376 806.329 106.493 806.789 107.413C807.258 108.334 807.91 109.037 808.745 109.523C809.58 110 810.556 110.239 811.673 110.239C812.397 110.239 813.058 110.136 813.654 109.932C814.251 109.719 814.766 109.403 815.201 108.986C815.636 108.568 815.968 108.053 816.198 107.439L819.816 108.091C819.526 109.156 819.006 110.089 818.256 110.891C817.515 111.683 816.582 112.301 815.457 112.744C814.34 113.179 813.066 113.396 811.634 113.396ZM848.542 98.1577L845.077 98.7713C844.933 98.3281 844.702 97.9062 844.387 97.5057C844.08 97.1051 843.663 96.777 843.134 96.5213C842.606 96.2656 841.945 96.1378 841.153 96.1378C840.07 96.1378 839.167 96.3807 838.442 96.8665C837.718 97.3437 837.356 97.9616 837.356 98.7202C837.356 99.3764 837.599 99.9048 838.085 100.305C838.57 100.706 839.354 101.034 840.437 101.29L843.556 102.006C845.363 102.423 846.71 103.067 847.596 103.936C848.482 104.805 848.925 105.935 848.925 107.324C848.925 108.5 848.585 109.548 847.903 110.469C847.229 111.381 846.288 112.097 845.077 112.616C843.876 113.136 842.482 113.396 840.897 113.396C838.698 113.396 836.904 112.928 835.515 111.99C834.126 111.044 833.273 109.702 832.958 107.963L836.653 107.401C836.883 108.364 837.356 109.092 838.072 109.587C838.788 110.072 839.721 110.315 840.871 110.315C842.124 110.315 843.126 110.055 843.876 109.536C844.626 109.007 845.001 108.364 845.001 107.605C845.001 106.991 844.771 106.476 844.31 106.058C843.859 105.641 843.164 105.325 842.227 105.112L838.903 104.384C837.07 103.966 835.715 103.301 834.837 102.389C833.968 101.477 833.533 100.322 833.533 98.9247C833.533 97.7656 833.857 96.7514 834.505 95.8821C835.153 95.0128 836.048 94.3352 837.19 93.8494C838.332 93.3551 839.64 93.108 841.114 93.108C843.237 93.108 844.907 93.5682 846.126 94.4886C847.344 95.4006 848.15 96.6236 848.542 98.1577ZM865.567 104.857V93.3636H869.402V113H865.644V109.599H865.439C864.988 110.648 864.263 111.521 863.266 112.22C862.277 112.911 861.046 113.256 859.571 113.256C858.31 113.256 857.194 112.979 856.222 112.425C855.259 111.862 854.5 111.031 853.946 109.932C853.401 108.832 853.128 107.473 853.128 105.854V93.3636H856.951V105.393C856.951 106.732 857.321 107.797 858.063 108.589C858.804 109.382 859.767 109.778 860.952 109.778C861.668 109.778 862.38 109.599 863.087 109.241C863.803 108.884 864.395 108.342 864.864 107.618C865.341 106.893 865.576 105.973 865.567 104.857ZM874.538 113V93.3636H878.233V96.483H878.438C878.795 95.4261 879.426 94.5952 880.33 93.9901C881.241 93.3764 882.273 93.0696 883.423 93.0696C883.662 93.0696 883.943 93.0781 884.267 93.0952C884.599 93.1122 884.859 93.1335 885.047 93.1591V96.8153C884.893 96.7727 884.621 96.7259 884.229 96.6747C883.837 96.6151 883.445 96.5852 883.053 96.5852C882.149 96.5852 881.344 96.777 880.636 97.1605C879.938 97.5355 879.384 98.0597 878.974 98.733C878.565 99.3977 878.361 100.156 878.361 101.009V113H874.538ZM905.751 93.3636L898.63 113H894.539L887.406 93.3636H891.509L896.482 108.474H896.687L901.647 93.3636H905.751ZM917.138 113.396C915.203 113.396 913.537 112.983 912.14 112.156C910.75 111.321 909.676 110.149 908.918 108.641C908.168 107.124 907.793 105.347 907.793 103.31C907.793 101.298 908.168 99.5256 908.918 97.9915C909.676 96.4574 910.733 95.2599 912.088 94.3991C913.452 93.5384 915.046 93.108 916.87 93.108C917.978 93.108 919.051 93.2912 920.091 93.6577C921.131 94.0241 922.064 94.5994 922.891 95.3835C923.718 96.1676 924.37 97.1861 924.847 98.4389C925.324 99.6832 925.563 101.196 925.563 102.977V104.332H909.953V101.469H921.817C921.817 100.463 921.613 99.5724 921.203 98.7969C920.794 98.0128 920.219 97.3949 919.478 96.9432C918.745 96.4915 917.884 96.2656 916.895 96.2656C915.821 96.2656 914.884 96.5298 914.083 97.0582C913.29 97.5781 912.676 98.2599 912.242 99.1037C911.816 99.9389 911.603 100.847 911.603 101.827V104.064C911.603 105.376 911.833 106.493 912.293 107.413C912.762 108.334 913.414 109.037 914.249 109.523C915.084 110 916.06 110.239 917.176 110.239C917.901 110.239 918.561 110.136 919.158 109.932C919.755 109.719 920.27 109.403 920.705 108.986C921.14 108.568 921.472 108.053 921.702 107.439L925.32 108.091C925.03 109.156 924.51 110.089 923.76 110.891C923.019 111.683 922.086 112.301 920.961 112.744C919.844 113.179 918.57 113.396 917.138 113.396ZM931.658 120.364C931.087 120.364 930.567 120.317 930.098 120.223C929.629 120.138 929.28 120.044 929.05 119.942L929.97 116.81C930.669 116.997 931.291 117.078 931.837 117.053C932.382 117.027 932.864 116.822 933.281 116.439C933.707 116.055 934.082 115.429 934.406 114.56L934.879 113.256L927.695 93.3636H931.786L936.759 108.602H936.963L941.936 93.3636H946.04L937.947 115.621C937.572 116.643 937.095 117.509 936.516 118.216C935.936 118.932 935.246 119.469 934.445 119.827C933.643 120.185 932.714 120.364 931.658 120.364ZM959.159 113V93.3636H962.854V96.483H963.059C963.417 95.4261 964.047 94.5952 964.951 93.9901C965.863 93.3764 966.894 93.0696 968.044 93.0696C968.283 93.0696 968.564 93.0781 968.888 93.0952C969.221 93.1122 969.48 93.1335 969.668 93.1591V96.8153C969.515 96.7727 969.242 96.7259 968.85 96.6747C968.458 96.6151 968.066 96.5852 967.674 96.5852C966.77 96.5852 965.965 96.777 965.257 97.1605C964.559 97.5355 964.005 98.0597 963.596 98.733C963.186 99.3977 962.982 100.156 962.982 101.009V113H959.159ZM980.736 113.396C978.801 113.396 977.135 112.983 975.737 112.156C974.348 111.321 973.274 110.149 972.516 108.641C971.766 107.124 971.391 105.347 971.391 103.31C971.391 101.298 971.766 99.5256 972.516 97.9915C973.274 96.4574 974.331 95.2599 975.686 94.3991C977.05 93.5384 978.643 93.108 980.467 93.108C981.575 93.108 982.649 93.2912 983.689 93.6577C984.729 94.0241 985.662 94.5994 986.489 95.3835C987.315 96.1676 987.967 97.1861 988.445 98.4389C988.922 99.6832 989.161 101.196 989.161 102.977V104.332H973.551V101.469H985.415C985.415 100.463 985.21 99.5724 984.801 98.7969C984.392 98.0128 983.817 97.3949 983.075 96.9432C982.342 96.4915 981.482 96.2656 980.493 96.2656C979.419 96.2656 978.482 96.5298 977.68 97.0582C976.888 97.5781 976.274 98.2599 975.839 99.1037C975.413 99.9389 975.2 100.847 975.2 101.827V104.064C975.2 105.376 975.43 106.493 975.891 107.413C976.359 108.334 977.011 109.037 977.847 109.523C978.682 110 979.658 110.239 980.774 110.239C981.499 110.239 982.159 110.136 982.756 109.932C983.352 109.719 983.868 109.403 984.303 108.986C984.737 108.568 985.07 108.053 985.3 107.439L988.918 108.091C988.628 109.156 988.108 110.089 987.358 110.891C986.616 111.683 985.683 112.301 984.558 112.744C983.442 113.179 982.168 113.396 980.736 113.396ZM1008.12 98.1577L1004.65 98.7713C1004.51 98.3281 1004.28 97.9062 1003.96 97.5057C1003.65 97.1051 1003.24 96.777 1002.71 96.5213C1002.18 96.2656 1001.52 96.1378 1000.73 96.1378C999.645 96.1378 998.741 96.3807 998.017 96.8665C997.292 97.3437 996.93 97.9616 996.93 98.7202C996.93 99.3764 997.173 99.9048 997.659 100.305C998.145 100.706 998.929 101.034 1000.01 101.29L1003.13 102.006C1004.94 102.423 1006.28 103.067 1007.17 103.936C1008.06 104.805 1008.5 105.935 1008.5 107.324C1008.5 108.5 1008.16 109.548 1007.48 110.469C1006.8 111.381 1005.86 112.097 1004.65 112.616C1003.45 113.136 1002.06 113.396 1000.47 113.396C998.272 113.396 996.478 112.928 995.089 111.99C993.7 111.044 992.848 109.702 992.532 107.963L996.227 107.401C996.457 108.364 996.93 109.092 997.646 109.587C998.362 110.072 999.295 110.315 1000.45 110.315C1001.7 110.315 1002.7 110.055 1003.45 109.536C1004.2 109.007 1004.57 108.364 1004.57 107.605C1004.57 106.991 1004.34 106.476 1003.88 106.058C1003.43 105.641 1002.74 105.325 1001.8 105.112L998.477 104.384C996.645 103.966 995.289 103.301 994.412 102.389C993.542 101.477 993.108 100.322 993.108 98.9247C993.108 97.7656 993.431 96.7514 994.079 95.8821C994.727 95.0128 995.622 94.3352 996.764 93.8494C997.906 93.3551 999.214 93.108 1000.69 93.108C1002.81 93.108 1004.48 93.5682 1005.7 94.4886C1006.92 95.4006 1007.72 96.6236 1008.12 98.1577ZM1025.14 104.857V93.3636H1028.98V113H1025.22V109.599H1025.01C1024.56 110.648 1023.84 111.521 1022.84 112.22C1021.85 112.911 1020.62 113.256 1019.15 113.256C1017.88 113.256 1016.77 112.979 1015.8 112.425C1014.83 111.862 1014.07 111.031 1013.52 109.932C1012.98 108.832 1012.7 107.473 1012.7 105.854V93.3636H1016.52V105.393C1016.52 106.732 1016.9 107.797 1017.64 108.589C1018.38 109.382 1019.34 109.778 1020.53 109.778C1021.24 109.778 1021.95 109.599 1022.66 109.241C1023.38 108.884 1023.97 108.342 1024.44 107.618C1024.92 106.893 1025.15 105.973 1025.14 104.857ZM1037.94 86.8182V113H1034.11V86.8182H1037.94ZM1052.24 93.3636V96.4318H1041.52V93.3636H1052.24ZM1044.39 88.6591H1048.22V107.234C1048.22 107.976 1048.33 108.534 1048.55 108.909C1048.77 109.276 1049.06 109.527 1049.41 109.663C1049.76 109.791 1050.15 109.855 1050.57 109.855C1050.88 109.855 1051.14 109.834 1051.37 109.791C1051.6 109.749 1051.78 109.714 1051.91 109.689L1052.6 112.847C1052.38 112.932 1052.06 113.017 1051.66 113.102C1051.25 113.196 1050.74 113.247 1050.12 113.256C1049.12 113.273 1048.18 113.094 1047.31 112.719C1046.44 112.344 1045.74 111.764 1045.2 110.98C1044.66 110.196 1044.39 109.212 1044.39 108.027V88.6591Z" fill="black"/>
<rect x="962" y="308" width="60" height="184" fill="#FF5C2C"/>
<rect opacity="0.3" x="894" y="371" width="60" height="121" fill="#FF5C2C"/>
<rect opacity="0.1" x="1030" y="408" width="60" height="84" fill="#FF5C2C"/>
<path d="M261.682 562.636C258.303 562.636 255.303 562.068 252.682 560.932C250.076 559.795 248.03 558.242 246.545 556.273C245.076 554.288 244.348 552.038 244.364 549.523C244.348 547.568 244.773 545.773 245.636 544.136C246.5 542.5 247.667 541.136 249.136 540.045C250.621 538.939 252.273 538.235 254.091 537.932V537.614C251.697 537.083 249.758 535.864 248.273 533.955C246.803 532.03 246.076 529.811 246.091 527.295C246.076 524.902 246.742 522.765 248.091 520.886C249.439 519.008 251.288 517.53 253.636 516.455C255.985 515.364 258.667 514.818 261.682 514.818C264.667 514.818 267.326 515.364 269.659 516.455C272.008 517.53 273.856 519.008 275.205 520.886C276.568 522.765 277.25 524.902 277.25 527.295C277.25 529.811 276.5 532.03 275 533.955C273.515 535.864 271.598 537.083 269.25 537.614V537.932C271.068 538.235 272.705 538.939 274.159 540.045C275.629 541.136 276.795 542.5 277.659 544.136C278.538 545.773 278.977 547.568 278.977 549.523C278.977 552.038 278.235 554.288 276.75 556.273C275.265 558.242 273.22 559.795 270.614 560.932C268.023 562.068 265.045 562.636 261.682 562.636ZM261.682 556.136C263.424 556.136 264.939 555.841 266.227 555.25C267.515 554.644 268.515 553.795 269.227 552.705C269.939 551.614 270.303 550.356 270.318 548.932C270.303 547.447 269.917 546.136 269.159 545C268.417 543.848 267.394 542.947 266.091 542.295C264.803 541.644 263.333 541.318 261.682 541.318C260.015 541.318 258.53 541.644 257.227 542.295C255.924 542.947 254.894 543.848 254.136 545C253.394 546.136 253.03 547.447 253.045 548.932C253.03 550.356 253.379 551.614 254.091 552.705C254.803 553.78 255.803 554.621 257.091 555.227C258.394 555.833 259.924 556.136 261.682 556.136ZM261.682 534.932C263.106 534.932 264.364 534.644 265.455 534.068C266.561 533.492 267.432 532.689 268.068 531.659C268.705 530.629 269.03 529.439 269.045 528.091C269.03 526.758 268.712 525.591 268.091 524.591C267.47 523.576 266.606 522.795 265.5 522.25C264.394 521.689 263.121 521.409 261.682 521.409C260.212 521.409 258.917 521.689 257.795 522.25C256.689 522.795 255.826 523.576 255.205 524.591C254.598 525.591 254.303 526.758 254.318 528.091C254.303 529.439 254.606 530.629 255.227 531.659C255.864 532.674 256.735 533.477 257.841 534.068C258.962 534.644 260.242 534.932 261.682 534.932ZM303.653 562.886C299.911 562.886 296.699 561.939 294.017 560.045C291.35 558.136 289.297 555.386 287.858 551.795C286.434 548.189 285.722 543.848 285.722 538.773C285.737 533.697 286.456 529.379 287.881 525.818C289.32 522.242 291.373 519.515 294.04 517.636C296.722 515.758 299.926 514.818 303.653 514.818C307.381 514.818 310.585 515.758 313.267 517.636C315.949 519.515 318.002 522.242 319.426 525.818C320.866 529.394 321.585 533.712 321.585 538.773C321.585 543.864 320.866 548.212 319.426 551.818C318.002 555.409 315.949 558.152 313.267 560.045C310.6 561.939 307.396 562.886 303.653 562.886ZM303.653 555.773C306.563 555.773 308.858 554.341 310.54 551.477C312.237 548.598 313.085 544.364 313.085 538.773C313.085 535.076 312.699 531.97 311.926 529.455C311.153 526.939 310.063 525.045 308.653 523.773C307.244 522.485 305.578 521.841 303.653 521.841C300.759 521.841 298.472 523.28 296.79 526.159C295.108 529.023 294.259 533.227 294.244 538.773C294.229 542.485 294.6 545.606 295.358 548.136C296.131 550.667 297.222 552.576 298.631 553.864C300.04 555.136 301.714 555.773 303.653 555.773ZM354.023 553.273V550.818C354.023 549.015 354.402 547.356 355.159 545.841C355.932 544.326 357.053 543.106 358.523 542.182C359.992 541.258 361.773 540.795 363.864 540.795C366.015 540.795 367.818 541.258 369.273 542.182C370.727 543.091 371.826 544.303 372.568 545.818C373.326 547.333 373.705 549 373.705 550.818V553.273C373.705 555.076 373.326 556.735 372.568 558.25C371.811 559.765 370.697 560.985 369.227 561.909C367.773 562.833 365.985 563.295 363.864 563.295C361.742 563.295 359.947 562.833 358.477 561.909C357.008 560.985 355.894 559.765 355.136 558.25C354.394 556.735 354.023 555.076 354.023 553.273ZM359.955 550.818V553.273C359.955 554.47 360.242 555.568 360.818 556.568C361.394 557.568 362.409 558.068 363.864 558.068C365.333 558.068 366.341 557.576 366.886 556.591C367.447 555.591 367.727 554.485 367.727 553.273V550.818C367.727 549.606 367.462 548.5 366.932 547.5C366.402 546.485 365.379 545.977 363.864 545.977C362.439 545.977 361.432 546.485 360.841 547.5C360.25 548.5 359.955 549.606 359.955 550.818ZM330.364 526.636V524.182C330.364 522.364 330.75 520.697 331.523 519.182C332.295 517.667 333.417 516.455 334.886 515.545C336.356 514.621 338.136 514.159 340.227 514.159C342.364 514.159 344.159 514.621 345.614 515.545C347.083 516.455 348.189 517.667 348.932 519.182C349.674 520.697 350.045 522.364 350.045 524.182V526.636C350.045 528.455 349.667 530.121 348.909 531.636C348.167 533.136 347.061 534.341 345.591 535.25C344.121 536.159 342.333 536.614 340.227 536.614C338.091 536.614 336.288 536.159 334.818 535.25C333.364 534.341 332.258 533.129 331.5 531.614C330.742 530.098 330.364 528.439 330.364 526.636ZM336.341 524.182V526.636C336.341 527.848 336.621 528.955 337.182 529.955C337.758 530.939 338.773 531.432 340.227 531.432C341.682 531.432 342.682 530.939 343.227 529.955C343.788 528.955 344.068 527.848 344.068 526.636V524.182C344.068 522.97 343.803 521.864 343.273 520.864C342.742 519.848 341.727 519.341 340.227 519.341C338.788 519.341 337.78 519.848 337.205 520.864C336.629 521.879 336.341 522.985 336.341 524.182ZM332.955 562L364.955 515.455H370.636L338.636 562H332.955Z" fill="#4977EA"/>
<path d="M103.446 608L99.4119 593.455H101.72L104.554 604.719H104.689L107.636 593.455H109.923L112.871 604.726H113.006L115.832 593.455H118.148L114.107 608H111.898L108.837 597.105H108.723L105.662 608H103.446ZM119.978 608V597.091H122.102V608H119.978ZM121.051 595.408C120.681 595.408 120.364 595.285 120.099 595.038C119.839 594.787 119.708 594.489 119.708 594.143C119.708 593.793 119.839 593.495 120.099 593.249C120.364 592.998 120.681 592.872 121.051 592.872C121.42 592.872 121.735 592.998 121.995 593.249C122.261 593.495 122.393 593.793 122.393 594.143C122.393 594.489 122.261 594.787 121.995 595.038C121.735 595.285 121.42 595.408 121.051 595.408ZM127.082 593.455V608H124.959V593.455H127.082ZM132.063 593.455V608H129.939V593.455H132.063ZM134.92 608V597.091H137.043V608H134.92ZM135.992 595.408C135.623 595.408 135.306 595.285 135.04 595.038C134.78 594.787 134.65 594.489 134.65 594.143C134.65 593.793 134.78 593.495 135.04 593.249C135.306 592.998 135.623 592.872 135.992 592.872C136.362 592.872 136.676 592.998 136.937 593.249C137.202 593.495 137.335 593.793 137.335 594.143C137.335 594.489 137.202 594.787 136.937 595.038C136.676 595.285 136.362 595.408 135.992 595.408ZM142.024 601.523V608H139.9V597.091H141.939V598.866H142.074C142.324 598.289 142.717 597.825 143.252 597.474C143.792 597.124 144.472 596.949 145.291 596.949C146.034 596.949 146.685 597.105 147.244 597.418C147.803 597.725 148.236 598.185 148.544 598.795C148.851 599.406 149.005 600.161 149.005 601.061V608H146.882V601.317C146.882 600.526 146.676 599.908 146.264 599.463C145.852 599.013 145.286 598.788 144.566 598.788C144.074 598.788 143.636 598.895 143.252 599.108C142.874 599.321 142.573 599.634 142.35 600.045C142.133 600.453 142.024 600.945 142.024 601.523ZM156.427 612.318C155.561 612.318 154.815 612.205 154.19 611.977C153.57 611.75 153.063 611.449 152.67 611.075C152.277 610.701 151.984 610.292 151.789 609.847L153.615 609.094C153.743 609.302 153.913 609.522 154.126 609.754C154.344 609.991 154.637 610.192 155.007 610.358C155.381 610.524 155.861 610.607 156.449 610.607C157.253 610.607 157.919 610.41 158.444 610.017C158.97 609.629 159.233 609.009 159.233 608.156V606.011H159.098C158.97 606.243 158.785 606.501 158.544 606.786C158.307 607.07 157.98 607.316 157.564 607.524C157.147 607.732 156.605 607.837 155.937 607.837C155.075 607.837 154.299 607.635 153.608 607.233C152.921 606.826 152.377 606.227 151.974 605.436C151.576 604.641 151.377 603.663 151.377 602.503C151.377 601.343 151.574 600.348 151.967 599.52C152.365 598.691 152.909 598.057 153.6 597.616C154.292 597.171 155.075 596.949 155.951 596.949C156.628 596.949 157.175 597.062 157.592 597.29C158.009 597.512 158.333 597.773 158.565 598.071C158.802 598.369 158.984 598.632 159.112 598.859H159.268V597.091H161.349V608.241C161.349 609.179 161.131 609.948 160.696 610.55C160.26 611.151 159.671 611.596 158.927 611.885C158.189 612.174 157.355 612.318 156.427 612.318ZM156.406 606.075C157.017 606.075 157.533 605.933 157.954 605.649C158.38 605.36 158.702 604.948 158.92 604.413C159.143 603.874 159.254 603.227 159.254 602.474C159.254 601.741 159.145 601.094 158.927 600.536C158.709 599.977 158.39 599.541 157.968 599.229C157.547 598.911 157.026 598.753 156.406 598.753C155.767 598.753 155.234 598.919 154.808 599.25C154.382 599.577 154.06 600.022 153.842 600.585C153.629 601.149 153.522 601.778 153.522 602.474C153.522 603.189 153.631 603.817 153.849 604.357C154.067 604.896 154.389 605.318 154.815 605.621C155.246 605.924 155.776 606.075 156.406 606.075ZM174.582 597.091V598.795H168.624V597.091H174.582ZM170.222 594.477H172.345V604.797C172.345 605.209 172.407 605.519 172.53 605.727C172.653 605.931 172.812 606.071 173.006 606.146C173.205 606.217 173.42 606.253 173.652 606.253C173.822 606.253 173.972 606.241 174.099 606.217C174.227 606.194 174.327 606.175 174.398 606.161L174.781 607.915C174.658 607.962 174.483 608.009 174.256 608.057C174.028 608.109 173.744 608.137 173.403 608.142C172.845 608.152 172.324 608.052 171.841 607.844C171.358 607.635 170.967 607.313 170.669 606.878C170.371 606.442 170.222 605.895 170.222 605.237V594.477ZM181.409 608.22C180.387 608.22 179.494 607.986 178.732 607.517C177.97 607.048 177.378 606.393 176.956 605.55C176.535 604.707 176.324 603.722 176.324 602.595C176.324 601.464 176.535 600.474 176.956 599.626C177.378 598.779 177.97 598.121 178.732 597.652C179.494 597.183 180.387 596.949 181.409 596.949C182.432 596.949 183.325 597.183 184.087 597.652C184.849 598.121 185.441 598.779 185.863 599.626C186.284 600.474 186.495 601.464 186.495 602.595C186.495 603.722 186.284 604.707 185.863 605.55C185.441 606.393 184.849 607.048 184.087 607.517C183.325 607.986 182.432 608.22 181.409 608.22ZM181.417 606.438C182.079 606.438 182.629 606.262 183.064 605.912C183.5 605.562 183.822 605.095 184.03 604.513C184.243 603.93 184.35 603.289 184.35 602.588C184.35 601.892 184.243 601.253 184.03 600.67C183.822 600.083 183.5 599.612 183.064 599.257C182.629 598.902 182.079 598.724 181.417 598.724C180.749 598.724 180.195 598.902 179.755 599.257C179.319 599.612 178.995 600.083 178.782 600.67C178.573 601.253 178.469 601.892 178.469 602.588C178.469 603.289 178.573 603.93 178.782 604.513C178.995 605.095 179.319 605.562 179.755 605.912C180.195 606.262 180.749 606.438 181.417 606.438ZM194.158 608V597.091H196.211V598.824H196.324C196.523 598.237 196.873 597.775 197.375 597.439C197.882 597.098 198.455 596.928 199.094 596.928C199.227 596.928 199.383 596.932 199.563 596.942C199.748 596.951 199.892 596.963 199.996 596.977V599.009C199.911 598.985 199.759 598.959 199.542 598.93C199.324 598.897 199.106 598.881 198.888 598.881C198.386 598.881 197.939 598.987 197.546 599.2C197.158 599.409 196.85 599.7 196.623 600.074C196.395 600.443 196.282 600.865 196.282 601.338V608H194.158ZM206.145 608.22C205.07 608.22 204.144 607.991 203.368 607.531C202.596 607.067 202 606.416 201.578 605.578C201.161 604.735 200.953 603.748 200.953 602.616C200.953 601.499 201.161 600.514 201.578 599.662C202 598.81 202.587 598.144 203.339 597.666C204.097 597.188 204.982 596.949 205.996 596.949C206.611 596.949 207.208 597.051 207.786 597.254C208.363 597.458 208.882 597.777 209.341 598.213C209.8 598.649 210.162 599.214 210.428 599.911C210.693 600.602 210.825 601.442 210.825 602.432V603.185H202.153V601.594H208.744C208.744 601.035 208.631 600.54 208.403 600.109C208.176 599.674 207.857 599.33 207.445 599.08C207.037 598.829 206.559 598.703 206.01 598.703C205.413 598.703 204.893 598.85 204.447 599.143C204.007 599.432 203.666 599.811 203.425 600.28C203.188 600.744 203.07 601.248 203.07 601.793V603.036C203.07 603.765 203.197 604.385 203.453 604.896C203.714 605.408 204.076 605.798 204.54 606.068C205.004 606.333 205.546 606.466 206.166 606.466C206.569 606.466 206.936 606.409 207.267 606.295C207.598 606.177 207.885 606.002 208.126 605.77C208.368 605.538 208.553 605.251 208.68 604.911L210.69 605.273C210.529 605.865 210.241 606.383 209.824 606.828C209.412 607.268 208.893 607.612 208.268 607.858C207.648 608.099 206.94 608.22 206.145 608.22ZM217.777 608.22C216.721 608.22 215.812 607.981 215.049 607.503C214.292 607.02 213.709 606.355 213.302 605.507C212.895 604.66 212.691 603.689 212.691 602.595C212.691 601.487 212.9 600.509 213.316 599.662C213.733 598.81 214.32 598.144 215.078 597.666C215.835 597.188 216.728 596.949 217.755 596.949C218.584 596.949 219.323 597.103 219.971 597.411C220.62 597.714 221.143 598.14 221.541 598.689C221.943 599.238 222.182 599.88 222.258 600.614H220.191C220.078 600.102 219.817 599.662 219.41 599.293C219.008 598.923 218.468 598.739 217.791 598.739C217.199 598.739 216.681 598.895 216.235 599.207C215.795 599.515 215.452 599.955 215.206 600.528C214.959 601.097 214.836 601.769 214.836 602.545C214.836 603.341 214.957 604.027 215.199 604.605C215.44 605.183 215.781 605.63 216.221 605.947C216.666 606.265 217.19 606.423 217.791 606.423C218.193 606.423 218.558 606.35 218.885 606.203C219.216 606.052 219.493 605.836 219.716 605.557C219.943 605.277 220.101 604.941 220.191 604.548H222.258C222.182 605.254 221.953 605.884 221.569 606.438C221.186 606.991 220.672 607.427 220.028 607.744C219.389 608.062 218.638 608.22 217.777 608.22ZM229.231 608.22C228.156 608.22 227.23 607.991 226.454 607.531C225.682 607.067 225.085 606.416 224.664 605.578C224.247 604.735 224.039 603.748 224.039 602.616C224.039 601.499 224.247 600.514 224.664 599.662C225.085 598.81 225.673 598.144 226.425 597.666C227.183 597.188 228.068 596.949 229.082 596.949C229.697 596.949 230.294 597.051 230.871 597.254C231.449 597.458 231.968 597.777 232.427 598.213C232.886 598.649 233.248 599.214 233.513 599.911C233.779 600.602 233.911 601.442 233.911 602.432V603.185H225.239V601.594H231.83C231.83 601.035 231.717 600.54 231.489 600.109C231.262 599.674 230.942 599.33 230.531 599.08C230.123 598.829 229.645 598.703 229.096 598.703C228.499 598.703 227.978 598.85 227.533 599.143C227.093 599.432 226.752 599.811 226.511 600.28C226.274 600.744 226.156 601.248 226.156 601.793V603.036C226.156 603.765 226.283 604.385 226.539 604.896C226.799 605.408 227.162 605.798 227.626 606.068C228.09 606.333 228.632 606.466 229.252 606.466C229.655 606.466 230.022 606.409 230.353 606.295C230.684 606.177 230.971 606.002 231.212 605.77C231.454 605.538 231.638 605.251 231.766 604.911L233.776 605.273C233.615 605.865 233.326 606.383 232.91 606.828C232.498 607.268 231.979 607.612 231.354 607.858C230.734 608.099 230.026 608.22 229.231 608.22ZM236.267 608V597.091H238.391V608H236.267ZM237.34 595.408C236.971 595.408 236.653 595.285 236.388 595.038C236.128 594.787 235.998 594.489 235.998 594.143C235.998 593.793 236.128 593.495 236.388 593.249C236.653 592.998 236.971 592.872 237.34 592.872C237.709 592.872 238.024 592.998 238.284 593.249C238.55 593.495 238.682 593.793 238.682 594.143C238.682 594.489 238.55 594.787 238.284 595.038C238.024 595.285 237.709 595.408 237.34 595.408ZM250.58 597.091L246.624 608H244.352L240.388 597.091H242.668L245.431 605.486H245.545L248.3 597.091H250.58ZM256.907 608.22C255.832 608.22 254.906 607.991 254.13 607.531C253.358 607.067 252.761 606.416 252.34 605.578C251.923 604.735 251.715 603.748 251.715 602.616C251.715 601.499 251.923 600.514 252.34 599.662C252.761 598.81 253.348 598.144 254.101 597.666C254.859 597.188 255.744 596.949 256.757 596.949C257.373 596.949 257.97 597.051 258.547 597.254C259.125 597.458 259.643 597.777 260.103 598.213C260.562 598.649 260.924 599.214 261.189 599.911C261.454 600.602 261.587 601.442 261.587 602.432V603.185H252.915V601.594H259.506C259.506 601.035 259.392 600.54 259.165 600.109C258.938 599.674 258.618 599.33 258.206 599.08C257.799 598.829 257.321 598.703 256.772 598.703C256.175 598.703 255.654 598.85 255.209 599.143C254.769 599.432 254.428 599.811 254.186 600.28C253.95 600.744 253.831 601.248 253.831 601.793V603.036C253.831 603.765 253.959 604.385 254.215 604.896C254.475 605.408 254.837 605.798 255.301 606.068C255.766 606.333 256.308 606.466 256.928 606.466C257.33 606.466 257.697 606.409 258.029 606.295C258.36 606.177 258.647 606.002 258.888 605.77C259.13 605.538 259.314 605.251 259.442 604.911L261.452 605.273C261.291 605.865 261.002 606.383 260.586 606.828C260.174 607.268 259.655 607.612 259.03 607.858C258.41 608.099 257.702 608.22 256.907 608.22ZM276.147 603.476V597.091H278.277V608H276.189V606.111H276.076C275.825 606.693 275.422 607.179 274.868 607.567C274.319 607.95 273.635 608.142 272.816 608.142C272.115 608.142 271.495 607.988 270.955 607.68C270.42 607.368 269.998 606.906 269.691 606.295C269.388 605.685 269.236 604.929 269.236 604.03V597.091H271.36V603.774C271.36 604.518 271.566 605.109 271.978 605.55C272.39 605.99 272.925 606.21 273.583 606.21C273.98 606.21 274.376 606.111 274.769 605.912C275.167 605.713 275.496 605.412 275.756 605.01C276.021 604.607 276.151 604.096 276.147 603.476ZM281.131 612.091V597.091H283.205V598.859H283.382C283.505 598.632 283.683 598.369 283.915 598.071C284.147 597.773 284.469 597.512 284.881 597.29C285.293 597.062 285.837 596.949 286.514 596.949C287.395 596.949 288.181 597.171 288.872 597.616C289.563 598.062 290.106 598.703 290.499 599.541C290.896 600.379 291.095 601.388 291.095 602.567C291.095 603.746 290.899 604.757 290.506 605.599C290.113 606.437 289.573 607.084 288.886 607.538C288.2 607.988 287.416 608.213 286.536 608.213C285.873 608.213 285.33 608.102 284.909 607.879C284.492 607.657 284.166 607.396 283.929 607.098C283.692 606.8 283.51 606.535 283.382 606.303H283.254V612.091H281.131ZM283.212 602.545C283.212 603.312 283.323 603.985 283.545 604.562C283.768 605.14 284.09 605.592 284.511 605.919C284.933 606.241 285.449 606.402 286.06 606.402C286.694 606.402 287.224 606.234 287.651 605.898C288.077 605.557 288.399 605.095 288.616 604.513C288.839 603.93 288.95 603.275 288.95 602.545C288.95 601.826 288.841 601.179 288.624 600.607C288.411 600.034 288.089 599.581 287.658 599.25C287.232 598.919 286.699 598.753 286.06 598.753C285.444 598.753 284.923 598.911 284.497 599.229C284.076 599.546 283.756 599.989 283.538 600.557C283.321 601.125 283.212 601.788 283.212 602.545ZM297.558 608.213C296.678 608.213 295.892 607.988 295.2 607.538C294.514 607.084 293.974 606.437 293.581 605.599C293.193 604.757 292.999 603.746 292.999 602.567C292.999 601.388 293.195 600.379 293.588 599.541C293.986 598.703 294.53 598.062 295.222 597.616C295.913 597.171 296.696 596.949 297.572 596.949C298.25 596.949 298.794 597.062 299.206 597.29C299.623 597.512 299.945 597.773 300.172 598.071C300.404 598.369 300.584 598.632 300.712 598.859H300.839V593.455H302.963V608H300.889V606.303H300.712C300.584 606.535 300.399 606.8 300.158 607.098C299.921 607.396 299.594 607.657 299.178 607.879C298.761 608.102 298.221 608.213 297.558 608.213ZM298.027 606.402C298.638 606.402 299.154 606.241 299.575 605.919C300.001 605.592 300.323 605.14 300.541 604.562C300.764 603.985 300.875 603.312 300.875 602.545C300.875 601.788 300.766 601.125 300.548 600.557C300.33 599.989 300.011 599.546 299.589 599.229C299.168 598.911 298.647 598.753 298.027 598.753C297.388 598.753 296.855 598.919 296.429 599.25C296.003 599.581 295.681 600.034 295.463 600.607C295.25 601.179 295.143 601.826 295.143 602.545C295.143 603.275 295.252 603.93 295.47 604.513C295.688 605.095 296.01 605.557 296.436 605.898C296.867 606.234 297.397 606.402 298.027 606.402ZM309.169 608.241C308.477 608.241 307.852 608.114 307.294 607.858C306.735 607.598 306.292 607.221 305.966 606.729C305.644 606.236 305.483 605.633 305.483 604.918C305.483 604.302 305.601 603.795 305.838 603.398C306.074 603 306.394 602.685 306.797 602.453C307.199 602.221 307.649 602.046 308.146 601.928C308.643 601.809 309.15 601.719 309.666 601.658C310.319 601.582 310.85 601.52 311.257 601.473C311.664 601.421 311.96 601.338 312.145 601.224C312.329 601.111 312.422 600.926 312.422 600.67V600.621C312.422 600 312.246 599.52 311.896 599.179C311.55 598.838 311.034 598.668 310.348 598.668C309.633 598.668 309.069 598.826 308.657 599.143C308.25 599.456 307.968 599.804 307.812 600.188L305.816 599.733C306.053 599.07 306.399 598.535 306.853 598.128C307.313 597.716 307.841 597.418 308.437 597.233C309.034 597.044 309.661 596.949 310.319 596.949C310.755 596.949 311.217 597.001 311.704 597.105C312.197 597.205 312.656 597.389 313.082 597.659C313.513 597.929 313.866 598.315 314.14 598.817C314.415 599.314 314.552 599.96 314.552 600.756V608H312.478V606.509H312.393C312.256 606.783 312.05 607.053 311.775 607.318C311.501 607.583 311.148 607.804 310.717 607.979C310.286 608.154 309.77 608.241 309.169 608.241ZM309.63 606.537C310.217 606.537 310.719 606.421 311.136 606.189C311.557 605.957 311.877 605.654 312.095 605.28C312.317 604.901 312.429 604.496 312.429 604.065V602.659C312.353 602.735 312.206 602.806 311.988 602.872C311.775 602.934 311.531 602.988 311.257 603.036C310.982 603.078 310.715 603.118 310.454 603.156C310.194 603.189 309.976 603.218 309.801 603.241C309.389 603.294 309.012 603.381 308.672 603.504C308.335 603.627 308.065 603.805 307.862 604.037C307.663 604.264 307.564 604.567 307.564 604.946C307.564 605.472 307.758 605.869 308.146 606.139C308.534 606.404 309.029 606.537 309.63 606.537ZM322.473 597.091V598.795H316.514V597.091H322.473ZM318.112 594.477H320.236V604.797C320.236 605.209 320.297 605.519 320.42 605.727C320.544 605.931 320.702 606.071 320.896 606.146C321.095 606.217 321.311 606.253 321.543 606.253C321.713 606.253 321.862 606.241 321.99 606.217C322.118 606.194 322.217 606.175 322.288 606.161L322.672 607.915C322.549 607.962 322.374 608.009 322.146 608.057C321.919 608.109 321.635 608.137 321.294 608.142C320.735 608.152 320.214 608.052 319.732 607.844C319.249 607.635 318.858 607.313 318.56 606.878C318.261 606.442 318.112 605.895 318.112 605.237V594.477ZM329.407 608.22C328.332 608.22 327.406 607.991 326.63 607.531C325.858 607.067 325.261 606.416 324.84 605.578C324.423 604.735 324.215 603.748 324.215 602.616C324.215 601.499 324.423 600.514 324.84 599.662C325.261 598.81 325.848 598.144 326.601 597.666C327.359 597.188 328.244 596.949 329.257 596.949C329.873 596.949 330.47 597.051 331.047 597.254C331.625 597.458 332.143 597.777 332.603 598.213C333.062 598.649 333.424 599.214 333.689 599.911C333.954 600.602 334.087 601.442 334.087 602.432V603.185H325.415V601.594H332.006C332.006 601.035 331.892 600.54 331.665 600.109C331.438 599.674 331.118 599.33 330.706 599.08C330.299 598.829 329.821 598.703 329.272 598.703C328.675 598.703 328.154 598.85 327.709 599.143C327.269 599.432 326.928 599.811 326.686 600.28C326.45 600.744 326.331 601.248 326.331 601.793V603.036C326.331 603.765 326.459 604.385 326.715 604.896C326.975 605.408 327.337 605.798 327.801 606.068C328.266 606.333 328.808 606.466 329.428 606.466C329.83 606.466 330.197 606.409 330.529 606.295C330.86 606.177 331.147 606.002 331.388 605.77C331.63 605.538 331.814 605.251 331.942 604.911L333.952 605.273C333.791 605.865 333.502 606.383 333.086 606.828C332.674 607.268 332.155 607.612 331.53 607.858C330.91 608.099 330.202 608.22 329.407 608.22ZM340.527 608.213C339.646 608.213 338.86 607.988 338.169 607.538C337.482 607.084 336.943 606.437 336.55 605.599C336.161 604.757 335.967 603.746 335.967 602.567C335.967 601.388 336.164 600.379 336.557 599.541C336.955 598.703 337.499 598.062 338.19 597.616C338.882 597.171 339.665 596.949 340.541 596.949C341.218 596.949 341.763 597.062 342.175 597.29C342.591 597.512 342.913 597.773 343.141 598.071C343.373 598.369 343.553 598.632 343.68 598.859H343.808V593.455H345.932V608H343.858V606.303H343.68C343.553 606.535 343.368 606.8 343.126 607.098C342.89 607.396 342.563 607.657 342.146 607.879C341.73 608.102 341.19 608.213 340.527 608.213ZM340.996 606.402C341.607 606.402 342.123 606.241 342.544 605.919C342.97 605.592 343.292 605.14 343.51 604.562C343.732 603.985 343.844 603.312 343.844 602.545C343.844 601.788 343.735 601.125 343.517 600.557C343.299 599.989 342.98 599.546 342.558 599.229C342.137 598.911 341.616 598.753 340.996 598.753C340.357 598.753 339.824 598.919 339.398 599.25C338.972 599.581 338.65 600.034 338.432 600.607C338.219 601.179 338.112 601.826 338.112 602.545C338.112 603.275 338.221 603.93 338.439 604.513C338.657 605.095 338.979 605.557 339.405 605.898C339.836 606.234 340.366 606.402 340.996 606.402ZM356.379 601.523V608H354.256V597.091H356.294V598.866H356.429C356.68 598.289 357.073 597.825 357.608 597.474C358.148 597.124 358.827 596.949 359.646 596.949C360.39 596.949 361.041 597.105 361.599 597.418C362.158 597.725 362.591 598.185 362.899 598.795C363.207 599.406 363.361 600.161 363.361 601.061V608H361.237V601.317C361.237 600.526 361.031 599.908 360.619 599.463C360.207 599.013 359.642 598.788 358.922 598.788C358.429 598.788 357.991 598.895 357.608 599.108C357.229 599.321 356.929 599.634 356.706 600.045C356.488 600.453 356.379 600.945 356.379 601.523ZM370.911 608.22C369.836 608.22 368.91 607.991 368.134 607.531C367.362 607.067 366.765 606.416 366.344 605.578C365.927 604.735 365.719 603.748 365.719 602.616C365.719 601.499 365.927 600.514 366.344 599.662C366.765 598.81 367.352 598.144 368.105 597.666C368.863 597.188 369.748 596.949 370.761 596.949C371.377 596.949 371.973 597.051 372.551 597.254C373.129 597.458 373.647 597.777 374.107 598.213C374.566 598.649 374.928 599.214 375.193 599.911C375.458 600.602 375.591 601.442 375.591 602.432V603.185H366.919V601.594H373.51C373.51 601.035 373.396 600.54 373.169 600.109C372.942 599.674 372.622 599.33 372.21 599.08C371.803 598.829 371.325 598.703 370.776 598.703C370.179 598.703 369.658 598.85 369.213 599.143C368.773 599.432 368.432 599.811 368.19 600.28C367.954 600.744 367.835 601.248 367.835 601.793V603.036C367.835 603.765 367.963 604.385 368.219 604.896C368.479 605.408 368.841 605.798 369.305 606.068C369.769 606.333 370.312 606.466 370.932 606.466C371.334 606.466 371.701 606.409 372.033 606.295C372.364 606.177 372.651 606.002 372.892 605.77C373.134 605.538 373.318 605.251 373.446 604.911L375.456 605.273C375.295 605.865 375.006 606.383 374.589 606.828C374.178 607.268 373.659 607.612 373.034 607.858C372.414 608.099 371.706 608.22 370.911 608.22ZM380.293 608L377.082 597.091H379.277L381.415 605.102H381.521L383.666 597.091H385.861L387.991 605.067H388.098L390.222 597.091H392.416L389.213 608H387.047L384.831 600.124H384.668L382.452 608H380.293ZM402.606 599.754L400.681 600.095C400.601 599.849 400.473 599.615 400.298 599.392C400.127 599.17 399.895 598.987 399.602 598.845C399.308 598.703 398.941 598.632 398.501 598.632C397.9 598.632 397.398 598.767 396.995 599.037C396.593 599.302 396.392 599.645 396.392 600.067C396.392 600.431 396.527 600.725 396.797 600.947C397.066 601.17 397.502 601.352 398.103 601.494L399.836 601.892C400.84 602.124 401.588 602.482 402.081 602.964C402.573 603.447 402.819 604.075 402.819 604.847C402.819 605.5 402.63 606.082 402.251 606.594C401.877 607.1 401.354 607.498 400.681 607.787C400.014 608.076 399.24 608.22 398.359 608.22C397.137 608.22 396.141 607.96 395.369 607.439C394.597 606.913 394.124 606.168 393.949 605.202L396.001 604.889C396.129 605.424 396.392 605.829 396.789 606.104C397.187 606.374 397.706 606.509 398.345 606.509C399.041 606.509 399.597 606.364 400.014 606.075C400.431 605.782 400.639 605.424 400.639 605.003C400.639 604.662 400.511 604.375 400.255 604.143C400.004 603.911 399.618 603.736 399.098 603.618L397.251 603.213C396.233 602.981 395.48 602.612 394.993 602.105C394.51 601.598 394.268 600.957 394.268 600.18C394.268 599.536 394.448 598.973 394.808 598.49C395.168 598.007 395.665 597.631 396.299 597.361C396.934 597.086 397.661 596.949 398.48 596.949C399.659 596.949 400.587 597.205 401.264 597.716C401.941 598.223 402.388 598.902 402.606 599.754ZM415.639 597.091V598.795H409.474V597.091H415.639ZM411.164 608V595.827C411.164 595.145 411.314 594.579 411.612 594.129C411.91 593.675 412.306 593.336 412.798 593.114C413.29 592.886 413.825 592.773 414.403 592.773C414.829 592.773 415.194 592.808 415.497 592.879C415.8 592.946 416.025 593.007 416.172 593.064L415.674 594.783C415.575 594.754 415.447 594.721 415.291 594.683C415.135 594.641 414.945 594.619 414.723 594.619C414.207 594.619 413.837 594.747 413.615 595.003C413.397 595.259 413.288 595.628 413.288 596.111V608H411.164ZM417.83 608V597.091H419.882V598.824H419.996C420.195 598.237 420.545 597.775 421.047 597.439C421.554 597.098 422.127 596.928 422.766 596.928C422.899 596.928 423.055 596.932 423.235 596.942C423.419 596.951 423.564 596.963 423.668 596.977V599.009C423.583 598.985 423.431 598.959 423.213 598.93C422.996 598.897 422.778 598.881 422.56 598.881C422.058 598.881 421.611 598.987 421.218 599.2C420.829 599.409 420.522 599.7 420.294 600.074C420.067 600.443 419.953 600.865 419.953 601.338V608H417.83ZM429.71 608.22C428.688 608.22 427.795 607.986 427.033 607.517C426.27 607.048 425.679 606.393 425.257 605.55C424.836 604.707 424.625 603.722 424.625 602.595C424.625 601.464 424.836 600.474 425.257 599.626C425.679 598.779 426.27 598.121 427.033 597.652C427.795 597.183 428.688 596.949 429.71 596.949C430.733 596.949 431.625 597.183 432.388 597.652C433.15 598.121 433.742 598.779 434.163 599.626C434.585 600.474 434.795 601.464 434.795 602.595C434.795 603.722 434.585 604.707 434.163 605.55C433.742 606.393 433.15 607.048 432.388 607.517C431.625 607.986 430.733 608.22 429.71 608.22ZM429.717 606.438C430.38 606.438 430.929 606.262 431.365 605.912C431.801 605.562 432.123 605.095 432.331 604.513C432.544 603.93 432.651 603.289 432.651 602.588C432.651 601.892 432.544 601.253 432.331 600.67C432.123 600.083 431.801 599.612 431.365 599.257C430.929 598.902 430.38 598.724 429.717 598.724C429.05 598.724 428.496 598.902 428.055 599.257C427.62 599.612 427.295 600.083 427.082 600.67C426.874 601.253 426.77 601.892 426.77 602.588C426.77 603.289 426.874 603.93 427.082 604.513C427.295 605.095 427.62 605.562 428.055 605.912C428.496 606.262 429.05 606.438 429.717 606.438ZM437.166 608V597.091H439.204V598.866H439.339C439.566 598.265 439.938 597.796 440.454 597.46C440.97 597.119 441.588 596.949 442.308 596.949C443.037 596.949 443.648 597.119 444.14 597.46C444.637 597.801 445.004 598.27 445.241 598.866H445.355C445.615 598.284 446.029 597.82 446.598 597.474C447.166 597.124 447.843 596.949 448.629 596.949C449.618 596.949 450.426 597.259 451.051 597.879C451.681 598.5 451.995 599.435 451.995 600.685V608H449.872V600.884C449.872 600.145 449.671 599.61 449.268 599.278C448.866 598.947 448.385 598.781 447.826 598.781C447.135 598.781 446.598 598.994 446.214 599.42C445.831 599.842 445.639 600.384 445.639 601.047V608H443.522V600.749C443.522 600.157 443.338 599.681 442.968 599.321C442.599 598.961 442.118 598.781 441.527 598.781C441.124 598.781 440.752 598.888 440.412 599.101C440.075 599.309 439.803 599.6 439.595 599.974C439.391 600.348 439.289 600.782 439.289 601.274V608H437.166ZM472.386 598.185H470.17C470.085 597.711 469.926 597.295 469.694 596.935C469.462 596.575 469.178 596.269 468.842 596.018C468.506 595.768 468.129 595.578 467.713 595.45C467.301 595.322 466.863 595.259 466.399 595.259C465.561 595.259 464.81 595.469 464.147 595.891C463.489 596.312 462.968 596.93 462.585 597.744C462.206 598.559 462.017 599.553 462.017 600.727C462.017 601.911 462.206 602.91 462.585 603.724C462.968 604.539 463.492 605.154 464.154 605.571C464.817 605.988 465.563 606.196 466.392 606.196C466.851 606.196 467.287 606.134 467.699 606.011C468.115 605.884 468.492 605.696 468.828 605.45C469.164 605.204 469.448 604.903 469.68 604.548C469.917 604.188 470.08 603.777 470.17 603.312L472.386 603.32C472.268 604.035 472.038 604.693 471.697 605.294C471.361 605.891 470.928 606.407 470.397 606.842C469.872 607.273 469.27 607.607 468.593 607.844C467.916 608.08 467.178 608.199 466.377 608.199C465.118 608.199 463.996 607.901 463.011 607.304C462.026 606.703 461.25 605.843 460.681 604.726C460.118 603.608 459.836 602.276 459.836 600.727C459.836 599.174 460.12 597.841 460.689 596.729C461.257 595.611 462.033 594.754 463.018 594.158C464.003 593.556 465.123 593.256 466.377 593.256C467.149 593.256 467.869 593.367 468.537 593.589C469.209 593.807 469.813 594.129 470.348 594.555C470.883 594.977 471.325 595.493 471.676 596.104C472.026 596.71 472.263 597.403 472.386 598.185ZM479.437 608.22C478.414 608.22 477.522 607.986 476.759 607.517C475.997 607.048 475.405 606.393 474.984 605.55C474.562 604.707 474.352 603.722 474.352 602.595C474.352 601.464 474.562 600.474 474.984 599.626C475.405 598.779 475.997 598.121 476.759 597.652C477.522 597.183 478.414 596.949 479.437 596.949C480.46 596.949 481.352 597.183 482.114 597.652C482.877 598.121 483.469 598.779 483.89 599.626C484.311 600.474 484.522 601.464 484.522 602.595C484.522 603.722 484.311 604.707 483.89 605.55C483.469 606.393 482.877 607.048 482.114 607.517C481.352 607.986 480.46 608.22 479.437 608.22ZM479.444 606.438C480.107 606.438 480.656 606.262 481.092 605.912C481.527 605.562 481.849 605.095 482.058 604.513C482.271 603.93 482.377 603.289 482.377 602.588C482.377 601.892 482.271 601.253 482.058 600.67C481.849 600.083 481.527 599.612 481.092 599.257C480.656 598.902 480.107 598.724 479.444 598.724C478.776 598.724 478.222 598.902 477.782 599.257C477.346 599.612 477.022 600.083 476.809 600.67C476.601 601.253 476.496 601.892 476.496 602.588C476.496 603.289 476.601 603.93 476.809 604.513C477.022 605.095 477.346 605.562 477.782 605.912C478.222 606.262 478.776 606.438 479.444 606.438ZM493.32 600.933V602.773H486.871V600.933H493.32ZM503.061 603.476V597.091H505.191V608H503.103V606.111H502.99C502.739 606.693 502.336 607.179 501.782 607.567C501.233 607.95 500.549 608.142 499.73 608.142C499.029 608.142 498.409 607.988 497.869 607.68C497.334 607.368 496.913 606.906 496.605 606.295C496.302 605.685 496.15 604.929 496.15 604.03V597.091H498.274V603.774C498.274 604.518 498.48 605.109 498.892 605.55C499.304 605.99 499.839 606.21 500.497 606.21C500.895 606.21 501.29 606.111 501.683 605.912C502.081 605.713 502.41 605.412 502.67 605.01C502.935 604.607 503.065 604.096 503.061 603.476ZM508.045 612.091V597.091H510.119V598.859H510.296C510.419 598.632 510.597 598.369 510.829 598.071C511.061 597.773 511.383 597.512 511.795 597.29C512.207 597.062 512.751 596.949 513.428 596.949C514.309 596.949 515.095 597.171 515.786 597.616C516.478 598.062 517.02 598.703 517.413 599.541C517.81 600.379 518.009 601.388 518.009 602.567C518.009 603.746 517.813 604.757 517.42 605.599C517.027 606.437 516.487 607.084 515.8 607.538C515.114 607.988 514.33 608.213 513.45 608.213C512.787 608.213 512.245 608.102 511.823 607.879C511.406 607.657 511.08 607.396 510.843 607.098C510.606 606.8 510.424 606.535 510.296 606.303H510.168V612.091H508.045ZM510.126 602.545C510.126 603.312 510.237 603.985 510.46 604.562C510.682 605.14 511.004 605.592 511.425 605.919C511.847 606.241 512.363 606.402 512.974 606.402C513.608 606.402 514.138 606.234 514.565 605.898C514.991 605.557 515.313 605.095 515.531 604.513C515.753 603.93 515.864 603.275 515.864 602.545C515.864 601.826 515.755 601.179 515.538 600.607C515.325 600.034 515.003 599.581 514.572 599.25C514.146 598.919 513.613 598.753 512.974 598.753C512.358 598.753 511.837 598.911 511.411 599.229C510.99 599.546 510.67 599.989 510.452 600.557C510.235 601.125 510.126 601.788 510.126 602.545ZM523.066 593.455L522.881 603.817H520.914L520.729 593.455H523.066ZM521.901 608.135C521.508 608.135 521.172 607.998 520.893 607.723C520.613 607.444 520.476 607.107 520.481 606.714C520.476 606.326 520.613 605.995 520.893 605.72C521.172 605.441 521.508 605.301 521.901 605.301C522.285 605.301 522.616 605.441 522.896 605.72C523.175 605.995 523.317 606.326 523.322 606.714C523.317 606.975 523.248 607.214 523.116 607.432C522.988 607.645 522.817 607.815 522.604 607.943C522.391 608.071 522.157 608.135 521.901 608.135Z" fill="black"/>
<path d="M263.776 333.636C260.397 333.636 257.397 333.068 254.776 331.932C252.17 330.795 250.124 329.242 248.639 327.273C247.17 325.288 246.442 323.038 246.457 320.523C246.442 318.568 246.866 316.773 247.73 315.136C248.594 313.5 249.76 312.136 251.23 311.045C252.715 309.939 254.366 309.235 256.185 308.932V308.614C253.791 308.083 251.851 306.864 250.366 304.955C248.897 303.03 248.17 300.811 248.185 298.295C248.17 295.902 248.836 293.765 250.185 291.886C251.533 290.008 253.382 288.53 255.73 287.455C258.079 286.364 260.76 285.818 263.776 285.818C266.76 285.818 269.42 286.364 271.753 287.455C274.101 288.53 275.95 290.008 277.298 291.886C278.662 293.765 279.344 295.902 279.344 298.295C279.344 300.811 278.594 303.03 277.094 304.955C275.609 306.864 273.692 308.083 271.344 308.614V308.932C273.162 309.235 274.798 309.939 276.253 311.045C277.723 312.136 278.889 313.5 279.753 315.136C280.632 316.773 281.071 318.568 281.071 320.523C281.071 323.038 280.329 325.288 278.844 327.273C277.359 329.242 275.313 330.795 272.707 331.932C270.116 333.068 267.139 333.636 263.776 333.636ZM263.776 327.136C265.518 327.136 267.033 326.841 268.321 326.25C269.609 325.644 270.609 324.795 271.321 323.705C272.033 322.614 272.397 321.356 272.412 319.932C272.397 318.447 272.01 317.136 271.253 316C270.51 314.848 269.488 313.947 268.185 313.295C266.897 312.644 265.427 312.318 263.776 312.318C262.109 312.318 260.624 312.644 259.321 313.295C258.018 313.947 256.988 314.848 256.23 316C255.488 317.136 255.124 318.447 255.139 319.932C255.124 321.356 255.473 322.614 256.185 323.705C256.897 324.78 257.897 325.621 259.185 326.227C260.488 326.833 262.018 327.136 263.776 327.136ZM263.776 305.932C265.2 305.932 266.457 305.644 267.548 305.068C268.654 304.492 269.526 303.689 270.162 302.659C270.798 301.629 271.124 300.439 271.139 299.091C271.124 297.758 270.806 296.591 270.185 295.591C269.563 294.576 268.7 293.795 267.594 293.25C266.488 292.689 265.215 292.409 263.776 292.409C262.306 292.409 261.01 292.689 259.889 293.25C258.783 293.795 257.92 294.576 257.298 295.591C256.692 296.591 256.397 297.758 256.412 299.091C256.397 300.439 256.7 301.629 257.321 302.659C257.957 303.674 258.829 304.477 259.935 305.068C261.056 305.644 262.336 305.932 263.776 305.932ZM304.724 333.636C301.694 333.636 298.982 333.068 296.588 331.932C294.194 330.78 292.293 329.205 290.884 327.205C289.49 325.205 288.747 322.917 288.656 320.341H296.838C296.99 322.25 297.815 323.811 299.315 325.023C300.815 326.22 302.618 326.818 304.724 326.818C306.376 326.818 307.846 326.439 309.134 325.682C310.421 324.924 311.437 323.871 312.179 322.523C312.921 321.174 313.285 319.636 313.27 317.909C313.285 316.152 312.914 314.591 312.156 313.227C311.399 311.864 310.361 310.795 309.043 310.023C307.724 309.235 306.209 308.841 304.497 308.841C303.103 308.826 301.732 309.083 300.384 309.614C299.035 310.144 297.967 310.841 297.179 311.705L289.565 310.455L291.997 286.455H318.997V293.5H298.974L297.634 305.841H297.906C298.77 304.826 299.99 303.985 301.565 303.318C303.141 302.636 304.868 302.295 306.747 302.295C309.565 302.295 312.08 302.962 314.293 304.295C316.505 305.614 318.247 307.432 319.52 309.75C320.793 312.068 321.429 314.72 321.429 317.705C321.429 320.78 320.717 323.523 319.293 325.932C317.884 328.326 315.921 330.212 313.406 331.591C310.906 332.955 308.012 333.636 304.724 333.636ZM353.929 324.273V321.818C353.929 320.015 354.308 318.356 355.065 316.841C355.838 315.326 356.959 314.106 358.429 313.182C359.899 312.258 361.679 311.795 363.77 311.795C365.921 311.795 367.724 312.258 369.179 313.182C370.634 314.091 371.732 315.303 372.474 316.818C373.232 318.333 373.611 320 373.611 321.818V324.273C373.611 326.076 373.232 327.735 372.474 329.25C371.717 330.765 370.603 331.985 369.134 332.909C367.679 333.833 365.891 334.295 363.77 334.295C361.649 334.295 359.853 333.833 358.384 332.909C356.914 331.985 355.8 330.765 355.043 329.25C354.3 327.735 353.929 326.076 353.929 324.273ZM359.861 321.818V324.273C359.861 325.47 360.149 326.568 360.724 327.568C361.3 328.568 362.315 329.068 363.77 329.068C365.24 329.068 366.247 328.576 366.793 327.591C367.353 326.591 367.634 325.485 367.634 324.273V321.818C367.634 320.606 367.368 319.5 366.838 318.5C366.308 317.485 365.285 316.977 363.77 316.977C362.346 316.977 361.338 317.485 360.747 318.5C360.156 319.5 359.861 320.606 359.861 321.818ZM330.27 297.636V295.182C330.27 293.364 330.656 291.697 331.429 290.182C332.202 288.667 333.323 287.455 334.793 286.545C336.262 285.621 338.043 285.159 340.134 285.159C342.27 285.159 344.065 285.621 345.52 286.545C346.99 287.455 348.096 288.667 348.838 290.182C349.58 291.697 349.952 293.364 349.952 295.182V297.636C349.952 299.455 349.573 301.121 348.815 302.636C348.073 304.136 346.967 305.341 345.497 306.25C344.027 307.159 342.24 307.614 340.134 307.614C337.997 307.614 336.194 307.159 334.724 306.25C333.27 305.341 332.164 304.129 331.406 302.614C330.649 301.098 330.27 299.439 330.27 297.636ZM336.247 295.182V297.636C336.247 298.848 336.527 299.955 337.088 300.955C337.664 301.939 338.679 302.432 340.134 302.432C341.588 302.432 342.588 301.939 343.134 300.955C343.694 299.955 343.974 298.848 343.974 297.636V295.182C343.974 293.97 343.709 292.864 343.179 291.864C342.649 290.848 341.634 290.341 340.134 290.341C338.694 290.341 337.687 290.848 337.111 291.864C336.535 292.879 336.247 293.985 336.247 295.182ZM332.861 333L364.861 286.455H370.543L338.543 333H332.861Z" fill="#4977EA"/>
<path d="M162.303 366.455H164.505V376.021C164.505 377.039 164.266 377.941 163.788 378.727C163.309 379.509 162.637 380.124 161.771 380.574C160.904 381.019 159.888 381.241 158.724 381.241C157.564 381.241 156.55 381.019 155.684 380.574C154.817 380.124 154.145 379.509 153.667 378.727C153.189 377.941 152.95 377.039 152.95 376.021V366.455H155.144V375.844C155.144 376.502 155.289 377.087 155.577 377.598C155.871 378.109 156.285 378.512 156.82 378.805C157.355 379.094 157.99 379.239 158.724 379.239C159.462 379.239 160.099 379.094 160.634 378.805C161.174 378.512 161.586 378.109 161.87 377.598C162.159 377.087 162.303 376.502 162.303 375.844V366.455ZM169.649 374.523V381H167.525V370.091H169.564V371.866H169.699C169.949 371.289 170.342 370.825 170.877 370.474C171.417 370.124 172.097 369.949 172.916 369.949C173.659 369.949 174.31 370.105 174.869 370.418C175.428 370.725 175.861 371.185 176.169 371.795C176.476 372.406 176.63 373.161 176.63 374.061V381H174.507V374.317C174.507 373.526 174.301 372.908 173.889 372.463C173.477 372.013 172.911 371.788 172.191 371.788C171.699 371.788 171.261 371.895 170.877 372.108C170.499 372.321 170.198 372.634 169.975 373.045C169.758 373.453 169.649 373.945 169.649 374.523ZM183.562 381.213C182.681 381.213 181.895 380.988 181.204 380.538C180.518 380.084 179.978 379.437 179.585 378.599C179.197 377.757 179.002 376.746 179.002 375.567C179.002 374.388 179.199 373.379 179.592 372.541C179.99 371.703 180.534 371.062 181.225 370.616C181.917 370.171 182.7 369.949 183.576 369.949C184.253 369.949 184.798 370.062 185.21 370.29C185.627 370.512 185.949 370.773 186.176 371.071C186.408 371.369 186.588 371.632 186.716 371.859H186.843V366.455H188.967V381H186.893V379.303H186.716C186.588 379.535 186.403 379.8 186.162 380.098C185.925 380.396 185.598 380.657 185.181 380.879C184.765 381.102 184.225 381.213 183.562 381.213ZM184.031 379.402C184.642 379.402 185.158 379.241 185.579 378.919C186.005 378.592 186.327 378.14 186.545 377.562C186.768 376.985 186.879 376.312 186.879 375.545C186.879 374.788 186.77 374.125 186.552 373.557C186.334 372.989 186.015 372.546 185.593 372.229C185.172 371.911 184.651 371.753 184.031 371.753C183.392 371.753 182.859 371.919 182.433 372.25C182.007 372.581 181.685 373.034 181.467 373.607C181.254 374.179 181.147 374.826 181.147 375.545C181.147 376.275 181.256 376.93 181.474 377.513C181.692 378.095 182.014 378.557 182.44 378.898C182.871 379.234 183.401 379.402 184.031 379.402ZM196.7 381.22C195.625 381.22 194.699 380.991 193.923 380.531C193.151 380.067 192.554 379.416 192.133 378.578C191.716 377.735 191.508 376.748 191.508 375.616C191.508 374.499 191.716 373.514 192.133 372.662C192.554 371.81 193.141 371.144 193.894 370.666C194.652 370.188 195.537 369.949 196.55 369.949C197.166 369.949 197.763 370.051 198.34 370.254C198.918 370.458 199.436 370.777 199.896 371.213C200.355 371.649 200.717 372.214 200.982 372.911C201.247 373.602 201.38 374.442 201.38 375.432V376.185H192.708V374.594H199.299C199.299 374.035 199.185 373.54 198.958 373.109C198.731 372.674 198.411 372.33 197.999 372.08C197.592 371.829 197.114 371.703 196.565 371.703C195.968 371.703 195.447 371.85 195.002 372.143C194.562 372.432 194.221 372.811 193.979 373.28C193.743 373.744 193.624 374.248 193.624 374.793V376.036C193.624 376.765 193.752 377.385 194.008 377.896C194.268 378.408 194.63 378.798 195.094 379.068C195.558 379.333 196.101 379.466 196.721 379.466C197.123 379.466 197.49 379.409 197.822 379.295C198.153 379.177 198.44 379.002 198.681 378.77C198.923 378.538 199.107 378.251 199.235 377.911L201.245 378.273C201.084 378.865 200.795 379.383 200.379 379.828C199.967 380.268 199.448 380.612 198.823 380.858C198.203 381.099 197.495 381.22 196.7 381.22ZM203.736 381V370.091H205.789V371.824H205.902C206.101 371.237 206.452 370.775 206.953 370.439C207.46 370.098 208.033 369.928 208.672 369.928C208.805 369.928 208.961 369.932 209.141 369.942C209.326 369.951 209.47 369.963 209.574 369.977V372.009C209.489 371.985 209.337 371.959 209.12 371.93C208.902 371.897 208.684 371.881 208.466 371.881C207.964 371.881 207.517 371.987 207.124 372.2C206.736 372.409 206.428 372.7 206.201 373.074C205.973 373.443 205.86 373.865 205.86 374.338V381H203.736ZM221.897 370.091V371.795H215.732V370.091H221.897ZM217.422 381V368.827C217.422 368.145 217.571 367.579 217.87 367.129C218.168 366.675 218.563 366.336 219.056 366.114C219.548 365.886 220.083 365.773 220.661 365.773C221.087 365.773 221.452 365.808 221.755 365.879C222.058 365.946 222.283 366.007 222.429 366.064L221.932 367.783C221.833 367.754 221.705 367.721 221.549 367.683C221.392 367.641 221.203 367.619 220.98 367.619C220.464 367.619 220.095 367.747 219.873 368.003C219.655 368.259 219.546 368.628 219.546 369.111V381H217.422ZM224.088 381V370.091H226.211V381H224.088ZM225.16 368.408C224.791 368.408 224.474 368.285 224.208 368.038C223.948 367.787 223.818 367.489 223.818 367.143C223.818 366.793 223.948 366.495 224.208 366.249C224.474 365.998 224.791 365.872 225.16 365.872C225.529 365.872 225.844 365.998 226.105 366.249C226.37 366.495 226.502 366.793 226.502 367.143C226.502 367.489 226.37 367.787 226.105 368.038C225.844 368.285 225.529 368.408 225.16 368.408ZM238.401 370.091L234.445 381H232.172L228.209 370.091H230.489L233.251 378.486H233.365L236.121 370.091H238.401ZM244.727 381.22C243.652 381.22 242.726 380.991 241.95 380.531C241.178 380.067 240.582 379.416 240.16 378.578C239.743 377.735 239.535 376.748 239.535 375.616C239.535 374.499 239.743 373.514 240.16 372.662C240.582 371.81 241.169 371.144 241.922 370.666C242.679 370.188 243.565 369.949 244.578 369.949C245.193 369.949 245.79 370.051 246.368 370.254C246.945 370.458 247.464 370.777 247.923 371.213C248.382 371.649 248.744 372.214 249.01 372.911C249.275 373.602 249.407 374.442 249.407 375.432V376.185H240.735V374.594H247.326C247.326 374.035 247.213 373.54 246.985 373.109C246.758 372.674 246.439 372.33 246.027 372.08C245.619 371.829 245.141 371.703 244.592 371.703C243.995 371.703 243.475 371.85 243.029 372.143C242.589 372.432 242.248 372.811 242.007 373.28C241.77 373.744 241.652 374.248 241.652 374.793V376.036C241.652 376.765 241.779 377.385 242.035 377.896C242.296 378.408 242.658 378.798 243.122 379.068C243.586 379.333 244.128 379.466 244.748 379.466C245.151 379.466 245.518 379.409 245.849 379.295C246.181 379.177 246.467 379.002 246.708 378.77C246.95 378.538 247.135 378.251 247.262 377.911L249.272 378.273C249.111 378.865 248.823 379.383 248.406 379.828C247.994 380.268 247.475 380.612 246.85 380.858C246.23 381.099 245.522 381.22 244.727 381.22ZM258.191 373.933V375.773H251.742V373.933H258.191ZM262.364 385.091C262.046 385.091 261.758 385.065 261.497 385.013C261.237 384.965 261.043 384.913 260.915 384.857L261.426 383.116C261.814 383.221 262.16 383.266 262.463 383.251C262.766 383.237 263.034 383.124 263.266 382.911C263.502 382.697 263.711 382.349 263.891 381.866L264.153 381.142L260.162 370.091H262.435L265.197 378.557H265.311L268.074 370.091H270.354L265.858 382.456C265.65 383.024 265.384 383.505 265.062 383.898C264.741 384.295 264.357 384.594 263.912 384.793C263.467 384.991 262.951 385.091 262.364 385.091ZM276.68 381.22C275.605 381.22 274.68 380.991 273.903 380.531C273.131 380.067 272.535 379.416 272.113 378.578C271.697 377.735 271.488 376.748 271.488 375.616C271.488 374.499 271.697 373.514 272.113 372.662C272.535 371.81 273.122 371.144 273.875 370.666C274.632 370.188 275.518 369.949 276.531 369.949C277.146 369.949 277.743 370.051 278.321 370.254C278.898 370.458 279.417 370.777 279.876 371.213C280.335 371.649 280.698 372.214 280.963 372.911C281.228 373.602 281.36 374.442 281.36 375.432V376.185H272.689V374.594H279.279C279.279 374.035 279.166 373.54 278.939 373.109C278.711 372.674 278.392 372.33 277.98 372.08C277.573 371.829 277.094 371.703 276.545 371.703C275.949 371.703 275.428 371.85 274.983 372.143C274.542 372.432 274.201 372.811 273.96 373.28C273.723 373.744 273.605 374.248 273.605 374.793V376.036C273.605 376.765 273.733 377.385 273.988 377.896C274.249 378.408 274.611 378.798 275.075 379.068C275.539 379.333 276.081 379.466 276.701 379.466C277.104 379.466 277.471 379.409 277.802 379.295C278.134 379.177 278.42 379.002 278.662 378.77C278.903 378.538 279.088 378.251 279.216 377.911L281.225 378.273C281.065 378.865 280.776 379.383 280.359 379.828C279.947 380.268 279.429 380.612 278.804 380.858C278.183 381.099 277.475 381.22 276.68 381.22ZM286.891 381.241C286.2 381.241 285.575 381.114 285.016 380.858C284.458 380.598 284.015 380.221 283.688 379.729C283.366 379.236 283.205 378.633 283.205 377.918C283.205 377.302 283.324 376.795 283.56 376.398C283.797 376 284.117 375.685 284.519 375.453C284.922 375.221 285.371 375.046 285.869 374.928C286.366 374.809 286.872 374.719 287.388 374.658C288.042 374.582 288.572 374.52 288.979 374.473C289.387 374.421 289.683 374.338 289.867 374.224C290.052 374.111 290.144 373.926 290.144 373.67V373.621C290.144 373 289.969 372.52 289.619 372.179C289.273 371.838 288.757 371.668 288.07 371.668C287.355 371.668 286.792 371.826 286.38 372.143C285.973 372.456 285.691 372.804 285.535 373.188L283.539 372.733C283.776 372.07 284.121 371.535 284.576 371.128C285.035 370.716 285.563 370.418 286.16 370.233C286.756 370.044 287.384 369.949 288.042 369.949C288.478 369.949 288.939 370.001 289.427 370.105C289.919 370.205 290.379 370.389 290.805 370.659C291.236 370.929 291.588 371.315 291.863 371.817C292.138 372.314 292.275 372.96 292.275 373.756V381H290.201V379.509H290.116C289.978 379.783 289.772 380.053 289.498 380.318C289.223 380.583 288.871 380.804 288.44 380.979C288.009 381.154 287.493 381.241 286.891 381.241ZM287.353 379.537C287.94 379.537 288.442 379.421 288.859 379.189C289.28 378.957 289.6 378.654 289.817 378.28C290.04 377.901 290.151 377.496 290.151 377.065V375.659C290.076 375.735 289.929 375.806 289.711 375.872C289.498 375.934 289.254 375.988 288.979 376.036C288.705 376.078 288.437 376.118 288.177 376.156C287.916 376.189 287.699 376.218 287.523 376.241C287.112 376.294 286.735 376.381 286.394 376.504C286.058 376.627 285.788 376.805 285.585 377.037C285.386 377.264 285.286 377.567 285.286 377.946C285.286 378.472 285.48 378.869 285.869 379.139C286.257 379.404 286.752 379.537 287.353 379.537ZM295.103 381V370.091H297.156V371.824H297.27C297.468 371.237 297.819 370.775 298.321 370.439C298.827 370.098 299.4 369.928 300.039 369.928C300.172 369.928 300.328 369.932 300.508 369.942C300.693 369.951 300.837 369.963 300.941 369.977V372.009C300.856 371.985 300.705 371.959 300.487 371.93C300.269 371.897 300.051 371.881 299.833 371.881C299.332 371.881 298.884 371.987 298.491 372.2C298.103 372.409 297.795 372.7 297.568 373.074C297.341 373.443 297.227 373.865 297.227 374.338V381H295.103ZM310.437 381L307.227 370.091H309.422L311.559 378.102H311.666L313.811 370.091H316.005L318.136 378.067H318.243L320.366 370.091H322.561L319.358 381H317.191L314.975 373.124H314.812L312.596 381H310.437ZM328.839 381.22C327.816 381.22 326.924 380.986 326.162 380.517C325.399 380.048 324.807 379.393 324.386 378.55C323.965 377.707 323.754 376.722 323.754 375.595C323.754 374.464 323.965 373.474 324.386 372.626C324.807 371.779 325.399 371.121 326.162 370.652C326.924 370.183 327.816 369.949 328.839 369.949C329.862 369.949 330.754 370.183 331.517 370.652C332.279 371.121 332.871 371.779 333.292 372.626C333.714 373.474 333.924 374.464 333.924 375.595C333.924 376.722 333.714 377.707 333.292 378.55C332.871 379.393 332.279 380.048 331.517 380.517C330.754 380.986 329.862 381.22 328.839 381.22ZM328.846 379.438C329.509 379.438 330.058 379.262 330.494 378.912C330.93 378.562 331.252 378.095 331.46 377.513C331.673 376.93 331.779 376.289 331.779 375.588C331.779 374.892 331.673 374.253 331.46 373.67C331.252 373.083 330.93 372.612 330.494 372.257C330.058 371.902 329.509 371.724 328.846 371.724C328.179 371.724 327.625 371.902 327.184 372.257C326.749 372.612 326.424 373.083 326.211 373.67C326.003 374.253 325.899 374.892 325.899 375.588C325.899 376.289 326.003 376.93 326.211 377.513C326.424 378.095 326.749 378.562 327.184 378.912C327.625 379.262 328.179 379.438 328.846 379.438ZM336.295 381V370.091H338.347V371.824H338.461C338.66 371.237 339.01 370.775 339.512 370.439C340.019 370.098 340.592 369.928 341.231 369.928C341.363 369.928 341.52 369.932 341.7 369.942C341.884 369.951 342.029 369.963 342.133 369.977V372.009C342.048 371.985 341.896 371.959 341.678 371.93C341.46 371.897 341.243 371.881 341.025 371.881C340.523 371.881 340.076 371.987 339.683 372.2C339.294 372.409 338.987 372.7 338.759 373.074C338.532 373.443 338.418 373.865 338.418 374.338V381H336.295ZM345.924 377.3L345.909 374.707H346.279L350.625 370.091H353.168L348.211 375.347H347.877L345.924 377.3ZM343.971 381V366.455H346.094V381H343.971ZM350.86 381L346.953 375.815L348.417 374.331L353.466 381H350.86ZM365.098 381.22C364.023 381.22 363.098 380.991 362.321 380.531C361.549 380.067 360.953 379.416 360.531 378.578C360.115 377.735 359.906 376.748 359.906 375.616C359.906 374.499 360.115 373.514 360.531 372.662C360.953 371.81 361.54 371.144 362.293 370.666C363.05 370.188 363.936 369.949 364.949 369.949C365.564 369.949 366.161 370.051 366.739 370.254C367.316 370.458 367.835 370.777 368.294 371.213C368.753 371.649 369.116 372.214 369.381 372.911C369.646 373.602 369.778 374.442 369.778 375.432V376.185H361.107V374.594H367.697C367.697 374.035 367.584 373.54 367.357 373.109C367.129 372.674 366.81 372.33 366.398 372.08C365.991 371.829 365.512 371.703 364.963 371.703C364.366 371.703 363.846 371.85 363.401 372.143C362.96 372.432 362.619 372.811 362.378 373.28C362.141 373.744 362.023 374.248 362.023 374.793V376.036C362.023 376.765 362.151 377.385 362.406 377.896C362.667 378.408 363.029 378.798 363.493 379.068C363.957 379.333 364.499 379.466 365.119 379.466C365.522 379.466 365.889 379.409 366.22 379.295C366.552 379.177 366.838 379.002 367.08 378.77C367.321 378.538 367.506 378.251 367.634 377.911L369.643 378.273C369.482 378.865 369.194 379.383 368.777 379.828C368.365 380.268 367.847 380.612 367.222 380.858C366.601 381.099 365.893 381.22 365.098 381.22ZM373.557 370.091L375.964 374.338L378.393 370.091H380.716L377.314 375.545L380.744 381H378.422L375.964 376.923L373.514 381H371.185L374.58 375.545L371.227 370.091H373.557ZM382.896 385.091V370.091H384.97V371.859H385.148C385.271 371.632 385.448 371.369 385.68 371.071C385.912 370.773 386.234 370.512 386.646 370.29C387.058 370.062 387.603 369.949 388.28 369.949C389.161 369.949 389.946 370.171 390.638 370.616C391.329 371.062 391.871 371.703 392.264 372.541C392.662 373.379 392.861 374.388 392.861 375.567C392.861 376.746 392.664 377.757 392.271 378.599C391.878 379.437 391.339 380.084 390.652 380.538C389.965 380.988 389.182 381.213 388.301 381.213C387.638 381.213 387.096 381.102 386.675 380.879C386.258 380.657 385.931 380.396 385.695 380.098C385.458 379.8 385.276 379.535 385.148 379.303H385.02V385.091H382.896ZM384.977 375.545C384.977 376.312 385.089 376.985 385.311 377.562C385.534 378.14 385.856 378.592 386.277 378.919C386.698 379.241 387.214 379.402 387.825 379.402C388.46 379.402 388.99 379.234 389.416 378.898C389.842 378.557 390.164 378.095 390.382 377.513C390.605 376.93 390.716 376.275 390.716 375.545C390.716 374.826 390.607 374.179 390.389 373.607C390.176 373.034 389.854 372.581 389.423 372.25C388.997 371.919 388.464 371.753 387.825 371.753C387.21 371.753 386.689 371.911 386.263 372.229C385.841 372.546 385.522 372.989 385.304 373.557C385.086 374.125 384.977 374.788 384.977 375.545ZM399.942 381.22C398.867 381.22 397.941 380.991 397.165 380.531C396.393 380.067 395.796 379.416 395.375 378.578C394.958 377.735 394.75 376.748 394.75 375.616C394.75 374.499 394.958 373.514 395.375 372.662C395.796 371.81 396.384 371.144 397.136 370.666C397.894 370.188 398.779 369.949 399.793 369.949C400.408 369.949 401.005 370.051 401.582 370.254C402.16 370.458 402.679 370.777 403.138 371.213C403.597 371.649 403.959 372.214 404.224 372.911C404.49 373.602 404.622 374.442 404.622 375.432V376.185H395.95V374.594H402.541C402.541 374.035 402.428 373.54 402.2 373.109C401.973 372.674 401.653 372.33 401.241 372.08C400.834 371.829 400.356 371.703 399.807 371.703C399.21 371.703 398.689 371.85 398.244 372.143C397.804 372.432 397.463 372.811 397.222 373.28C396.985 373.744 396.866 374.248 396.866 374.793V376.036C396.866 376.765 396.994 377.385 397.25 377.896C397.51 378.408 397.873 378.798 398.337 379.068C398.801 379.333 399.343 379.466 399.963 379.466C400.366 379.466 400.732 379.409 401.064 379.295C401.395 379.177 401.682 379.002 401.923 378.77C402.165 378.538 402.349 378.251 402.477 377.911L404.487 378.273C404.326 378.865 404.037 379.383 403.621 379.828C403.209 380.268 402.69 380.612 402.065 380.858C401.445 381.099 400.737 381.22 399.942 381.22ZM406.978 381V370.091H409.031V371.824H409.145C409.343 371.237 409.694 370.775 410.196 370.439C410.702 370.098 411.275 369.928 411.914 369.928C412.047 369.928 412.203 369.932 412.383 369.942C412.568 369.951 412.712 369.963 412.816 369.977V372.009C412.731 371.985 412.58 371.959 412.362 371.93C412.144 371.897 411.926 371.881 411.708 371.881C411.207 371.881 410.759 371.987 410.366 372.2C409.978 372.409 409.67 372.7 409.443 373.074C409.216 373.443 409.102 373.865 409.102 374.338V381H406.978ZM414.654 381V370.091H416.778V381H414.654ZM415.727 368.408C415.357 368.408 415.04 368.285 414.775 368.038C414.514 367.787 414.384 367.489 414.384 367.143C414.384 366.793 414.514 366.495 414.775 366.249C415.04 365.998 415.357 365.872 415.727 365.872C416.096 365.872 416.411 365.998 416.671 366.249C416.936 366.495 417.069 366.793 417.069 367.143C417.069 367.489 416.936 367.787 416.671 368.038C416.411 368.285 416.096 368.408 415.727 368.408ZM424.336 381.22C423.261 381.22 422.336 380.991 421.559 380.531C420.788 380.067 420.191 379.416 419.77 378.578C419.353 377.735 419.145 376.748 419.145 375.616C419.145 374.499 419.353 373.514 419.77 372.662C420.191 371.81 420.778 371.144 421.531 370.666C422.288 370.188 423.174 369.949 424.187 369.949C424.803 369.949 425.399 370.051 425.977 370.254C426.555 370.458 427.073 370.777 427.532 371.213C427.992 371.649 428.354 372.214 428.619 372.911C428.884 373.602 429.017 374.442 429.017 375.432V376.185H420.345V374.594H426.936C426.936 374.035 426.822 373.54 426.595 373.109C426.368 372.674 426.048 372.33 425.636 372.08C425.229 371.829 424.751 371.703 424.201 371.703C423.605 371.703 423.084 371.85 422.639 372.143C422.199 372.432 421.858 372.811 421.616 373.28C421.379 373.744 421.261 374.248 421.261 374.793V376.036C421.261 376.765 421.389 377.385 421.645 377.896C421.905 378.408 422.267 378.798 422.731 379.068C423.195 379.333 423.737 379.466 424.358 379.466C424.76 379.466 425.127 379.409 425.458 379.295C425.79 379.177 426.076 379.002 426.318 378.77C426.559 378.538 426.744 378.251 426.872 377.911L428.882 378.273C428.721 378.865 428.432 379.383 428.015 379.828C427.603 380.268 427.085 380.612 426.46 380.858C425.84 381.099 425.132 381.22 424.336 381.22ZM433.496 374.523V381H431.373V370.091H433.411V371.866H433.546C433.797 371.289 434.19 370.825 434.725 370.474C435.265 370.124 435.944 369.949 436.763 369.949C437.507 369.949 438.158 370.105 438.717 370.418C439.275 370.725 439.709 371.185 440.016 371.795C440.324 372.406 440.478 373.161 440.478 374.061V381H438.354V374.317C438.354 373.526 438.148 372.908 437.737 372.463C437.325 372.013 436.759 371.788 436.039 371.788C435.547 371.788 435.109 371.895 434.725 372.108C434.346 372.321 434.046 372.634 433.823 373.045C433.605 373.453 433.496 373.945 433.496 374.523ZM447.921 381.22C446.865 381.22 445.956 380.981 445.194 380.503C444.436 380.02 443.854 379.355 443.447 378.507C443.04 377.66 442.836 376.689 442.836 375.595C442.836 374.487 443.044 373.509 443.461 372.662C443.878 371.81 444.465 371.144 445.222 370.666C445.98 370.188 446.872 369.949 447.9 369.949C448.728 369.949 449.467 370.103 450.116 370.411C450.764 370.714 451.288 371.14 451.685 371.689C452.088 372.238 452.327 372.88 452.403 373.614H450.336C450.222 373.102 449.962 372.662 449.555 372.293C449.152 371.923 448.612 371.739 447.935 371.739C447.344 371.739 446.825 371.895 446.38 372.207C445.94 372.515 445.596 372.955 445.35 373.528C445.104 374.097 444.981 374.769 444.981 375.545C444.981 376.341 445.102 377.027 445.343 377.605C445.585 378.183 445.925 378.63 446.366 378.947C446.811 379.265 447.334 379.423 447.935 379.423C448.338 379.423 448.702 379.35 449.029 379.203C449.361 379.052 449.638 378.836 449.86 378.557C450.087 378.277 450.246 377.941 450.336 377.548H452.403C452.327 378.254 452.097 378.884 451.714 379.438C451.33 379.991 450.817 380.427 450.173 380.744C449.533 381.062 448.783 381.22 447.921 381.22ZM459.375 381.22C458.301 381.22 457.375 380.991 456.598 380.531C455.827 380.067 455.23 379.416 454.809 378.578C454.392 377.735 454.184 376.748 454.184 375.616C454.184 374.499 454.392 373.514 454.809 372.662C455.23 371.81 455.817 371.144 456.57 370.666C457.328 370.188 458.213 369.949 459.226 369.949C459.842 369.949 460.438 370.051 461.016 370.254C461.594 370.458 462.112 370.777 462.571 371.213C463.031 371.649 463.393 372.214 463.658 372.911C463.923 373.602 464.056 374.442 464.056 375.432V376.185H455.384V374.594H461.975C461.975 374.035 461.861 373.54 461.634 373.109C461.407 372.674 461.087 372.33 460.675 372.08C460.268 371.829 459.79 371.703 459.24 371.703C458.644 371.703 458.123 371.85 457.678 372.143C457.238 372.432 456.897 372.811 456.655 373.28C456.418 373.744 456.3 374.248 456.3 374.793V376.036C456.3 376.765 456.428 377.385 456.684 377.896C456.944 378.408 457.306 378.798 457.77 379.068C458.234 379.333 458.776 379.466 459.397 379.466C459.799 379.466 460.166 379.409 460.498 379.295C460.829 379.177 461.115 379.002 461.357 378.77C461.598 378.538 461.783 378.251 461.911 377.911L463.921 378.273C463.76 378.865 463.471 379.383 463.054 379.828C462.642 380.268 462.124 380.612 461.499 380.858C460.879 381.099 460.171 381.22 459.375 381.22ZM467.811 381.135C467.423 381.135 467.089 380.998 466.81 380.723C466.53 380.444 466.391 380.107 466.391 379.714C466.391 379.326 466.53 378.995 466.81 378.72C467.089 378.441 467.423 378.301 467.811 378.301C468.199 378.301 468.533 378.441 468.812 378.72C469.092 378.995 469.232 379.326 469.232 379.714C469.232 379.975 469.165 380.214 469.033 380.432C468.905 380.645 468.734 380.815 468.521 380.943C468.308 381.071 468.071 381.135 467.811 381.135Z" fill="black"/>
</svg>
